<ttFont>
    <TTGlyph name=".notdef" xMin="136" yMin="0" xMax="1225" yMax="2730">
      <contour>
        <pt x="136" y="0" on="1"/>
        <pt x="136" y="2730" on="1"/>
        <pt x="1225" y="2730" on="1"/>
        <pt x="1225" y="0" on="1"/>
      </contour>
      <contour>
        <pt x="272" y="136" on="1"/>
        <pt x="1089" y="136" on="1"/>
        <pt x="1089" y="2594" on="1"/>
        <pt x="272" y="2594" on="1"/>
      </contour>
    </TTGlyph>
    <TTGlyph name="A" xMin="111" yMin="-25" xMax="2789" yMax="2826">
      <contour>
        <pt x="479" y="-12" on="1"/>
        <pt x="168" y="-25" on="1"/>
        <pt x="127" y="-25" on="0"/>
        <pt x="111" y="4" on="0"/>
        <pt x="111" y="104" on="0"/>
        <pt x="134" y="123" on="0"/>
        <pt x="184" y="123" on="1"/>
        <pt x="307" y="123" on="1"/>
        <pt x="344" y="123" on="0"/>
        <pt x="850" y="1358" on="1"/>
        <pt x="893" y="1461" on="0"/>
        <pt x="897" y="1470" on="1"/>
        <pt x="1331" y="2478" on="1"/>
        <pt x="1347" y="2520" on="0"/>
        <pt x="1456" y="2653" on="0"/>
        <pt x="1487" y="2721" on="1"/>
        <pt x="1534" y="2824" on="0"/>
        <pt x="1569" y="2826" on="1"/>
        <pt x="1611" y="2826" on="0"/>
        <pt x="1618" y="2789" on="1"/>
        <pt x="2109" y="1409" on="1"/>
        <pt x="2573" y="123" on="0"/>
        <pt x="2601" y="123" on="1"/>
        <pt x="2744" y="123" on="1"/>
        <pt x="2773" y="123" on="0"/>
        <pt x="2789" y="96" on="0"/>
        <pt x="2789" y="8" on="0"/>
        <pt x="2773" y="-25" on="0"/>
        <pt x="2744" y="-25" on="1"/>
        <pt x="2363" y="-12" on="1"/>
        <pt x="1892" y="-25" on="1"/>
        <pt x="1856" y="-25" on="0"/>
        <pt x="1839" y="6" on="0"/>
        <pt x="1839" y="104" on="0"/>
        <pt x="1860" y="123" on="0"/>
        <pt x="1909" y="123" on="1"/>
        <pt x="2134" y="123" on="1"/>
        <pt x="2138" y="123" on="0"/>
        <pt x="2138" y="181" on="0"/>
        <pt x="1933" y="817" on="0"/>
        <pt x="1836" y="1095" on="0"/>
        <pt x="1820" y="1114" on="0"/>
        <pt x="1790" y="1114" on="1"/>
        <pt x="963" y="1114" on="1"/>
        <pt x="920" y="1114" on="0"/>
        <pt x="893" y="1092" on="0"/>
        <pt x="877" y="1049" on="1"/>
        <pt x="549" y="220" on="0"/>
        <pt x="545" y="127" on="1"/>
        <pt x="549" y="123" on="1"/>
        <pt x="864" y="123" on="1"/>
        <pt x="898" y="123" on="0"/>
        <pt x="913" y="98" on="0"/>
        <pt x="913" y="34" on="0"/>
        <pt x="912" y="15" on="0"/>
        <pt x="908" y="-10" on="0"/>
        <pt x="902" y="-14" on="1"/>
        <pt x="890" y="-25" on="0"/>
        <pt x="864" y="-25" on="1"/>
      </contour>
      <contour>
        <pt x="1745" y="1237" on="1"/>
        <pt x="1782" y="1237" on="0"/>
        <pt x="1782" y="1262" on="0"/>
        <pt x="1769" y="1294" on="1"/>
        <pt x="1430" y="2290" on="1"/>
        <pt x="1416" y="2339" on="0"/>
        <pt x="1398" y="2339" on="0"/>
        <pt x="1380" y="2290" on="1"/>
        <pt x="979" y="1307" on="1"/>
        <pt x="958" y="1256" on="0"/>
        <pt x="958" y="1237" on="0"/>
        <pt x="1012" y="1237" on="1"/>
      </contour>
    </TTGlyph>
    <TTGlyph name="A.c2" xMin="70" yMin="-20" xMax="1921" yMax="1769">
      <component glyphName="a.sc" x="0" y="0" flags="0x1004"/>
    </TTGlyph>
    <TTGlyph name="AE" xMin="70" yMin="-25" xMax="3854" yMax="2839">
      <contour>
        <pt x="430" y="-12" on="1"/>
        <pt x="123" y="-25" on="1"/>
        <pt x="87" y="-25" on="0"/>
        <pt x="70" y="6" on="0"/>
        <pt x="70" y="102" on="0"/>
        <pt x="103" y="123" on="0"/>
        <pt x="156" y="123" on="1"/>
        <pt x="270" y="123" on="1"/>
        <pt x="302" y="123" on="0"/>
        <pt x="452" y="374" on="1"/>
        <pt x="764" y="896" on="0"/>
        <pt x="885" y="1094" on="1"/>
        <pt x="1790" y="2568" on="1"/>
        <pt x="1796" y="2587" on="0"/>
        <pt x="1787" y="2593" on="0"/>
        <pt x="1769" y="2593" on="1"/>
        <pt x="1565" y="2593" on="1"/>
        <pt x="1535" y="2593" on="0"/>
        <pt x="1520" y="2621" on="0"/>
        <pt x="1520" y="2707" on="0"/>
        <pt x="1538" y="2736" on="0"/>
        <pt x="1565" y="2736" on="1"/>
        <pt x="1565" y="2736" on="0"/>
        <pt x="2191" y="2724" on="1"/>
        <pt x="3224" y="2736" on="1"/>
        <pt x="3409" y="2736" on="0"/>
        <pt x="3440" y="2740" on="1"/>
        <pt x="3473" y="2744" on="0"/>
        <pt x="3473" y="2777" on="1"/>
        <pt x="3483" y="2832" on="0"/>
        <pt x="3518" y="2839" on="0"/>
        <pt x="3586" y="2839" on="0"/>
        <pt x="3621" y="2818" on="0"/>
        <pt x="3621" y="2781" on="1"/>
        <pt x="3604" y="2241" on="1"/>
        <pt x="3604" y="2212" on="0"/>
        <pt x="3572" y="2195" on="0"/>
        <pt x="3527" y="2195" on="1"/>
        <pt x="3453" y="2195" on="0"/>
        <pt x="3453" y="2257" on="1"/>
        <pt x="3465" y="2572" on="1"/>
        <pt x="3465" y="2583" on="0"/>
        <pt x="2684" y="2601" on="0"/>
        <pt x="2372" y="2601" on="1"/>
        <pt x="2347" y="2601" on="0"/>
        <pt x="2347" y="1917" on="0"/>
        <pt x="2355" y="1469" on="0"/>
        <pt x="2366" y="1454" on="0"/>
        <pt x="2392" y="1454" on="1"/>
        <pt x="3076" y="1454" on="1"/>
        <pt x="3289" y="1454" on="0"/>
        <pt x="3289" y="1507" on="1"/>
        <pt x="3289" y="1720" on="1"/>
        <pt x="3289" y="1761" on="0"/>
        <pt x="3441" y="1761" on="0"/>
        <pt x="3441" y="1724" on="1"/>
        <pt x="3432" y="1397" on="1"/>
        <pt x="3441" y="1049" on="1"/>
        <pt x="3441" y="1012" on="0"/>
        <pt x="3289" y="1012" on="0"/>
        <pt x="3289" y="1053" on="1"/>
        <pt x="3289" y="1257" on="1"/>
        <pt x="3289" y="1319" on="0"/>
        <pt x="3076" y="1319" on="1"/>
        <pt x="2729" y="1319" on="0"/>
        <pt x="2379" y="1319" on="0"/>
        <pt x="2368" y="1318" on="0"/>
        <pt x="2364" y="1314" on="0"/>
        <pt x="2358" y="1307" on="0"/>
        <pt x="2357" y="1296" on="0"/>
        <pt x="2355" y="1281" on="0"/>
        <pt x="2380" y="152" on="0"/>
        <pt x="2400" y="152" on="1"/>
        <pt x="3654" y="164" on="1"/>
        <pt x="3675" y="164" on="0"/>
        <pt x="3684" y="187" on="0"/>
        <pt x="3696" y="319" on="0"/>
        <pt x="3703" y="610" on="1"/>
        <pt x="3703" y="647" on="0"/>
        <pt x="3854" y="647" on="0"/>
        <pt x="3854" y="606" on="1"/>
        <pt x="3842" y="33" on="1"/>
        <pt x="3842" y="-25" on="0"/>
        <pt x="3760" y="-25" on="1"/>
        <pt x="2224" y="-12" on="1"/>
        <pt x="1716" y="-25" on="1"/>
        <pt x="1675" y="-25" on="0"/>
        <pt x="1659" y="4" on="0"/>
        <pt x="1659" y="101" on="0"/>
        <pt x="1684" y="123" on="0"/>
        <pt x="1733" y="123" on="1"/>
        <pt x="1991" y="123" on="1"/>
        <pt x="2007" y="123" on="0"/>
        <pt x="2007" y="418" on="1"/>
        <pt x="2007" y="1065" on="1"/>
        <pt x="2007" y="1114" on="0"/>
        <pt x="1896" y="1114" on="1"/>
        <pt x="1081" y="1114" on="1"/>
        <pt x="1060" y="1114" on="0"/>
        <pt x="520" y="157" on="0"/>
        <pt x="520" y="127" on="1"/>
        <pt x="524" y="123" on="1"/>
        <pt x="786" y="123" on="1"/>
        <pt x="822" y="123" on="0"/>
        <pt x="844" y="95" on="0"/>
        <pt x="844" y="9" on="0"/>
        <pt x="822" y="-25" on="0"/>
        <pt x="786" y="-25" on="1"/>
      </contour>
      <contour>
        <pt x="2007" y="1847" on="1"/>
        <pt x="2007" y="2593" on="0"/>
        <pt x="1974" y="2593" on="1"/>
        <pt x="1958" y="2593" on="1"/>
        <pt x="1945" y="2593" on="0"/>
        <pt x="1925" y="2560" on="1"/>
        <pt x="1180" y="1307" on="1"/>
        <pt x="1155" y="1265" on="0"/>
        <pt x="1155" y="1237" on="0"/>
        <pt x="1208" y="1237" on="1"/>
        <pt x="1577" y="1237" on="0"/>
        <pt x="1946" y="1237" on="1"/>
        <pt x="2007" y="1237" on="0"/>
        <pt x="2007" y="1278" on="1"/>
      </contour>
    </TTGlyph>
    <TTGlyph name="AE.c2" xMin="8" yMin="-20" xMax="2720" yMax="1782">
      <component glyphName="ae.sc" x="0" y="0" flags="0x1004"/>
    </TTGlyph>
    <TTGlyph name="Aacute" xMin="111" yMin="-25" xMax="2789" yMax="3482">
      <component glyphName="acutecomb.cap" x="2339" y="1147" flags="0x1004"/>
      <component glyphName="A" x="0" y="0" flags="0x1004"/>
    </TTGlyph>
    <TTGlyph name="Aacute.c2" xMin="70" yMin="-20" xMax="1921" yMax="2519">
      <component glyphName="aacute.sc" x="0" y="0" flags="0x1004"/>
    </TTGlyph>
    <TTGlyph name="Abreve" xMin="111" yMin="-25" xMax="2789" yMax="3445">
      <component glyphName="uni0306.cap" x="2339" y="1147" flags="0x1004"/>
      <component glyphName="A" x="0" y="0" flags="0x1004"/>
    </TTGlyph>
    <TTGlyph name="Abreve.c2" xMin="70" yMin="-20" xMax="1921" yMax="2413">
      <component glyphName="abreve.sc" x="0" y="0" flags="0x1004"/>
    </TTGlyph>
    <TTGlyph name="Acircumflex" xMin="111" yMin="-25" xMax="2789" yMax="3449">
      <component glyphName="uni0302.cap" x="2339" y="1147" flags="0x1004"/>
      <component glyphName="A" x="0" y="0" flags="0x1004"/>
    </TTGlyph>
    <TTGlyph name="Acircumflex.c2" xMin="70" yMin="-20" xMax="1921" yMax="2466">
      <component glyphName="acircumflex.sc" x="0" y="0" flags="0x1004"/>
    </TTGlyph>
    <TTGlyph name="Adieresis" xMin="111" yMin="-25" xMax="2789" yMax="3445">
      <component glyphName="uni0308.cap" x="2339" y="1147" flags="0x1004"/>
      <component glyphName="A" x="0" y="0" flags="0x1004"/>
    </TTGlyph>
    <TTGlyph name="Adieresis.c2" xMin="70" yMin="-20" xMax="1921" yMax="2421">
      <component glyphName="adieresis.sc" x="0" y="0" flags="0x1004"/>
    </TTGlyph>
    <TTGlyph name="Agrave" xMin="111" yMin="-25" xMax="2789" yMax="3482">
      <component glyphName="gravecomb.cap" x="2339" y="1147" flags="0x1004"/>
      <component glyphName="A" x="0" y="0" flags="0x1004"/>
    </TTGlyph>
    <TTGlyph name="Agrave.c2" xMin="70" yMin="-20" xMax="1921" yMax="2519">
      <component glyphName="agrave.sc" x="0" y="0" flags="0x1004"/>
    </TTGlyph>
    <TTGlyph name="Amacron" xMin="111" yMin="-25" xMax="2789" yMax="3367">
      <component glyphName="uni0304.cap" x="2339" y="1147" flags="0x1004"/>
      <component glyphName="A" x="0" y="0" flags="0x1004"/>
    </TTGlyph>
    <TTGlyph name="Amacron.c2" xMin="70" yMin="-20" xMax="1921" yMax="2261">
      <component glyphName="amacron.sc" x="0" y="0" flags="0x1004"/>
    </TTGlyph>
    <TTGlyph name="Aogonek" xMin="111" yMin="-1188" xMax="2789" yMax="2826">
      <contour>
        <pt x="479" y="-12" on="1"/>
        <pt x="168" y="-25" on="1"/>
        <pt x="127" y="-25" on="0"/>
        <pt x="111" y="4" on="0"/>
        <pt x="111" y="104" on="0"/>
        <pt x="134" y="123" on="0"/>
        <pt x="184" y="123" on="1"/>
        <pt x="307" y="123" on="1"/>
        <pt x="344" y="123" on="0"/>
        <pt x="850" y="1358" on="1"/>
        <pt x="893" y="1461" on="0"/>
        <pt x="897" y="1470" on="1"/>
        <pt x="1331" y="2478" on="1"/>
        <pt x="1347" y="2520" on="0"/>
        <pt x="1456" y="2653" on="0"/>
        <pt x="1487" y="2721" on="1"/>
        <pt x="1534" y="2824" on="0"/>
        <pt x="1569" y="2826" on="1"/>
        <pt x="1611" y="2826" on="0"/>
        <pt x="1618" y="2789" on="1"/>
        <pt x="2109" y="1409" on="1"/>
        <pt x="2573" y="123" on="0"/>
        <pt x="2601" y="123" on="1"/>
        <pt x="2744" y="123" on="1"/>
        <pt x="2773" y="123" on="0"/>
        <pt x="2789" y="96" on="0"/>
        <pt x="2789" y="8" on="0"/>
        <pt x="2773" y="-25" on="0"/>
        <pt x="2744" y="-25" on="1"/>
        <pt x="2380" y="-12" on="1"/>
        <pt x="2372" y="-12" on="0"/>
        <pt x="2359" y="-14" on="0"/>
        <pt x="2352" y="-15" on="0"/>
        <pt x="2342" y="-22" on="0"/>
        <pt x="2341" y="-23" on="1"/>
        <pt x="2194" y="-170" on="0"/>
        <pt x="1999" y="-520" on="0"/>
        <pt x="1999" y="-813" on="0"/>
        <pt x="2158" y="-999" on="0"/>
        <pt x="2306" y="-999" on="0"/>
        <pt x="2413" y="-962" on="0"/>
        <pt x="2487" y="-909" on="0"/>
        <pt x="2516" y="-882" on="1"/>
        <pt x="2587" y="-819" on="0"/>
        <pt x="2611" y="-819" on="0"/>
        <pt x="2654" y="-874" on="0"/>
        <pt x="2654" y="-893" on="0"/>
        <pt x="2605" y="-956" on="0"/>
        <pt x="2506" y="-1045" on="0"/>
        <pt x="2442" y="-1087" on="1"/>
        <pt x="2290" y="-1188" on="0"/>
        <pt x="2105" y="-1188" on="1"/>
        <pt x="2016" y="-1188" on="0"/>
        <pt x="1833" y="-1077" on="0"/>
        <pt x="1712" y="-892" on="0"/>
        <pt x="1712" y="-692" on="0"/>
        <pt x="1771" y="-511" on="0"/>
        <pt x="1849" y="-410" on="1"/>
        <pt x="1983" y="-238" on="0"/>
        <pt x="2172" y="-64" on="1"/>
        <pt x="2219" y="-21" on="0"/>
        <pt x="2212" y="-18" on="1"/>
        <pt x="2207" y="-16" on="0"/>
        <pt x="1933" y="-25" on="0"/>
        <pt x="1856" y="-25" on="0"/>
        <pt x="1839" y="6" on="0"/>
        <pt x="1839" y="104" on="0"/>
        <pt x="1860" y="123" on="0"/>
        <pt x="1909" y="123" on="1"/>
        <pt x="2134" y="123" on="1"/>
        <pt x="2138" y="123" on="0"/>
        <pt x="2138" y="181" on="0"/>
        <pt x="1933" y="817" on="0"/>
        <pt x="1836" y="1095" on="0"/>
        <pt x="1820" y="1114" on="0"/>
        <pt x="1790" y="1114" on="1"/>
        <pt x="963" y="1114" on="1"/>
        <pt x="920" y="1114" on="0"/>
        <pt x="893" y="1092" on="0"/>
        <pt x="877" y="1049" on="1"/>
        <pt x="549" y="220" on="0"/>
        <pt x="545" y="127" on="1"/>
        <pt x="549" y="123" on="1"/>
        <pt x="864" y="123" on="1"/>
        <pt x="898" y="123" on="0"/>
        <pt x="913" y="98" on="0"/>
        <pt x="913" y="34" on="0"/>
        <pt x="912" y="15" on="0"/>
        <pt x="908" y="-10" on="0"/>
        <pt x="902" y="-14" on="1"/>
        <pt x="890" y="-25" on="0"/>
        <pt x="864" y="-25" on="1"/>
      </contour>
      <contour>
        <pt x="1745" y="1237" on="1"/>
        <pt x="1782" y="1237" on="0"/>
        <pt x="1782" y="1262" on="0"/>
        <pt x="1769" y="1294" on="1"/>
        <pt x="1430" y="2290" on="1"/>
        <pt x="1416" y="2339" on="0"/>
        <pt x="1398" y="2339" on="0"/>
        <pt x="1380" y="2290" on="1"/>
        <pt x="979" y="1307" on="1"/>
        <pt x="958" y="1256" on="0"/>
        <pt x="958" y="1237" on="0"/>
        <pt x="1012" y="1237" on="1"/>
      </contour>
    </TTGlyph>
    <TTGlyph name="Aogonek.c2" xMin="70" yMin="-1188" xMax="1921" yMax="1769">
      <component glyphName="aogonek.sc" x="0" y="0" flags="0x1004"/>
    </TTGlyph>
    <TTGlyph name="Aring" xMin="111" yMin="-25" xMax="2789" yMax="3518">
      <component glyphName="uni030A.cap" x="2339" y="1147" flags="0x1004"/>
      <component glyphName="A" x="0" y="0" flags="0x1004"/>
    </TTGlyph>
    <TTGlyph name="Aring.c2" xMin="70" yMin="-20" xMax="1921" yMax="2494">
      <component glyphName="aring.sc" x="0" y="0" flags="0x1004"/>
    </TTGlyph>
    <TTGlyph name="Atilde" xMin="111" yMin="-25" xMax="2789" yMax="3424">
      <component glyphName="tildecomb.cap" x="2339" y="1147" flags="0x1004"/>
      <component glyphName="A" x="0" y="0" flags="0x1004"/>
    </TTGlyph>
    <TTGlyph name="Atilde.c2" xMin="70" yMin="-20" xMax="1921" yMax="2400">
      <component glyphName="atilde.sc" x="0" y="0" flags="0x1004"/>
    </TTGlyph>
    <TTGlyph name="B" xMin="152" yMin="-25" xMax="2253" yMax="2736">
      <contour>
        <pt x="700" y="-12" on="1"/>
        <pt x="262" y="-25" on="1"/>
        <pt x="220" y="-25" on="0"/>
        <pt x="197" y="7" on="0"/>
        <pt x="197" y="102" on="0"/>
        <pt x="230" y="123" on="0"/>
        <pt x="283" y="123" on="1"/>
        <pt x="496" y="123" on="1"/>
        <pt x="508" y="123" on="0"/>
        <pt x="508" y="283" on="1"/>
        <pt x="508" y="1606" on="1"/>
        <pt x="508" y="1958" on="0"/>
        <pt x="487" y="2585" on="0"/>
        <pt x="475" y="2585" on="1"/>
        <pt x="225" y="2576" on="1"/>
        <pt x="185" y="2576" on="0"/>
        <pt x="152" y="2608" on="0"/>
        <pt x="152" y="2707" on="0"/>
        <pt x="181" y="2732" on="0"/>
        <pt x="225" y="2732" on="1"/>
        <pt x="709" y="2724" on="1"/>
        <pt x="1212" y="2736" on="1"/>
        <pt x="1768" y="2736" on="0"/>
        <pt x="2004" y="2464" on="1"/>
        <pt x="2134" y="2315" on="0"/>
        <pt x="2134" y="2064" on="1"/>
        <pt x="2134" y="1644" on="0"/>
        <pt x="1524" y="1417" on="1"/>
        <pt x="1491" y="1404" on="0"/>
        <pt x="1491" y="1398" on="0"/>
        <pt x="1577" y="1385" on="0"/>
        <pt x="1673" y="1366" on="0"/>
        <pt x="1831" y="1317" on="0"/>
        <pt x="1957" y="1254" on="0"/>
        <pt x="2097" y="1144" on="0"/>
        <pt x="2144" y="1076" on="1"/>
        <pt x="2253" y="920" on="0"/>
        <pt x="2253" y="692" on="1"/>
        <pt x="2253" y="-20" on="0"/>
        <pt x="1094" y="-20" on="1"/>
      </contour>
      <contour>
        <pt x="901" y="1323" on="1"/>
        <pt x="868" y="1323" on="0"/>
        <pt x="868" y="1290" on="1"/>
        <pt x="868" y="123" on="0"/>
        <pt x="897" y="123" on="1"/>
        <pt x="1143" y="123" on="1"/>
        <pt x="1868" y="123" on="0"/>
        <pt x="1868" y="721" on="1"/>
        <pt x="1868" y="943" on="0"/>
        <pt x="1705" y="1219" on="0"/>
        <pt x="1397" y="1323" on="0"/>
        <pt x="1040" y="1323" on="1"/>
      </contour>
      <contour>
        <pt x="1155" y="1438" on="1"/>
        <pt x="1290" y="1434" on="1"/>
        <pt x="1435" y="1434" on="0"/>
        <pt x="1587" y="1569" on="1"/>
        <pt x="1765" y="1727" on="0"/>
        <pt x="1765" y="1999" on="1"/>
        <pt x="1765" y="2193" on="0"/>
        <pt x="1673" y="2336" on="1"/>
        <pt x="1487" y="2626" on="0"/>
        <pt x="1053" y="2626" on="1"/>
        <pt x="919" y="2626" on="0"/>
        <pt x="885" y="2609" on="1"/>
        <pt x="868" y="2598" on="0"/>
        <pt x="868" y="1663" on="1"/>
        <pt x="868" y="1466" on="1"/>
        <pt x="868" y="1447" on="0"/>
        <pt x="883" y="1438" on="0"/>
        <pt x="922" y="1438" on="1"/>
      </contour>
    </TTGlyph>
    <TTGlyph name="B.c2" xMin="90" yMin="-20" xMax="1745" yMax="1663">
      <component glyphName="b.sc" x="0" y="0" flags="0x1004"/>
    </TTGlyph>
    <TTGlyph name="C" xMin="172" yMin="-78" xMax="2740" yMax="2798">
      <contour>
        <pt x="2634" y="909" on="1"/>
        <pt x="2679" y="905" on="1"/>
        <pt x="2740" y="900" on="0"/>
        <pt x="2740" y="860" on="1"/>
        <pt x="2740" y="800" on="0"/>
        <pt x="2675" y="295" on="1"/>
        <pt x="2670" y="260" on="0"/>
        <pt x="2483" y="137" on="0"/>
        <pt x="2342" y="75" on="1"/>
        <pt x="1992" y="-78" on="0"/>
        <pt x="1622" y="-78" on="1"/>
        <pt x="1238" y="-78" on="0"/>
        <pt x="910" y="76" on="1"/>
        <pt x="582" y="231" on="0"/>
        <pt x="380" y="553" on="1"/>
        <pt x="172" y="884" on="0"/>
        <pt x="172" y="1372" on="1"/>
        <pt x="172" y="2137" on="0"/>
        <pt x="768" y="2544" on="1"/>
        <pt x="1139" y="2798" on="0"/>
        <pt x="1647" y="2798" on="1"/>
        <pt x="2089" y="2798" on="0"/>
        <pt x="2463" y="2528" on="1"/>
        <pt x="2501" y="2500" on="0"/>
        <pt x="2522" y="2484" on="0"/>
        <pt x="2543" y="2475" on="0"/>
        <pt x="2552" y="2486" on="0"/>
        <pt x="2552" y="2503" on="1"/>
        <pt x="2552" y="2613" on="1"/>
        <pt x="2552" y="2652" on="0"/>
        <pt x="2579" y="2679" on="0"/>
        <pt x="2676" y="2679" on="0"/>
        <pt x="2720" y="2653" on="0"/>
        <pt x="2720" y="2613" on="1"/>
        <pt x="2703" y="1802" on="1"/>
        <pt x="2703" y="1764" on="0"/>
        <pt x="2672" y="1745" on="0"/>
        <pt x="2569" y="1745" on="0"/>
        <pt x="2535" y="1766" on="0"/>
        <pt x="2535" y="1798" on="1"/>
        <pt x="2552" y="2175" on="1"/>
        <pt x="2552" y="2221" on="0"/>
        <pt x="2291" y="2431" on="0"/>
        <pt x="2182" y="2496" on="1"/>
        <pt x="1921" y="2650" on="0"/>
        <pt x="1618" y="2650" on="1"/>
        <pt x="1093" y="2650" on="0"/>
        <pt x="799" y="2136" on="1"/>
        <pt x="614" y="1812" on="0"/>
        <pt x="614" y="1364" on="1"/>
        <pt x="614" y="1110" on="0"/>
        <pt x="791" y="646" on="0"/>
        <pt x="1091" y="307" on="0"/>
        <pt x="1508" y="106" on="0"/>
        <pt x="1866" y="106" on="0"/>
        <pt x="2121" y="154" on="0"/>
        <pt x="2303" y="224" on="0"/>
        <pt x="2376" y="262" on="1"/>
        <pt x="2520" y="339" on="0"/>
        <pt x="2523" y="373" on="1"/>
        <pt x="2576" y="848" on="1"/>
        <pt x="2586" y="909" on="0"/>
      </contour>
    </TTGlyph>
    <TTGlyph name="C.c2" xMin="111" yMin="-74" xMax="1843" yMax="1704">
      <component glyphName="c.sc" x="0" y="0" flags="0x1004"/>
    </TTGlyph>
    <TTGlyph name="Cacute" xMin="172" yMin="-78" xMax="2740" yMax="3482">
      <component glyphName="acutecomb.cap" x="2437" y="1147" flags="0x1004"/>
      <component glyphName="C" x="0" y="0" flags="0x1004"/>
    </TTGlyph>
    <TTGlyph name="Cacute.c2" xMin="111" yMin="-74" xMax="1843" yMax="2519">
      <component glyphName="cacute.sc" x="0" y="0" flags="0x1004"/>
    </TTGlyph>
    <TTGlyph name="Ccaron" xMin="172" yMin="-78" xMax="2740" yMax="3449">
      <component glyphName="uni030C.cap" x="2437" y="1147" flags="0x1004"/>
      <component glyphName="C" x="0" y="0" flags="0x1004"/>
    </TTGlyph>
    <TTGlyph name="Ccaron.c2" xMin="111" yMin="-74" xMax="1843" yMax="2466">
      <component glyphName="ccaron.sc" x="0" y="0" flags="0x1004"/>
    </TTGlyph>
    <TTGlyph name="Ccedilla" xMin="172" yMin="-946" xMax="2740" yMax="2798">
      <contour>
        <pt x="2634" y="909" on="1"/>
        <pt x="2679" y="905" on="1"/>
        <pt x="2740" y="900" on="0"/>
        <pt x="2740" y="860" on="1"/>
        <pt x="2740" y="800" on="0"/>
        <pt x="2675" y="295" on="1"/>
        <pt x="2670" y="260" on="0"/>
        <pt x="2487" y="139" on="0"/>
        <pt x="2348" y="78" on="1"/>
        <pt x="2006" y="-72" on="0"/>
        <pt x="1642" y="-78" on="1"/>
        <pt x="1573" y="-270" on="1"/>
        <pt x="1570" y="-282" on="0"/>
        <pt x="1577" y="-285" on="0"/>
        <pt x="1656" y="-266" on="0"/>
        <pt x="1794" y="-266" on="0"/>
        <pt x="1935" y="-319" on="0"/>
        <pt x="1978" y="-362" on="1"/>
        <pt x="2068" y="-450" on="0"/>
        <pt x="2068" y="-627" on="0"/>
        <pt x="2006" y="-764" on="0"/>
        <pt x="1950" y="-820" on="1"/>
        <pt x="1826" y="-946" on="0"/>
        <pt x="1622" y="-946" on="1"/>
        <pt x="1509" y="-946" on="0"/>
        <pt x="1416" y="-912" on="1"/>
        <pt x="1270" y="-858" on="0"/>
        <pt x="1270" y="-803" on="1"/>
        <pt x="1270" y="-762" on="0"/>
        <pt x="1311" y="-762" on="1"/>
        <pt x="1318" y="-762" on="0"/>
        <pt x="1354" y="-777" on="1"/>
        <pt x="1462" y="-823" on="0"/>
        <pt x="1580" y="-823" on="1"/>
        <pt x="1819" y="-823" on="0"/>
        <pt x="1819" y="-606" on="1"/>
        <pt x="1819" y="-434" on="0"/>
        <pt x="1606" y="-434" on="1"/>
        <pt x="1560" y="-434" on="0"/>
        <pt x="1457" y="-471" on="0"/>
        <pt x="1444" y="-471" on="0"/>
        <pt x="1409" y="-447" on="0"/>
        <pt x="1409" y="-422" on="0"/>
        <pt x="1544" y="-78" on="1"/>
        <pt x="1177" y="-64" on="0"/>
        <pt x="864" y="96" on="1"/>
        <pt x="555" y="256" on="0"/>
        <pt x="366" y="574" on="1"/>
        <pt x="172" y="901" on="0"/>
        <pt x="172" y="1372" on="1"/>
        <pt x="172" y="2137" on="0"/>
        <pt x="768" y="2544" on="1"/>
        <pt x="1139" y="2798" on="0"/>
        <pt x="1647" y="2798" on="1"/>
        <pt x="2089" y="2798" on="0"/>
        <pt x="2463" y="2528" on="1"/>
        <pt x="2501" y="2500" on="0"/>
        <pt x="2522" y="2484" on="0"/>
        <pt x="2543" y="2475" on="0"/>
        <pt x="2552" y="2486" on="0"/>
        <pt x="2552" y="2503" on="1"/>
        <pt x="2552" y="2613" on="1"/>
        <pt x="2552" y="2652" on="0"/>
        <pt x="2579" y="2679" on="0"/>
        <pt x="2676" y="2679" on="0"/>
        <pt x="2720" y="2653" on="0"/>
        <pt x="2720" y="2613" on="1"/>
        <pt x="2703" y="1802" on="1"/>
        <pt x="2703" y="1764" on="0"/>
        <pt x="2672" y="1745" on="0"/>
        <pt x="2569" y="1745" on="0"/>
        <pt x="2535" y="1766" on="0"/>
        <pt x="2535" y="1798" on="1"/>
        <pt x="2552" y="2175" on="1"/>
        <pt x="2552" y="2221" on="0"/>
        <pt x="2291" y="2431" on="0"/>
        <pt x="2182" y="2496" on="1"/>
        <pt x="1921" y="2650" on="0"/>
        <pt x="1618" y="2650" on="1"/>
        <pt x="1093" y="2650" on="0"/>
        <pt x="799" y="2136" on="1"/>
        <pt x="614" y="1812" on="0"/>
        <pt x="614" y="1364" on="1"/>
        <pt x="614" y="1110" on="0"/>
        <pt x="791" y="646" on="0"/>
        <pt x="1091" y="307" on="0"/>
        <pt x="1508" y="106" on="0"/>
        <pt x="1866" y="106" on="0"/>
        <pt x="2121" y="154" on="0"/>
        <pt x="2303" y="224" on="0"/>
        <pt x="2376" y="262" on="1"/>
        <pt x="2520" y="339" on="0"/>
        <pt x="2523" y="373" on="1"/>
        <pt x="2576" y="848" on="1"/>
        <pt x="2586" y="909" on="0"/>
      </contour>
    </TTGlyph>
    <TTGlyph name="Ccedilla.c2" xMin="111" yMin="-946" xMax="1843" yMax="1704">
      <component glyphName="ccedilla.sc" x="0" y="0" flags="0x1004"/>
    </TTGlyph>
    <TTGlyph name="Ccircumflex" xMin="172" yMin="-78" xMax="2740" yMax="3449">
      <component glyphName="uni0302.cap" x="2437" y="1147" flags="0x1004"/>
      <component glyphName="C" x="0" y="0" flags="0x1004"/>
    </TTGlyph>
    <TTGlyph name="Ccircumflex.c2" xMin="111" yMin="-74" xMax="1843" yMax="2466">
      <component glyphName="ccircumflex.sc" x="0" y="0" flags="0x1004"/>
    </TTGlyph>
    <TTGlyph name="Cdotaccent" xMin="172" yMin="-78" xMax="2740" yMax="3445">
      <component glyphName="uni0307.cap" x="2437" y="1147" flags="0x1004"/>
      <component glyphName="C" x="0" y="0" flags="0x1004"/>
    </TTGlyph>
    <TTGlyph name="Cdotaccent.c2" xMin="111" yMin="-74" xMax="1843" yMax="2421">
      <component glyphName="cdotaccent.sc" x="0" y="0" flags="0x1004"/>
    </TTGlyph>
    <TTGlyph name="D" xMin="131" yMin="-29" xMax="2933" yMax="2789">
      <contour>
        <pt x="709" y="-12" on="1"/>
        <pt x="188" y="-29" on="1"/>
        <pt x="151" y="-29" on="0"/>
        <pt x="131" y="0" on="0"/>
        <pt x="131" y="89" on="0"/>
        <pt x="167" y="115" on="0"/>
        <pt x="213" y="115" on="1"/>
        <pt x="475" y="115" on="1"/>
        <pt x="491" y="115" on="0"/>
        <pt x="524" y="1916" on="0"/>
        <pt x="524" y="2613" on="0"/>
        <pt x="516" y="2613" on="1"/>
        <pt x="233" y="2605" on="1"/>
        <pt x="201" y="2605" on="0"/>
        <pt x="176" y="2626" on="0"/>
        <pt x="176" y="2708" on="0"/>
        <pt x="196" y="2744" on="0"/>
        <pt x="233" y="2744" on="1"/>
        <pt x="524" y="2740" on="1"/>
        <pt x="693" y="2740" on="0"/>
        <pt x="1295" y="2789" on="0"/>
        <pt x="1626" y="2789" on="0"/>
        <pt x="2103" y="2666" on="0"/>
        <pt x="2493" y="2423" on="0"/>
        <pt x="2635" y="2254" on="1"/>
        <pt x="2933" y="1898" on="0"/>
        <pt x="2933" y="1372" on="1"/>
        <pt x="2933" y="809" on="0"/>
        <pt x="2596" y="432" on="1"/>
        <pt x="2292" y="91" on="0"/>
        <pt x="1788" y="0" on="1"/>
        <pt x="1631" y="-29" on="0"/>
        <pt x="1466" y="-29" on="1"/>
      </contour>
      <contour>
        <pt x="913" y="2634" on="1"/>
        <pt x="885" y="2623" on="0"/>
        <pt x="885" y="119" on="0"/>
        <pt x="889" y="115" on="1"/>
        <pt x="920" y="102" on="0"/>
        <pt x="1396" y="102" on="0"/>
        <pt x="1845" y="216" on="0"/>
        <pt x="2128" y="382" on="0"/>
        <pt x="2333" y="644" on="0"/>
        <pt x="2432" y="860" on="0"/>
        <pt x="2459" y="1010" on="1"/>
        <pt x="2494" y="1203" on="0"/>
        <pt x="2494" y="1569" on="0"/>
        <pt x="2416" y="1865" on="0"/>
        <pt x="2273" y="2139" on="0"/>
        <pt x="2056" y="2378" on="0"/>
        <pt x="1924" y="2467" on="1"/>
        <pt x="1641" y="2658" on="0"/>
        <pt x="1274" y="2658" on="1"/>
        <pt x="1016" y="2658" on="0"/>
      </contour>
    </TTGlyph>
    <TTGlyph name="D.c2" xMin="90" yMin="-20" xMax="1905" yMax="1667">
      <component glyphName="d.sc" x="0" y="0" flags="0x1004"/>
    </TTGlyph>
    <TTGlyph name="Dcaron" xMin="131" yMin="-29" xMax="2933" yMax="3449">
      <component glyphName="uni030C.cap" x="2220" y="1147" flags="0x1004"/>
      <component glyphName="D" x="0" y="0" flags="0x1004"/>
    </TTGlyph>
    <TTGlyph name="Dcaron.c2" xMin="90" yMin="-20" xMax="1905" yMax="2466">
      <component glyphName="dcaron.sc" x="0" y="0" flags="0x1004"/>
    </TTGlyph>
    <TTGlyph name="Dcroat" xMin="131" yMin="-29" xMax="2933" yMax="2789">
      <component glyphName="Eth" x="0" y="0" flags="0x1004"/>
    </TTGlyph>
    <TTGlyph name="Dcroat.c2" xMin="90" yMin="-20" xMax="1905" yMax="1667">
      <component glyphName="dcroat.sc" x="0" y="0" flags="0x1004"/>
    </TTGlyph>
    <TTGlyph name="E" xMin="152" yMin="-25" xMax="2347" yMax="2839">
      <contour>
        <pt x="717" y="-12" on="1"/>
        <pt x="217" y="-25" on="1"/>
        <pt x="175" y="-25" on="0"/>
        <pt x="152" y="7" on="0"/>
        <pt x="152" y="100" on="0"/>
        <pt x="183" y="123" on="0"/>
        <pt x="233" y="123" on="1"/>
        <pt x="483" y="123" on="1"/>
        <pt x="500" y="123" on="0"/>
        <pt x="500" y="418" on="1"/>
        <pt x="500" y="811" on="1"/>
        <pt x="483" y="2015" on="1"/>
        <pt x="483" y="2296" on="0"/>
        <pt x="454" y="2593" on="0"/>
        <pt x="446" y="2593" on="1"/>
        <pt x="254" y="2593" on="1"/>
        <pt x="213" y="2593" on="0"/>
        <pt x="184" y="2617" on="0"/>
        <pt x="184" y="2736" on="0"/>
        <pt x="238" y="2736" on="1"/>
        <pt x="418" y="2730" on="1"/>
        <pt x="598" y="2724" on="0"/>
        <pt x="684" y="2724" on="1"/>
        <pt x="1716" y="2736" on="1"/>
        <pt x="1924" y="2736" on="0"/>
        <pt x="1944" y="2742" on="1"/>
        <pt x="1965" y="2748" on="0"/>
        <pt x="1965" y="2769" on="1"/>
        <pt x="1966" y="2774" on="0"/>
        <pt x="1970" y="2799" on="0"/>
        <pt x="1974" y="2814" on="0"/>
        <pt x="1980" y="2824" on="1"/>
        <pt x="1990" y="2839" on="0"/>
        <pt x="2079" y="2839" on="0"/>
        <pt x="2114" y="2818" on="0"/>
        <pt x="2114" y="2781" on="1"/>
        <pt x="2097" y="2241" on="1"/>
        <pt x="2097" y="2212" on="0"/>
        <pt x="2065" y="2195" on="0"/>
        <pt x="2019" y="2195" on="1"/>
        <pt x="1946" y="2195" on="0"/>
        <pt x="1946" y="2257" on="1"/>
        <pt x="1958" y="2572" on="1"/>
        <pt x="1958" y="2583" on="0"/>
        <pt x="1176" y="2601" on="0"/>
        <pt x="864" y="2601" on="1"/>
        <pt x="840" y="2601" on="0"/>
        <pt x="840" y="1917" on="0"/>
        <pt x="848" y="1469" on="0"/>
        <pt x="859" y="1454" on="0"/>
        <pt x="885" y="1454" on="1"/>
        <pt x="1569" y="1454" on="1"/>
        <pt x="1782" y="1454" on="0"/>
        <pt x="1782" y="1507" on="1"/>
        <pt x="1782" y="1720" on="1"/>
        <pt x="1782" y="1761" on="0"/>
        <pt x="1933" y="1761" on="0"/>
        <pt x="1933" y="1724" on="1"/>
        <pt x="1925" y="1397" on="1"/>
        <pt x="1933" y="1049" on="1"/>
        <pt x="1933" y="1012" on="0"/>
        <pt x="1782" y="1012" on="0"/>
        <pt x="1782" y="1053" on="1"/>
        <pt x="1782" y="1257" on="1"/>
        <pt x="1782" y="1319" on="0"/>
        <pt x="1569" y="1319" on="1"/>
        <pt x="1222" y="1319" on="0"/>
        <pt x="872" y="1319" on="0"/>
        <pt x="861" y="1318" on="0"/>
        <pt x="857" y="1314" on="0"/>
        <pt x="851" y="1307" on="0"/>
        <pt x="850" y="1296" on="0"/>
        <pt x="848" y="1281" on="0"/>
        <pt x="873" y="152" on="0"/>
        <pt x="893" y="152" on="1"/>
        <pt x="2146" y="164" on="1"/>
        <pt x="2167" y="164" on="0"/>
        <pt x="2177" y="188" on="0"/>
        <pt x="2187" y="300" on="0"/>
        <pt x="2195" y="610" on="1"/>
        <pt x="2195" y="647" on="0"/>
        <pt x="2347" y="647" on="0"/>
        <pt x="2347" y="606" on="1"/>
        <pt x="2335" y="33" on="1"/>
        <pt x="2335" y="-25" on="0"/>
        <pt x="2253" y="-25" on="1"/>
      </contour>
    </TTGlyph>
    <TTGlyph name="E.c2" xMin="90" yMin="-20" xMax="1786" yMax="1782">
      <component glyphName="e.sc" x="0" y="0" flags="0x1004"/>
    </TTGlyph>
    <TTGlyph name="Eacute" xMin="152" yMin="-25" xMax="2347" yMax="3482">
      <component glyphName="acutecomb.cap" x="2114" y="1147" flags="0x1004"/>
      <component glyphName="E" x="0" y="0" flags="0x1004"/>
    </TTGlyph>
    <TTGlyph name="Eacute.c2" xMin="90" yMin="-20" xMax="1786" yMax="2519">
      <component glyphName="eacute.sc" x="0" y="0" flags="0x1004"/>
    </TTGlyph>
    <TTGlyph name="Ebreve" xMin="152" yMin="-25" xMax="2347" yMax="3445">
      <component glyphName="uni0306.cap" x="2114" y="1147" flags="0x1004"/>
      <component glyphName="E" x="0" y="0" flags="0x1004"/>
    </TTGlyph>
    <TTGlyph name="Ebreve.c2" xMin="90" yMin="-20" xMax="1786" yMax="2413">
      <component glyphName="ebreve.sc" x="0" y="0" flags="0x1004"/>
    </TTGlyph>
    <TTGlyph name="Ecaron" xMin="152" yMin="-25" xMax="2347" yMax="3449">
      <component glyphName="uni030C.cap" x="2114" y="1147" flags="0x1004"/>
      <component glyphName="E" x="0" y="0" flags="0x1004"/>
    </TTGlyph>
    <TTGlyph name="Ecaron.c2" xMin="90" yMin="-20" xMax="1786" yMax="2466">
      <component glyphName="ecaron.sc" x="0" y="0" flags="0x1004"/>
    </TTGlyph>
    <TTGlyph name="Ecircumflex" xMin="152" yMin="-25" xMax="2347" yMax="3449">
      <component glyphName="uni0302.cap" x="2114" y="1147" flags="0x1004"/>
      <component glyphName="E" x="0" y="0" flags="0x1004"/>
    </TTGlyph>
    <TTGlyph name="Ecircumflex.c2" xMin="90" yMin="-20" xMax="1786" yMax="2466">
      <component glyphName="ecircumflex.sc" x="0" y="0" flags="0x1004"/>
    </TTGlyph>
    <TTGlyph name="Edieresis" xMin="152" yMin="-25" xMax="2347" yMax="3445">
      <component glyphName="uni0308.cap" x="2114" y="1147" flags="0x1004"/>
      <component glyphName="E" x="0" y="0" flags="0x1004"/>
    </TTGlyph>
    <TTGlyph name="Edieresis.c2" xMin="90" yMin="-20" xMax="1786" yMax="2421">
      <component glyphName="edieresis.sc" x="0" y="0" flags="0x1004"/>
    </TTGlyph>
    <TTGlyph name="Edotaccent" xMin="152" yMin="-25" xMax="2347" yMax="3445">
      <component glyphName="uni0307.cap" x="2114" y="1147" flags="0x1004"/>
      <component glyphName="E" x="0" y="0" flags="0x1004"/>
    </TTGlyph>
    <TTGlyph name="Edotaccent.c2" xMin="90" yMin="-20" xMax="1786" yMax="2421">
      <component glyphName="edotaccent.sc" x="0" y="0" flags="0x1004"/>
    </TTGlyph>
    <TTGlyph name="Egrave" xMin="152" yMin="-25" xMax="2347" yMax="3482">
      <component glyphName="gravecomb.cap" x="2114" y="1147" flags="0x1004"/>
      <component glyphName="E" x="0" y="0" flags="0x1004"/>
    </TTGlyph>
    <TTGlyph name="Egrave.c2" xMin="90" yMin="-20" xMax="1786" yMax="2519">
      <component glyphName="egrave.sc" x="0" y="0" flags="0x1004"/>
    </TTGlyph>
    <TTGlyph name="Emacron" xMin="152" yMin="-25" xMax="2347" yMax="3367">
      <component glyphName="uni0304.cap" x="2114" y="1147" flags="0x1004"/>
      <component glyphName="E" x="0" y="0" flags="0x1004"/>
    </TTGlyph>
    <TTGlyph name="Emacron.c2" xMin="90" yMin="-20" xMax="1786" yMax="2261">
      <component glyphName="emacron.sc" x="0" y="0" flags="0x1004"/>
    </TTGlyph>
    <TTGlyph name="Eng" xMin="152" yMin="-1139" xMax="3183" yMax="2753">
      <contour>
        <pt x="557" y="-12" on="1"/>
        <pt x="213" y="-25" on="1"/>
        <pt x="172" y="-25" on="0"/>
        <pt x="152" y="6" on="0"/>
        <pt x="152" y="103" on="0"/>
        <pt x="178" y="123" on="0"/>
        <pt x="229" y="123" on="1"/>
        <pt x="418" y="123" on="1"/>
        <pt x="445" y="123" on="0"/>
        <pt x="454" y="480" on="0"/>
        <pt x="461" y="718" on="1"/>
        <pt x="487" y="1602" on="0"/>
        <pt x="487" y="2605" on="1"/>
        <pt x="221" y="2605" on="1"/>
        <pt x="186" y="2605" on="0"/>
        <pt x="164" y="2633" on="0"/>
        <pt x="164" y="2719" on="0"/>
        <pt x="186" y="2753" on="0"/>
        <pt x="221" y="2753" on="1"/>
        <pt x="221" y="2753" on="0"/>
        <pt x="672" y="2740" on="1"/>
        <pt x="905" y="2753" on="1"/>
        <pt x="923" y="2753" on="0"/>
        <pt x="939" y="2748" on="0"/>
        <pt x="947" y="2746" on="0"/>
        <pt x="957" y="2738" on="0"/>
        <pt x="963" y="2734" on="0"/>
        <pt x="974" y="2722" on="0"/>
        <pt x="978" y="2716" on="0"/>
        <pt x="992" y="2699" on="0"/>
        <pt x="995" y="2695" on="1"/>
        <pt x="2658" y="651" on="1"/>
        <pt x="2706" y="591" on="0"/>
        <pt x="2716" y="601" on="1"/>
        <pt x="2728" y="613" on="0"/>
        <pt x="2728" y="676" on="1"/>
        <pt x="2728" y="848" on="1"/>
        <pt x="2720" y="2388" on="1"/>
        <pt x="2720" y="2605" on="0"/>
        <pt x="2716" y="2605" on="1"/>
        <pt x="2335" y="2605" on="1"/>
        <pt x="2301" y="2605" on="0"/>
        <pt x="2286" y="2630" on="0"/>
        <pt x="2286" y="2694" on="0"/>
        <pt x="2287" y="2713" on="0"/>
        <pt x="2291" y="2738" on="0"/>
        <pt x="2296" y="2742" on="1"/>
        <pt x="2309" y="2753" on="0"/>
        <pt x="2335" y="2753" on="1"/>
        <pt x="2777" y="2740" on="1"/>
        <pt x="3125" y="2753" on="1"/>
        <pt x="3166" y="2753" on="0"/>
        <pt x="3183" y="2722" on="0"/>
        <pt x="3183" y="2625" on="0"/>
        <pt x="3153" y="2605" on="0"/>
        <pt x="3101" y="2605" on="1"/>
        <pt x="2916" y="2605" on="1"/>
        <pt x="2900" y="2605" on="0"/>
        <pt x="2900" y="2376" on="1"/>
        <pt x="2851" y="111" on="1"/>
        <pt x="2851" y="-447" on="0"/>
        <pt x="2744" y="-694" on="1"/>
        <pt x="2698" y="-800" on="0"/>
        <pt x="2568" y="-966" on="0"/>
        <pt x="2202" y="-1139" on="0"/>
        <pt x="2134" y="-1139" on="1"/>
        <pt x="2019" y="-1139" on="0"/>
        <pt x="2019" y="-1044" on="1"/>
        <pt x="2019" y="-976" on="0"/>
        <pt x="2146" y="-815" on="0"/>
        <pt x="2191" y="-815" on="1"/>
        <pt x="2425" y="-831" on="1"/>
        <pt x="2499" y="-831" on="0"/>
        <pt x="2568" y="-761" on="0"/>
        <pt x="2568" y="-666" on="0"/>
        <pt x="2564" y="-574" on="1"/>
        <pt x="2553" y="-263" on="0"/>
        <pt x="2541" y="153" on="0"/>
        <pt x="2521" y="217" on="0"/>
        <pt x="2490" y="254" on="1"/>
        <pt x="696" y="2433" on="0"/>
        <pt x="654" y="2482" on="0"/>
        <pt x="646" y="2478" on="1"/>
        <pt x="635" y="2471" on="0"/>
        <pt x="635" y="1933" on="1"/>
        <pt x="631" y="528" on="1"/>
        <pt x="631" y="123" on="0"/>
        <pt x="647" y="123" on="1"/>
        <pt x="999" y="123" on="1"/>
        <pt x="1033" y="123" on="0"/>
        <pt x="1049" y="98" on="0"/>
        <pt x="1049" y="21" on="0"/>
        <pt x="1047" y="7" on="1"/>
        <pt x="1042" y="-25" on="0"/>
        <pt x="999" y="-25" on="1"/>
      </contour>
    </TTGlyph>
    <TTGlyph name="Eogonek" xMin="152" yMin="-1188" xMax="2347" yMax="2839">
      <contour>
        <pt x="717" y="-12" on="1"/>
        <pt x="217" y="-25" on="1"/>
        <pt x="175" y="-25" on="0"/>
        <pt x="152" y="7" on="0"/>
        <pt x="152" y="100" on="0"/>
        <pt x="183" y="123" on="0"/>
        <pt x="233" y="123" on="1"/>
        <pt x="483" y="123" on="1"/>
        <pt x="500" y="123" on="0"/>
        <pt x="500" y="418" on="1"/>
        <pt x="500" y="811" on="1"/>
        <pt x="483" y="2015" on="1"/>
        <pt x="483" y="2296" on="0"/>
        <pt x="454" y="2593" on="0"/>
        <pt x="446" y="2593" on="1"/>
        <pt x="254" y="2593" on="1"/>
        <pt x="213" y="2593" on="0"/>
        <pt x="184" y="2617" on="0"/>
        <pt x="184" y="2736" on="0"/>
        <pt x="238" y="2736" on="1"/>
        <pt x="418" y="2730" on="1"/>
        <pt x="598" y="2724" on="0"/>
        <pt x="684" y="2724" on="1"/>
        <pt x="1716" y="2736" on="1"/>
        <pt x="1924" y="2736" on="0"/>
        <pt x="1944" y="2742" on="1"/>
        <pt x="1965" y="2748" on="0"/>
        <pt x="1965" y="2769" on="1"/>
        <pt x="1966" y="2774" on="0"/>
        <pt x="1970" y="2799" on="0"/>
        <pt x="1974" y="2814" on="0"/>
        <pt x="1980" y="2824" on="1"/>
        <pt x="1990" y="2839" on="0"/>
        <pt x="2079" y="2839" on="0"/>
        <pt x="2114" y="2818" on="0"/>
        <pt x="2114" y="2781" on="1"/>
        <pt x="2097" y="2241" on="1"/>
        <pt x="2097" y="2212" on="0"/>
        <pt x="2065" y="2195" on="0"/>
        <pt x="2019" y="2195" on="1"/>
        <pt x="1946" y="2195" on="0"/>
        <pt x="1946" y="2257" on="1"/>
        <pt x="1958" y="2572" on="1"/>
        <pt x="1958" y="2583" on="0"/>
        <pt x="1176" y="2601" on="0"/>
        <pt x="864" y="2601" on="1"/>
        <pt x="840" y="2601" on="0"/>
        <pt x="840" y="1917" on="0"/>
        <pt x="848" y="1469" on="0"/>
        <pt x="859" y="1454" on="0"/>
        <pt x="885" y="1454" on="1"/>
        <pt x="1569" y="1454" on="1"/>
        <pt x="1782" y="1454" on="0"/>
        <pt x="1782" y="1507" on="1"/>
        <pt x="1782" y="1720" on="1"/>
        <pt x="1782" y="1761" on="0"/>
        <pt x="1933" y="1761" on="0"/>
        <pt x="1933" y="1724" on="1"/>
        <pt x="1925" y="1397" on="1"/>
        <pt x="1933" y="1049" on="1"/>
        <pt x="1933" y="1012" on="0"/>
        <pt x="1782" y="1012" on="0"/>
        <pt x="1782" y="1053" on="1"/>
        <pt x="1782" y="1257" on="1"/>
        <pt x="1782" y="1319" on="0"/>
        <pt x="1569" y="1319" on="1"/>
        <pt x="1222" y="1319" on="0"/>
        <pt x="872" y="1319" on="0"/>
        <pt x="861" y="1318" on="0"/>
        <pt x="857" y="1314" on="0"/>
        <pt x="851" y="1307" on="0"/>
        <pt x="850" y="1296" on="0"/>
        <pt x="848" y="1281" on="0"/>
        <pt x="873" y="152" on="0"/>
        <pt x="893" y="152" on="1"/>
        <pt x="2146" y="164" on="1"/>
        <pt x="2167" y="164" on="0"/>
        <pt x="2177" y="188" on="0"/>
        <pt x="2187" y="300" on="0"/>
        <pt x="2195" y="610" on="1"/>
        <pt x="2195" y="647" on="0"/>
        <pt x="2347" y="647" on="0"/>
        <pt x="2347" y="606" on="1"/>
        <pt x="2335" y="33" on="1"/>
        <pt x="2335" y="-25" on="0"/>
        <pt x="2253" y="-25" on="1"/>
        <pt x="1970" y="-25" on="1"/>
        <pt x="1924" y="-25" on="0"/>
        <pt x="1892" y="-57" on="1"/>
        <pt x="1585" y="-387" on="0"/>
        <pt x="1585" y="-684" on="1"/>
        <pt x="1585" y="-813" on="0"/>
        <pt x="1744" y="-999" on="0"/>
        <pt x="1892" y="-999" on="0"/>
        <pt x="1999" y="-962" on="0"/>
        <pt x="2073" y="-909" on="0"/>
        <pt x="2102" y="-882" on="1"/>
        <pt x="2173" y="-819" on="0"/>
        <pt x="2197" y="-819" on="0"/>
        <pt x="2241" y="-874" on="0"/>
        <pt x="2241" y="-893" on="0"/>
        <pt x="2192" y="-956" on="0"/>
        <pt x="2093" y="-1045" on="0"/>
        <pt x="2030" y="-1087" on="1"/>
        <pt x="1877" y="-1188" on="0"/>
        <pt x="1692" y="-1188" on="1"/>
        <pt x="1603" y="-1188" on="0"/>
        <pt x="1420" y="-1077" on="0"/>
        <pt x="1298" y="-892" on="0"/>
        <pt x="1298" y="-693" on="0"/>
        <pt x="1354" y="-517" on="0"/>
        <pt x="1431" y="-418" on="1"/>
        <pt x="1534" y="-286" on="0"/>
        <pt x="1769" y="-58" on="0"/>
        <pt x="1795" y="-34" on="0"/>
        <pt x="1798" y="-25" on="0"/>
        <pt x="1792" y="-23" on="1"/>
        <pt x="1759" y="-12" on="0"/>
      </contour>
    </TTGlyph>
    <TTGlyph name="Eogonek.c2" xMin="90" yMin="-1188" xMax="1786" yMax="1782">
      <component glyphName="eogonek.sc" x="0" y="0" flags="0x1004"/>
    </TTGlyph>
    <TTGlyph name="Eth" xMin="131" yMin="-29" xMax="2933" yMax="2789">
      <contour>
        <pt x="709" y="-12" on="1"/>
        <pt x="188" y="-29" on="1"/>
        <pt x="151" y="-29" on="0"/>
        <pt x="131" y="0" on="0"/>
        <pt x="131" y="89" on="0"/>
        <pt x="167" y="115" on="0"/>
        <pt x="213" y="115" on="1"/>
        <pt x="475" y="115" on="1"/>
        <pt x="491" y="115" on="0"/>
        <pt x="516" y="1323" on="1"/>
        <pt x="516" y="1343" on="0"/>
        <pt x="483" y="1343" on="1"/>
        <pt x="172" y="1343" on="1"/>
        <pt x="152" y="1343" on="0"/>
        <pt x="152" y="1466" on="0"/>
        <pt x="172" y="1466" on="1"/>
        <pt x="487" y="1466" on="1"/>
        <pt x="508" y="1466" on="0"/>
        <pt x="512" y="1470" on="1"/>
        <pt x="524" y="1484" on="0"/>
        <pt x="524" y="2613" on="0"/>
        <pt x="516" y="2613" on="1"/>
        <pt x="233" y="2605" on="1"/>
        <pt x="201" y="2605" on="0"/>
        <pt x="176" y="2626" on="0"/>
        <pt x="176" y="2708" on="0"/>
        <pt x="196" y="2744" on="0"/>
        <pt x="233" y="2744" on="1"/>
        <pt x="524" y="2740" on="1"/>
        <pt x="693" y="2740" on="0"/>
        <pt x="1295" y="2789" on="0"/>
        <pt x="1626" y="2789" on="0"/>
        <pt x="2103" y="2666" on="0"/>
        <pt x="2493" y="2423" on="0"/>
        <pt x="2635" y="2254" on="1"/>
        <pt x="2933" y="1898" on="0"/>
        <pt x="2933" y="1372" on="1"/>
        <pt x="2933" y="809" on="0"/>
        <pt x="2596" y="432" on="1"/>
        <pt x="2292" y="91" on="0"/>
        <pt x="1788" y="0" on="1"/>
        <pt x="1631" y="-29" on="0"/>
        <pt x="1466" y="-29" on="1"/>
      </contour>
      <contour>
        <pt x="922" y="1343" on="1"/>
        <pt x="885" y="1343" on="0"/>
        <pt x="885" y="1315" on="1"/>
        <pt x="885" y="352" on="1"/>
        <pt x="885" y="119" on="0"/>
        <pt x="889" y="115" on="1"/>
        <pt x="920" y="102" on="0"/>
        <pt x="1396" y="102" on="0"/>
        <pt x="1845" y="216" on="0"/>
        <pt x="2128" y="382" on="0"/>
        <pt x="2333" y="644" on="0"/>
        <pt x="2432" y="860" on="0"/>
        <pt x="2459" y="1010" on="1"/>
        <pt x="2494" y="1203" on="0"/>
        <pt x="2494" y="1569" on="0"/>
        <pt x="2416" y="1865" on="0"/>
        <pt x="2273" y="2139" on="0"/>
        <pt x="2056" y="2378" on="0"/>
        <pt x="1924" y="2467" on="1"/>
        <pt x="1641" y="2658" on="0"/>
        <pt x="1274" y="2658" on="1"/>
        <pt x="1016" y="2658" on="0"/>
        <pt x="913" y="2634" on="1"/>
        <pt x="905" y="2631" on="0"/>
        <pt x="889" y="2194" on="0"/>
        <pt x="889" y="2048" on="1"/>
        <pt x="885" y="1495" on="1"/>
        <pt x="885" y="1473" on="0"/>
        <pt x="893" y="1466" on="0"/>
        <pt x="918" y="1466" on="1"/>
        <pt x="1774" y="1466" on="1"/>
        <pt x="1794" y="1466" on="0"/>
        <pt x="1794" y="1343" on="0"/>
        <pt x="1774" y="1343" on="1"/>
      </contour>
    </TTGlyph>
    <TTGlyph name="Eth.c2" xMin="90" yMin="-20" xMax="1905" yMax="1667">
      <component glyphName="eth.sc" x="0" y="0" flags="0x1004"/>
    </TTGlyph>
    <TTGlyph name="Euro" xMin="106" yMin="-66" xMax="2335" yMax="2150">
      <contour>
        <pt x="2249" y="193" on="1"/>
        <pt x="1925" y="-66" on="0"/>
        <pt x="1540" y="-66" on="1"/>
        <pt x="1152" y="-66" on="0"/>
        <pt x="845" y="172" on="1"/>
        <pt x="559" y="395" on="0"/>
        <pt x="463" y="766" on="1"/>
        <pt x="119" y="766" on="1"/>
        <pt x="188" y="946" on="1"/>
        <pt x="434" y="946" on="1"/>
        <pt x="426" y="986" on="0"/>
        <pt x="426" y="1111" on="0"/>
        <pt x="434" y="1143" on="1"/>
        <pt x="106" y="1143" on="1"/>
        <pt x="176" y="1319" on="1"/>
        <pt x="463" y="1319" on="1"/>
        <pt x="559" y="1691" on="0"/>
        <pt x="852" y="1914" on="1"/>
        <pt x="1162" y="2150" on="0"/>
        <pt x="1516" y="2150" on="1"/>
        <pt x="1765" y="2150" on="0"/>
        <pt x="2148" y="1998" on="0"/>
        <pt x="2335" y="1823" on="1"/>
        <pt x="2298" y="1725" on="0"/>
        <pt x="2249" y="1638" on="1"/>
        <pt x="2064" y="1881" on="0"/>
        <pt x="1752" y="1954" on="1"/>
        <pt x="1646" y="1978" on="0"/>
        <pt x="1429" y="1978" on="0"/>
        <pt x="1238" y="1946" on="0"/>
        <pt x="1024" y="1856" on="0"/>
        <pt x="936" y="1785" on="1"/>
        <pt x="737" y="1623" on="0"/>
        <pt x="647" y="1319" on="1"/>
        <pt x="2114" y="1319" on="1"/>
        <pt x="2044" y="1143" on="1"/>
        <pt x="623" y="1143" on="1"/>
        <pt x="614" y="1098" on="0"/>
        <pt x="614" y="1044" on="1"/>
        <pt x="623" y="946" on="1"/>
        <pt x="1962" y="946" on="1"/>
        <pt x="1884" y="766" on="1"/>
        <pt x="651" y="766" on="1"/>
        <pt x="836" y="291" on="0"/>
        <pt x="1276" y="151" on="1"/>
        <pt x="1402" y="111" on="0"/>
        <pt x="1643" y="111" on="0"/>
        <pt x="1858" y="160" on="0"/>
        <pt x="2000" y="223" on="0"/>
        <pt x="2072" y="273" on="1"/>
        <pt x="2164" y="337" on="0"/>
        <pt x="2249" y="422" on="1"/>
      </contour>
    </TTGlyph>
    <TTGlyph name="F" xMin="152" yMin="-25" xMax="2122" yMax="2839">
      <contour>
        <pt x="467" y="811" on="1"/>
        <pt x="451" y="2015" on="1"/>
        <pt x="451" y="2296" on="0"/>
        <pt x="422" y="2593" on="0"/>
        <pt x="414" y="2593" on="1"/>
        <pt x="233" y="2593" on="1"/>
        <pt x="167" y="2593" on="0"/>
        <pt x="152" y="2641" on="0"/>
        <pt x="152" y="2666" on="1"/>
        <pt x="152" y="2736" on="0"/>
        <pt x="205" y="2736" on="1"/>
        <pt x="385" y="2730" on="1"/>
        <pt x="565" y="2724" on="0"/>
        <pt x="651" y="2724" on="1"/>
        <pt x="1712" y="2736" on="1"/>
        <pt x="1907" y="2736" on="0"/>
        <pt x="1940" y="2740" on="1"/>
        <pt x="1974" y="2744" on="0"/>
        <pt x="1979" y="2819" on="0"/>
        <pt x="2007" y="2839" on="0"/>
        <pt x="2085" y="2839" on="0"/>
        <pt x="2122" y="2816" on="0"/>
        <pt x="2122" y="2781" on="1"/>
        <pt x="2105" y="2241" on="1"/>
        <pt x="2105" y="2212" on="0"/>
        <pt x="2073" y="2195" on="0"/>
        <pt x="2028" y="2195" on="1"/>
        <pt x="1954" y="2195" on="0"/>
        <pt x="1954" y="2257" on="1"/>
        <pt x="1966" y="2576" on="1"/>
        <pt x="1791" y="2601" on="0"/>
        <pt x="831" y="2601" on="1"/>
        <pt x="807" y="2601" on="0"/>
        <pt x="807" y="1695" on="0"/>
        <pt x="815" y="1461" on="0"/>
        <pt x="822" y="1454" on="0"/>
        <pt x="868" y="1454" on="1"/>
        <pt x="1577" y="1454" on="1"/>
        <pt x="1790" y="1454" on="0"/>
        <pt x="1790" y="1507" on="1"/>
        <pt x="1790" y="1724" on="1"/>
        <pt x="1790" y="1761" on="0"/>
        <pt x="1872" y="1761" on="1"/>
        <pt x="1928" y="1761" on="0"/>
        <pt x="1942" y="1741" on="0"/>
        <pt x="1942" y="1729" on="1"/>
        <pt x="1933" y="1397" on="1"/>
        <pt x="1942" y="1004" on="1"/>
        <pt x="1942" y="971" on="0"/>
        <pt x="1790" y="971" on="0"/>
        <pt x="1790" y="1008" on="1"/>
        <pt x="1790" y="1257" on="1"/>
        <pt x="1790" y="1305" on="0"/>
        <pt x="1651" y="1319" on="0"/>
        <pt x="1577" y="1319" on="1"/>
        <pt x="868" y="1319" on="1"/>
        <pt x="826" y="1319" on="0"/>
        <pt x="815" y="1305" on="0"/>
        <pt x="819" y="1051" on="0"/>
        <pt x="822" y="739" on="1"/>
        <pt x="829" y="123" on="0"/>
        <pt x="840" y="123" on="1"/>
        <pt x="1171" y="123" on="1"/>
        <pt x="1207" y="123" on="0"/>
        <pt x="1229" y="95" on="0"/>
        <pt x="1229" y="9" on="0"/>
        <pt x="1207" y="-25" on="0"/>
        <pt x="1171" y="-25" on="1"/>
        <pt x="680" y="-12" on="1"/>
        <pt x="250" y="-25" on="1"/>
        <pt x="209" y="-25" on="0"/>
        <pt x="188" y="6" on="0"/>
        <pt x="188" y="102" on="0"/>
        <pt x="221" y="123" on="0"/>
        <pt x="274" y="123" on="1"/>
        <pt x="446" y="123" on="1"/>
        <pt x="467" y="123" on="0"/>
        <pt x="467" y="418" on="1"/>
      </contour>
    </TTGlyph>
    <TTGlyph name="F.c2" xMin="90" yMin="-20" xMax="1688" yMax="1774">
      <component glyphName="f.sc" x="0" y="0" flags="0x1004"/>
    </TTGlyph>
    <TTGlyph name="G" xMin="172" yMin="-86" xMax="2978" yMax="2785">
      <contour>
        <pt x="2765" y="664" on="1"/>
        <pt x="2761" y="299" on="1"/>
        <pt x="2761" y="236" on="0"/>
        <pt x="2518" y="124" on="1"/>
        <pt x="2062" y="-86" on="0"/>
        <pt x="1622" y="-86" on="1"/>
        <pt x="1139" y="-86" on="0"/>
        <pt x="784" y="134" on="1"/>
        <pt x="397" y="374" on="0"/>
        <pt x="250" y="830" on="1"/>
        <pt x="172" y="1074" on="0"/>
        <pt x="172" y="1640" on="0"/>
        <pt x="324" y="2097" on="0"/>
        <pt x="597" y="2432" on="0"/>
        <pt x="784" y="2550" on="1"/>
        <pt x="1156" y="2785" on="0"/>
        <pt x="1671" y="2785" on="1"/>
        <pt x="2150" y="2785" on="0"/>
        <pt x="2503" y="2540" on="1"/>
        <pt x="2552" y="2502" on="0"/>
        <pt x="2552" y="2544" on="1"/>
        <pt x="2552" y="2646" on="1"/>
        <pt x="2552" y="2685" on="0"/>
        <pt x="2579" y="2712" on="0"/>
        <pt x="2675" y="2712" on="0"/>
        <pt x="2716" y="2686" on="0"/>
        <pt x="2716" y="2646" on="1"/>
        <pt x="2703" y="1888" on="1"/>
        <pt x="2703" y="1850" on="0"/>
        <pt x="2671" y="1827" on="0"/>
        <pt x="2569" y="1827" on="0"/>
        <pt x="2535" y="1848" on="0"/>
        <pt x="2535" y="1880" on="1"/>
        <pt x="2552" y="2216" on="1"/>
        <pt x="2552" y="2264" on="0"/>
        <pt x="2374" y="2406" on="1"/>
        <pt x="2066" y="2650" on="0"/>
        <pt x="1655" y="2650" on="1"/>
        <pt x="1438" y="2650" on="0"/>
        <pt x="1053" y="2454" on="0"/>
        <pt x="776" y="2115" on="0"/>
        <pt x="614" y="1636" on="0"/>
        <pt x="614" y="1160" on="0"/>
        <pt x="720" y="770" on="0"/>
        <pt x="922" y="445" on="0"/>
        <pt x="1058" y="322" on="1"/>
        <pt x="1347" y="61" on="0"/>
        <pt x="1737" y="61" on="1"/>
        <pt x="2082" y="61" on="0"/>
        <pt x="2292" y="188" on="1"/>
        <pt x="2389" y="247" on="0"/>
        <pt x="2392" y="279" on="1"/>
        <pt x="2404" y="384" on="0"/>
        <pt x="2404" y="889" on="0"/>
        <pt x="2376" y="889" on="1"/>
        <pt x="2019" y="889" on="1"/>
        <pt x="1974" y="889" on="0"/>
        <pt x="1974" y="1036" on="0"/>
        <pt x="2015" y="1036" on="1"/>
        <pt x="2564" y="1024" on="1"/>
        <pt x="2933" y="1036" on="1"/>
        <pt x="2978" y="1036" on="0"/>
        <pt x="2978" y="889" on="0"/>
        <pt x="2933" y="889" on="1"/>
        <pt x="2806" y="889" on="1"/>
        <pt x="2780" y="889" on="0"/>
        <pt x="2765" y="790" on="0"/>
      </contour>
    </TTGlyph>
    <TTGlyph name="G.c2" xMin="90" yMin="-21" xMax="1901" yMax="1712">
      <component glyphName="g.sc" x="0" y="0" flags="0x1004"/>
    </TTGlyph>
    <TTGlyph name="Gbreve" xMin="172" yMin="-86" xMax="2978" yMax="3445">
      <component glyphName="uni0306.cap" x="2474" y="1147" flags="0x1004"/>
      <component glyphName="G" x="0" y="0" flags="0x1004"/>
    </TTGlyph>
    <TTGlyph name="Gbreve.c2" xMin="90" yMin="-21" xMax="1901" yMax="2413">
      <component glyphName="gbreve.sc" x="0" y="0" flags="0x1004"/>
    </TTGlyph>
    <TTGlyph name="Gcircumflex" xMin="172" yMin="-86" xMax="2978" yMax="3449">
      <component glyphName="uni0302.cap" x="2474" y="1147" flags="0x1004"/>
      <component glyphName="G" x="0" y="0" flags="0x1004"/>
    </TTGlyph>
    <TTGlyph name="Gcircumflex.c2" xMin="90" yMin="-21" xMax="1901" yMax="2466">
      <component glyphName="gcircumflex.sc" x="0" y="0" flags="0x1004"/>
    </TTGlyph>
    <TTGlyph name="Gcommaaccent" xMin="172" yMin="-1004" xMax="2978" yMax="2785">
      <component glyphName="uni0326" x="2523" y="0" flags="0x1004"/>
      <component glyphName="G" x="0" y="0" flags="0x1004"/>
    </TTGlyph>
    <TTGlyph name="Gcommaaccent.c2" xMin="90" yMin="-1004" xMax="1901" yMax="1712">
      <component glyphName="gcommaaccent.sc" x="0" y="0" flags="0x1004"/>
    </TTGlyph>
    <TTGlyph name="Gdotaccent" xMin="172" yMin="-86" xMax="2978" yMax="3445">
      <component glyphName="uni0307.cap" x="2474" y="1147" flags="0x1004"/>
      <component glyphName="G" x="0" y="0" flags="0x1004"/>
    </TTGlyph>
    <TTGlyph name="Gdotaccent.c2" xMin="90" yMin="-21" xMax="1901" yMax="2421">
      <component glyphName="gdotaccent.sc" x="0" y="0" flags="0x1004"/>
    </TTGlyph>
    <TTGlyph name="H" xMin="152" yMin="-25" xMax="3088" yMax="2753">
      <contour>
        <pt x="700" y="-12" on="1"/>
        <pt x="209" y="-25" on="1"/>
        <pt x="168" y="-25" on="0"/>
        <pt x="152" y="4" on="0"/>
        <pt x="152" y="104" on="0"/>
        <pt x="175" y="123" on="0"/>
        <pt x="225" y="123" on="1"/>
        <pt x="463" y="123" on="1"/>
        <pt x="487" y="123" on="0"/>
        <pt x="487" y="1167" on="1"/>
        <pt x="487" y="1585" on="1"/>
        <pt x="487" y="2605" on="0"/>
        <pt x="467" y="2605" on="1"/>
        <pt x="287" y="2605" on="1"/>
        <pt x="243" y="2605" on="0"/>
        <pt x="205" y="2631" on="0"/>
        <pt x="205" y="2727" on="0"/>
        <pt x="241" y="2753" on="0"/>
        <pt x="287" y="2753" on="1"/>
        <pt x="668" y="2740" on="1"/>
        <pt x="1110" y="2753" on="1"/>
        <pt x="1151" y="2753" on="0"/>
        <pt x="1171" y="2721" on="0"/>
        <pt x="1171" y="2624" on="0"/>
        <pt x="1145" y="2605" on="0"/>
        <pt x="1094" y="2605" on="1"/>
        <pt x="868" y="2605" on="1"/>
        <pt x="848" y="2605" on="0"/>
        <pt x="848" y="2068" on="1"/>
        <pt x="852" y="1528" on="1"/>
        <pt x="852" y="1482" on="0"/>
        <pt x="864" y="1466" on="0"/>
        <pt x="901" y="1466" on="1"/>
        <pt x="2396" y="1466" on="1"/>
        <pt x="2433" y="1466" on="0"/>
        <pt x="2445" y="1479" on="0"/>
        <pt x="2445" y="1516" on="1"/>
        <pt x="2445" y="2015" on="1"/>
        <pt x="2445" y="2222" on="0"/>
        <pt x="2425" y="2605" on="0"/>
        <pt x="2413" y="2605" on="1"/>
        <pt x="2179" y="2605" on="1"/>
        <pt x="2139" y="2605" on="0"/>
        <pt x="2109" y="2632" on="0"/>
        <pt x="2109" y="2728" on="0"/>
        <pt x="2132" y="2753" on="0"/>
        <pt x="2175" y="2753" on="1"/>
        <pt x="2613" y="2740" on="1"/>
        <pt x="3011" y="2753" on="1"/>
        <pt x="3052" y="2753" on="0"/>
        <pt x="3072" y="2721" on="0"/>
        <pt x="3072" y="2624" on="0"/>
        <pt x="3045" y="2605" on="0"/>
        <pt x="2994" y="2605" on="1"/>
        <pt x="2814" y="2605" on="1"/>
        <pt x="2802" y="2605" on="0"/>
        <pt x="2802" y="123" on="0"/>
        <pt x="2818" y="123" on="1"/>
        <pt x="3035" y="123" on="1"/>
        <pt x="3070" y="123" on="0"/>
        <pt x="3088" y="97" on="0"/>
        <pt x="3088" y="8" on="0"/>
        <pt x="3070" y="-25" on="0"/>
        <pt x="3035" y="-25" on="1"/>
        <pt x="2646" y="-12" on="1"/>
        <pt x="2183" y="-25" on="1"/>
        <pt x="2142" y="-25" on="0"/>
        <pt x="2122" y="6" on="0"/>
        <pt x="2122" y="103" on="0"/>
        <pt x="2149" y="123" on="0"/>
        <pt x="2200" y="123" on="1"/>
        <pt x="2425" y="123" on="1"/>
        <pt x="2445" y="123" on="0"/>
        <pt x="2445" y="786" on="1"/>
        <pt x="2445" y="1294" on="1"/>
        <pt x="2445" y="1329" on="0"/>
        <pt x="2437" y="1343" on="0"/>
        <pt x="2421" y="1343" on="1"/>
        <pt x="889" y="1343" on="1"/>
        <pt x="861" y="1343" on="0"/>
        <pt x="852" y="1329" on="0"/>
        <pt x="852" y="1286" on="1"/>
        <pt x="852" y="123" on="0"/>
        <pt x="889" y="123" on="1"/>
        <pt x="1159" y="123" on="1"/>
        <pt x="1193" y="123" on="0"/>
        <pt x="1208" y="98" on="0"/>
        <pt x="1208" y="34" on="0"/>
        <pt x="1207" y="15" on="0"/>
        <pt x="1203" y="-10" on="0"/>
        <pt x="1198" y="-14" on="1"/>
        <pt x="1185" y="-25" on="0"/>
        <pt x="1159" y="-25" on="1"/>
      </contour>
    </TTGlyph>
    <TTGlyph name="H.c2" xMin="90" yMin="-20" xMax="2232" yMax="1663">
      <component glyphName="h.sc" x="0" y="0" flags="0x1004"/>
    </TTGlyph>
    <TTGlyph name="Hbar" xMin="152" yMin="-25" xMax="3092" yMax="2753">
      <contour>
        <pt x="700" y="-12" on="1"/>
        <pt x="209" y="-25" on="1"/>
        <pt x="168" y="-25" on="0"/>
        <pt x="152" y="4" on="0"/>
        <pt x="152" y="104" on="0"/>
        <pt x="175" y="123" on="0"/>
        <pt x="225" y="123" on="1"/>
        <pt x="463" y="123" on="1"/>
        <pt x="487" y="123" on="0"/>
        <pt x="487" y="1167" on="1"/>
        <pt x="487" y="1946" on="1"/>
        <pt x="487" y="1977" on="0"/>
        <pt x="477" y="1987" on="0"/>
        <pt x="446" y="1987" on="1"/>
        <pt x="217" y="1987" on="1"/>
        <pt x="193" y="1987" on="0"/>
        <pt x="193" y="2109" on="0"/>
        <pt x="217" y="2109" on="1"/>
        <pt x="451" y="2109" on="1"/>
        <pt x="475" y="2109" on="0"/>
        <pt x="483" y="2118" on="0"/>
        <pt x="476" y="2605" on="0"/>
        <pt x="467" y="2605" on="1"/>
        <pt x="287" y="2605" on="1"/>
        <pt x="243" y="2605" on="0"/>
        <pt x="205" y="2631" on="0"/>
        <pt x="205" y="2727" on="0"/>
        <pt x="241" y="2753" on="0"/>
        <pt x="287" y="2753" on="1"/>
        <pt x="668" y="2740" on="1"/>
        <pt x="1110" y="2753" on="1"/>
        <pt x="1151" y="2753" on="0"/>
        <pt x="1171" y="2721" on="0"/>
        <pt x="1171" y="2624" on="0"/>
        <pt x="1145" y="2605" on="0"/>
        <pt x="1094" y="2605" on="1"/>
        <pt x="868" y="2605" on="1"/>
        <pt x="848" y="2605" on="0"/>
        <pt x="848" y="2121" on="0"/>
        <pt x="861" y="2109" on="0"/>
        <pt x="889" y="2109" on="1"/>
        <pt x="2396" y="2109" on="1"/>
        <pt x="2433" y="2109" on="0"/>
        <pt x="2445" y="2122" on="0"/>
        <pt x="2437" y="2605" on="0"/>
        <pt x="2413" y="2605" on="1"/>
        <pt x="2179" y="2605" on="1"/>
        <pt x="2139" y="2605" on="0"/>
        <pt x="2109" y="2632" on="0"/>
        <pt x="2109" y="2728" on="0"/>
        <pt x="2132" y="2753" on="0"/>
        <pt x="2175" y="2753" on="1"/>
        <pt x="2613" y="2740" on="1"/>
        <pt x="3011" y="2753" on="1"/>
        <pt x="3052" y="2753" on="0"/>
        <pt x="3072" y="2721" on="0"/>
        <pt x="3072" y="2624" on="0"/>
        <pt x="3045" y="2605" on="0"/>
        <pt x="2994" y="2605" on="1"/>
        <pt x="2814" y="2605" on="1"/>
        <pt x="2802" y="2605" on="0"/>
        <pt x="2802" y="2122" on="0"/>
        <pt x="2814" y="2109" on="0"/>
        <pt x="2851" y="2109" on="1"/>
        <pt x="3068" y="2109" on="1"/>
        <pt x="3092" y="2109" on="0"/>
        <pt x="3092" y="1987" on="0"/>
        <pt x="3068" y="1987" on="1"/>
        <pt x="2851" y="1987" on="1"/>
        <pt x="2817" y="1987" on="0"/>
        <pt x="2802" y="1973" on="0"/>
        <pt x="2802" y="1942" on="1"/>
        <pt x="2802" y="1626" on="1"/>
        <pt x="2802" y="123" on="0"/>
        <pt x="2818" y="123" on="1"/>
        <pt x="3035" y="123" on="1"/>
        <pt x="3070" y="123" on="0"/>
        <pt x="3088" y="97" on="0"/>
        <pt x="3088" y="8" on="0"/>
        <pt x="3070" y="-25" on="0"/>
        <pt x="3035" y="-25" on="1"/>
        <pt x="2646" y="-12" on="1"/>
        <pt x="2183" y="-25" on="1"/>
        <pt x="2142" y="-25" on="0"/>
        <pt x="2122" y="6" on="0"/>
        <pt x="2122" y="103" on="0"/>
        <pt x="2149" y="123" on="0"/>
        <pt x="2200" y="123" on="1"/>
        <pt x="2425" y="123" on="1"/>
        <pt x="2445" y="123" on="0"/>
        <pt x="2445" y="786" on="1"/>
        <pt x="2445" y="1294" on="1"/>
        <pt x="2445" y="1329" on="0"/>
        <pt x="2437" y="1343" on="0"/>
        <pt x="2421" y="1343" on="1"/>
        <pt x="889" y="1343" on="1"/>
        <pt x="861" y="1343" on="0"/>
        <pt x="852" y="1329" on="0"/>
        <pt x="852" y="1286" on="1"/>
        <pt x="852" y="123" on="0"/>
        <pt x="889" y="123" on="1"/>
        <pt x="1159" y="123" on="1"/>
        <pt x="1193" y="123" on="0"/>
        <pt x="1208" y="98" on="0"/>
        <pt x="1208" y="34" on="0"/>
        <pt x="1207" y="15" on="0"/>
        <pt x="1203" y="-10" on="0"/>
        <pt x="1198" y="-14" on="1"/>
        <pt x="1185" y="-25" on="0"/>
        <pt x="1159" y="-25" on="1"/>
      </contour>
      <contour>
        <pt x="848" y="1946" on="1"/>
        <pt x="852" y="1528" on="1"/>
        <pt x="852" y="1482" on="0"/>
        <pt x="864" y="1466" on="0"/>
        <pt x="901" y="1466" on="1"/>
        <pt x="2396" y="1466" on="1"/>
        <pt x="2433" y="1466" on="0"/>
        <pt x="2445" y="1479" on="0"/>
        <pt x="2445" y="1516" on="1"/>
        <pt x="2445" y="1942" on="1"/>
        <pt x="2445" y="1975" on="0"/>
        <pt x="2431" y="1987" on="0"/>
        <pt x="2396" y="1987" on="1"/>
        <pt x="889" y="1987" on="1"/>
        <pt x="858" y="1987" on="0"/>
        <pt x="848" y="1977" on="0"/>
      </contour>
    </TTGlyph>
    <TTGlyph name="Hbar.c2" xMin="90" yMin="-20" xMax="2232" yMax="1663">
      <component glyphName="hbar.sc" x="0" y="0" flags="0x1004"/>
    </TTGlyph>
    <TTGlyph name="Hcircumflex" xMin="152" yMin="-25" xMax="3088" yMax="3449">
      <component glyphName="uni0302.cap" x="2466" y="1147" flags="0x1004"/>
      <component glyphName="H" x="0" y="0" flags="0x1004"/>
    </TTGlyph>
    <TTGlyph name="Hcircumflex.c2" xMin="90" yMin="-20" xMax="2232" yMax="2466">
      <component glyphName="hcircumflex.sc" x="0" y="0" flags="0x1004"/>
    </TTGlyph>
    <TTGlyph name="I" xMin="111" yMin="-25" xMax="1253" yMax="2753">
      <contour>
        <pt x="705" y="-12" on="1"/>
        <pt x="180" y="-25" on="1"/>
        <pt x="137" y="-25" on="0"/>
        <pt x="111" y="8" on="0"/>
        <pt x="111" y="102" on="0"/>
        <pt x="144" y="123" on="0"/>
        <pt x="197" y="123" on="1"/>
        <pt x="467" y="123" on="1"/>
        <pt x="504" y="123" on="0"/>
        <pt x="504" y="1614" on="1"/>
        <pt x="504" y="2015" on="1"/>
        <pt x="504" y="2303" on="0"/>
        <pt x="477" y="2605" on="0"/>
        <pt x="471" y="2605" on="1"/>
        <pt x="201" y="2605" on="1"/>
        <pt x="159" y="2605" on="0"/>
        <pt x="127" y="2630" on="0"/>
        <pt x="127" y="2728" on="0"/>
        <pt x="157" y="2753" on="0"/>
        <pt x="201" y="2753" on="1"/>
        <pt x="713" y="2740" on="1"/>
        <pt x="713" y="2740" on="0"/>
        <pt x="1196" y="2753" on="1"/>
        <pt x="1232" y="2753" on="0"/>
        <pt x="1253" y="2720" on="0"/>
        <pt x="1253" y="2624" on="0"/>
        <pt x="1230" y="2605" on="0"/>
        <pt x="1180" y="2605" on="1"/>
        <pt x="913" y="2605" on="1"/>
        <pt x="877" y="2605" on="0"/>
        <pt x="877" y="1970" on="1"/>
        <pt x="877" y="1417" on="1"/>
        <pt x="877" y="123" on="0"/>
        <pt x="913" y="123" on="1"/>
        <pt x="1196" y="123" on="1"/>
        <pt x="1231" y="123" on="0"/>
        <pt x="1253" y="95" on="0"/>
        <pt x="1253" y="9" on="0"/>
        <pt x="1231" y="-25" on="0"/>
        <pt x="1196" y="-25" on="1"/>
      </contour>
    </TTGlyph>
    <TTGlyph name="I.c2" xMin="90" yMin="-20" xMax="1069" yMax="1663">
      <component glyphName="i.sc" x="0" y="0" flags="0x1004"/>
    </TTGlyph>
    <TTGlyph name="IJ" xMin="111" yMin="-881" xMax="2576" yMax="2753">
      <component glyphName="J" x="1364" y="0" flags="0x1004"/>
      <component glyphName="I" x="0" y="0" flags="0x1004"/>
    </TTGlyph>
    <TTGlyph name="IJ.c2" xMin="90" yMin="-729" xMax="2261" yMax="1663">
      <component glyphName="ij.sc" x="0" y="0" flags="0x1004"/>
    </TTGlyph>
    <TTGlyph name="Iacute" xMin="111" yMin="-25" xMax="1253" yMax="3482">
      <component glyphName="acutecomb.cap" x="1507" y="1147" flags="0x1004"/>
      <component glyphName="I" x="0" y="0" flags="0x1004"/>
    </TTGlyph>
    <TTGlyph name="Iacute.c2" xMin="90" yMin="-20" xMax="1069" yMax="2519">
      <component glyphName="iacute.sc" x="0" y="0" flags="0x1004"/>
    </TTGlyph>
    <TTGlyph name="Ibreve" xMin="111" yMin="-25" xMax="1253" yMax="3445">
      <component glyphName="uni0306.cap" x="1507" y="1147" flags="0x1004"/>
      <component glyphName="I" x="0" y="0" flags="0x1004"/>
    </TTGlyph>
    <TTGlyph name="Ibreve.c2" xMin="90" yMin="-20" xMax="1069" yMax="2413">
      <component glyphName="ibreve.sc" x="0" y="0" flags="0x1004"/>
    </TTGlyph>
    <TTGlyph name="Icircumflex" xMin="111" yMin="-25" xMax="1253" yMax="3449">
      <component glyphName="uni0302.cap" x="1507" y="1147" flags="0x1004"/>
      <component glyphName="I" x="0" y="0" flags="0x1004"/>
    </TTGlyph>
    <TTGlyph name="Icircumflex.c2" xMin="90" yMin="-20" xMax="1069" yMax="2466">
      <component glyphName="icircumflex.sc" x="0" y="0" flags="0x1004"/>
    </TTGlyph>
    <TTGlyph name="Idieresis" xMin="111" yMin="-25" xMax="1253" yMax="3445">
      <component glyphName="uni0308.cap" x="1507" y="1147" flags="0x1004"/>
      <component glyphName="I" x="0" y="0" flags="0x1004"/>
    </TTGlyph>
    <TTGlyph name="Idieresis.c2" xMin="12" yMin="-20" xMax="1109" yMax="2421">
      <component glyphName="idieresis.sc" x="0" y="0" flags="0x1004"/>
    </TTGlyph>
    <TTGlyph name="Idotaccent" xMin="111" yMin="-25" xMax="1253" yMax="3445">
      <component glyphName="uni0307.cap" x="1507" y="1147" flags="0x1004"/>
      <component glyphName="I" x="0" y="0" flags="0x1004"/>
    </TTGlyph>
    <TTGlyph name="Igrave" xMin="111" yMin="-25" xMax="1253" yMax="3482">
      <component glyphName="gravecomb.cap" x="1507" y="1147" flags="0x1004"/>
      <component glyphName="I" x="0" y="0" flags="0x1004"/>
    </TTGlyph>
    <TTGlyph name="Igrave.c2" xMin="90" yMin="-20" xMax="1069" yMax="2519">
      <component glyphName="igrave.sc" x="0" y="0" flags="0x1004"/>
    </TTGlyph>
    <TTGlyph name="Imacron" xMin="111" yMin="-25" xMax="1253" yMax="3367">
      <component glyphName="uni0304.cap" x="1507" y="1147" flags="0x1004"/>
      <component glyphName="I" x="0" y="0" flags="0x1004"/>
    </TTGlyph>
    <TTGlyph name="Imacron.c2" xMin="90" yMin="-20" xMax="1069" yMax="2261">
      <component glyphName="imacron.sc" x="0" y="0" flags="0x1004"/>
    </TTGlyph>
    <TTGlyph name="Iogonek" xMin="111" yMin="-1188" xMax="1253" yMax="2753">
      <contour>
        <pt x="705" y="-12" on="1"/>
        <pt x="180" y="-25" on="1"/>
        <pt x="137" y="-25" on="0"/>
        <pt x="111" y="8" on="0"/>
        <pt x="111" y="102" on="0"/>
        <pt x="144" y="123" on="0"/>
        <pt x="197" y="123" on="1"/>
        <pt x="467" y="123" on="1"/>
        <pt x="504" y="123" on="0"/>
        <pt x="504" y="1614" on="1"/>
        <pt x="504" y="2015" on="1"/>
        <pt x="504" y="2303" on="0"/>
        <pt x="477" y="2605" on="0"/>
        <pt x="471" y="2605" on="1"/>
        <pt x="201" y="2605" on="1"/>
        <pt x="159" y="2605" on="0"/>
        <pt x="127" y="2630" on="0"/>
        <pt x="127" y="2728" on="0"/>
        <pt x="157" y="2753" on="0"/>
        <pt x="201" y="2753" on="1"/>
        <pt x="713" y="2740" on="1"/>
        <pt x="713" y="2740" on="0"/>
        <pt x="1196" y="2753" on="1"/>
        <pt x="1232" y="2753" on="0"/>
        <pt x="1253" y="2720" on="0"/>
        <pt x="1253" y="2624" on="0"/>
        <pt x="1230" y="2605" on="0"/>
        <pt x="1180" y="2605" on="1"/>
        <pt x="913" y="2605" on="1"/>
        <pt x="877" y="2605" on="0"/>
        <pt x="877" y="1970" on="1"/>
        <pt x="877" y="1417" on="1"/>
        <pt x="877" y="123" on="0"/>
        <pt x="913" y="123" on="1"/>
        <pt x="1196" y="123" on="1"/>
        <pt x="1231" y="123" on="0"/>
        <pt x="1253" y="95" on="0"/>
        <pt x="1253" y="9" on="0"/>
        <pt x="1231" y="-25" on="0"/>
        <pt x="1196" y="-25" on="1"/>
        <pt x="893" y="-16" on="1"/>
        <pt x="853" y="-16" on="0"/>
        <pt x="836" y="-33" on="1"/>
        <pt x="504" y="-381" on="0"/>
        <pt x="504" y="-684" on="1"/>
        <pt x="504" y="-813" on="0"/>
        <pt x="663" y="-999" on="0"/>
        <pt x="811" y="-999" on="0"/>
        <pt x="918" y="-962" on="0"/>
        <pt x="992" y="-909" on="0"/>
        <pt x="1022" y="-882" on="1"/>
        <pt x="1092" y="-819" on="0"/>
        <pt x="1116" y="-819" on="0"/>
        <pt x="1159" y="-874" on="0"/>
        <pt x="1159" y="-893" on="0"/>
        <pt x="1110" y="-956" on="0"/>
        <pt x="1011" y="-1045" on="0"/>
        <pt x="948" y="-1087" on="1"/>
        <pt x="795" y="-1188" on="0"/>
        <pt x="610" y="-1188" on="1"/>
        <pt x="521" y="-1188" on="0"/>
        <pt x="338" y="-1077" on="0"/>
        <pt x="217" y="-892" on="0"/>
        <pt x="217" y="-713" on="0"/>
        <pt x="266" y="-555" on="0"/>
        <pt x="321" y="-445" on="0"/>
        <pt x="392" y="-362" on="1"/>
        <pt x="556" y="-167" on="0"/>
        <pt x="715" y="-28" on="1"/>
        <pt x="733" y="-12" on="0"/>
      </contour>
    </TTGlyph>
    <TTGlyph name="Iogonek.c2" xMin="90" yMin="-1188" xMax="1069" yMax="1663">
      <component glyphName="iogonek.sc" x="0" y="0" flags="0x1004"/>
    </TTGlyph>
    <TTGlyph name="Itilde" xMin="111" yMin="-25" xMax="1253" yMax="3424">
      <component glyphName="tildecomb.cap" x="1507" y="1147" flags="0x1004"/>
      <component glyphName="I" x="0" y="0" flags="0x1004"/>
    </TTGlyph>
    <TTGlyph name="Itilde.c2" xMin="90" yMin="-20" xMax="1069" yMax="2400">
      <component glyphName="itilde.sc" x="0" y="0" flags="0x1004"/>
    </TTGlyph>
    <TTGlyph name="J" xMin="-135" yMin="-881" xMax="1212" yMax="2753">
      <contour>
        <pt x="725" y="2740" on="1"/>
        <pt x="1151" y="2753" on="1"/>
        <pt x="1192" y="2753" on="0"/>
        <pt x="1212" y="2721" on="0"/>
        <pt x="1212" y="2624" on="0"/>
        <pt x="1186" y="2605" on="0"/>
        <pt x="1135" y="2605" on="1"/>
        <pt x="926" y="2605" on="1"/>
        <pt x="905" y="2605" on="0"/>
        <pt x="905" y="1516" on="1"/>
        <pt x="905" y="532" on="1"/>
        <pt x="905" y="108" on="0"/>
        <pt x="814" y="-165" on="1"/>
        <pt x="729" y="-422" on="0"/>
        <pt x="549" y="-614" on="1"/>
        <pt x="401" y="-772" on="0"/>
        <pt x="331" y="-810" on="1"/>
        <pt x="202" y="-881" on="0"/>
        <pt x="13" y="-881" on="0"/>
        <pt x="-135" y="-821" on="0"/>
        <pt x="-135" y="-716" on="0"/>
        <pt x="-55" y="-608" on="0"/>
        <pt x="-4" y="-574" on="1"/>
        <pt x="112" y="-496" on="0"/>
        <pt x="188" y="-496" on="0"/>
        <pt x="326" y="-582" on="0"/>
        <pt x="399" y="-582" on="0"/>
        <pt x="449" y="-551" on="0"/>
        <pt x="482" y="-479" on="0"/>
        <pt x="503" y="-395" on="0"/>
        <pt x="508" y="-324" on="1"/>
        <pt x="516" y="-212" on="0"/>
        <pt x="516" y="-20" on="1"/>
        <pt x="516" y="2015" on="1"/>
        <pt x="516" y="2605" on="0"/>
        <pt x="479" y="2605" on="1"/>
        <pt x="209" y="2605" on="1"/>
        <pt x="165" y="2605" on="0"/>
        <pt x="127" y="2631" on="0"/>
        <pt x="127" y="2727" on="0"/>
        <pt x="163" y="2753" on="0"/>
        <pt x="209" y="2753" on="1"/>
      </contour>
    </TTGlyph>
    <TTGlyph name="J.c2" xMin="-94" yMin="-729" xMax="1102" yMax="1663">
      <component glyphName="j.sc" x="0" y="0" flags="0x1004"/>
    </TTGlyph>
    <TTGlyph name="Jcircumflex" xMin="-135" yMin="-881" xMax="1212" yMax="3449">
      <component glyphName="uni0302.cap" x="1503" y="1147" flags="0x1004"/>
      <component glyphName="J" x="0" y="0" flags="0x1004"/>
    </TTGlyph>
    <TTGlyph name="Jcircumflex.c2" xMin="-94" yMin="-729" xMax="1102" yMax="2466">
      <component glyphName="jcircumflex.sc" x="0" y="0" flags="0x1004"/>
    </TTGlyph>
    <TTGlyph name="K" xMin="152" yMin="-25" xMax="2675" yMax="2732">
      <contour>
        <pt x="692" y="-12" on="1"/>
        <pt x="213" y="-25" on="1"/>
        <pt x="172" y="-25" on="0"/>
        <pt x="152" y="6" on="0"/>
        <pt x="152" y="102" on="0"/>
        <pt x="185" y="123" on="0"/>
        <pt x="238" y="123" on="1"/>
        <pt x="455" y="123" on="1"/>
        <pt x="483" y="123" on="0"/>
        <pt x="483" y="807" on="1"/>
        <pt x="483" y="1995" on="1"/>
        <pt x="483" y="2585" on="0"/>
        <pt x="459" y="2585" on="1"/>
        <pt x="270" y="2585" on="1"/>
        <pt x="205" y="2585" on="0"/>
        <pt x="188" y="2633" on="0"/>
        <pt x="188" y="2706" on="0"/>
        <pt x="224" y="2732" on="0"/>
        <pt x="270" y="2732" on="1"/>
        <pt x="700" y="2720" on="1"/>
        <pt x="1143" y="2732" on="1"/>
        <pt x="1184" y="2732" on="0"/>
        <pt x="1204" y="2701" on="0"/>
        <pt x="1204" y="2604" on="0"/>
        <pt x="1177" y="2585" on="0"/>
        <pt x="1126" y="2585" on="1"/>
        <pt x="901" y="2585" on="1"/>
        <pt x="881" y="2585" on="0"/>
        <pt x="852" y="2139" on="0"/>
        <pt x="852" y="1950" on="1"/>
        <pt x="852" y="1438" on="1"/>
        <pt x="852" y="1392" on="0"/>
        <pt x="864" y="1368" on="0"/>
        <pt x="893" y="1368" on="1"/>
        <pt x="983" y="1368" on="1"/>
        <pt x="1050" y="1368" on="0"/>
        <pt x="1642" y="2158" on="1"/>
        <pt x="1891" y="2491" on="0"/>
        <pt x="1915" y="2522" on="1"/>
        <pt x="1964" y="2585" on="0"/>
        <pt x="1896" y="2585" on="1"/>
        <pt x="1733" y="2585" on="1"/>
        <pt x="1668" y="2585" on="0"/>
        <pt x="1651" y="2633" on="0"/>
        <pt x="1651" y="2706" on="0"/>
        <pt x="1687" y="2732" on="0"/>
        <pt x="1733" y="2732" on="1"/>
        <pt x="2093" y="2720" on="1"/>
        <pt x="2433" y="2732" on="1"/>
        <pt x="2474" y="2732" on="0"/>
        <pt x="2490" y="2702" on="0"/>
        <pt x="2490" y="2604" on="0"/>
        <pt x="2467" y="2585" on="0"/>
        <pt x="2417" y="2585" on="1"/>
        <pt x="2220" y="2585" on="1"/>
        <pt x="2203" y="2585" on="0"/>
        <pt x="1352" y="1562" on="0"/>
        <pt x="1303" y="1506" on="0"/>
        <pt x="1303" y="1497" on="0"/>
        <pt x="1331" y="1468" on="0"/>
        <pt x="1339" y="1458" on="1"/>
        <pt x="2441" y="188" on="1"/>
        <pt x="2500" y="123" on="0"/>
        <pt x="2560" y="123" on="1"/>
        <pt x="2626" y="123" on="1"/>
        <pt x="2660" y="123" on="0"/>
        <pt x="2675" y="98" on="0"/>
        <pt x="2675" y="34" on="0"/>
        <pt x="2674" y="15" on="0"/>
        <pt x="2670" y="-10" on="0"/>
        <pt x="2664" y="-14" on="1"/>
        <pt x="2652" y="-25" on="0"/>
        <pt x="2626" y="-25" on="1"/>
        <pt x="2208" y="-12" on="1"/>
        <pt x="1786" y="-25" on="1"/>
        <pt x="1745" y="-25" on="0"/>
        <pt x="1729" y="4" on="0"/>
        <pt x="1729" y="101" on="0"/>
        <pt x="1759" y="123" on="0"/>
        <pt x="1802" y="123" on="1"/>
        <pt x="1937" y="123" on="1"/>
        <pt x="1987" y="123" on="0"/>
        <pt x="1975" y="144" on="1"/>
        <pt x="1966" y="158" on="0"/>
        <pt x="1950" y="176" on="1"/>
        <pt x="1061" y="1229" on="1"/>
        <pt x="1045" y="1249" on="0"/>
        <pt x="1023" y="1257" on="0"/>
        <pt x="979" y="1257" on="1"/>
        <pt x="901" y="1257" on="1"/>
        <pt x="864" y="1257" on="0"/>
        <pt x="852" y="1246" on="0"/>
        <pt x="852" y="1212" on="1"/>
        <pt x="852" y="123" on="0"/>
        <pt x="889" y="123" on="1"/>
        <pt x="1184" y="123" on="1"/>
        <pt x="1219" y="123" on="0"/>
        <pt x="1241" y="95" on="0"/>
        <pt x="1241" y="8" on="0"/>
        <pt x="1223" y="-25" on="0"/>
        <pt x="1188" y="-25" on="1"/>
      </contour>
    </TTGlyph>
    <TTGlyph name="K.c2" xMin="90" yMin="-20" xMax="1991" yMax="1663">
      <component glyphName="k.sc" x="0" y="0" flags="0x1004"/>
    </TTGlyph>
    <TTGlyph name="Kcommaaccent" xMin="152" yMin="-1004" xMax="2675" yMax="2732">
      <component glyphName="uni0326" x="2195" y="0" flags="0x1004"/>
      <component glyphName="K" x="0" y="0" flags="0x1004"/>
    </TTGlyph>
    <TTGlyph name="Kcommaaccent.c2" xMin="90" yMin="-1004" xMax="1991" yMax="1663">
      <component glyphName="kcommaaccent.sc" x="0" y="0" flags="0x1004"/>
    </TTGlyph>
    <TTGlyph name="L" xMin="152" yMin="-25" xMax="2396" yMax="2753">
      <contour>
        <pt x="717" y="-12" on="1"/>
        <pt x="217" y="-25" on="1"/>
        <pt x="175" y="-25" on="0"/>
        <pt x="152" y="7" on="0"/>
        <pt x="152" y="100" on="0"/>
        <pt x="183" y="123" on="0"/>
        <pt x="233" y="123" on="1"/>
        <pt x="479" y="123" on="1"/>
        <pt x="512" y="123" on="0"/>
        <pt x="512" y="1307" on="1"/>
        <pt x="512" y="2253" on="1"/>
        <pt x="512" y="2605" on="0"/>
        <pt x="492" y="2605" on="1"/>
        <pt x="250" y="2605" on="1"/>
        <pt x="207" y="2605" on="0"/>
        <pt x="180" y="2633" on="0"/>
        <pt x="180" y="2727" on="0"/>
        <pt x="211" y="2753" on="0"/>
        <pt x="262" y="2753" on="1"/>
        <pt x="725" y="2740" on="1"/>
        <pt x="725" y="2740" on="0"/>
        <pt x="1217" y="2753" on="1"/>
        <pt x="1267" y="2753" on="0"/>
        <pt x="1290" y="2727" on="0"/>
        <pt x="1290" y="2636" on="0"/>
        <pt x="1262" y="2605" on="0"/>
        <pt x="1212" y="2605" on="1"/>
        <pt x="926" y="2605" on="1"/>
        <pt x="893" y="2605" on="0"/>
        <pt x="893" y="1737" on="1"/>
        <pt x="893" y="602" on="1"/>
        <pt x="893" y="139" on="0"/>
        <pt x="918" y="139" on="1"/>
        <pt x="1309" y="139" on="0"/>
        <pt x="1699" y="150" on="1"/>
        <pt x="2105" y="162" on="0"/>
        <pt x="2168" y="167" on="0"/>
        <pt x="2187" y="188" on="0"/>
        <pt x="2195" y="246" on="1"/>
        <pt x="2245" y="598" on="1"/>
        <pt x="2251" y="642" on="0"/>
        <pt x="2331" y="633" on="0"/>
        <pt x="2349" y="629" on="1"/>
        <pt x="2396" y="619" on="0"/>
        <pt x="2396" y="586" on="1"/>
        <pt x="2396" y="569" on="0"/>
        <pt x="2316" y="80" on="0"/>
        <pt x="2307" y="-3" on="0"/>
        <pt x="2267" y="-25" on="0"/>
        <pt x="2208" y="-25" on="1"/>
      </contour>
    </TTGlyph>
    <TTGlyph name="L.CAT" xMin="152" yMin="-25" xMax="2396" yMax="2753">
      <component glyphName="L" x="0" y="0" flags="0x1004"/>
    </TTGlyph>
    <TTGlyph name="L.CAT.c2" xMin="90" yMin="-25" xMax="1774" yMax="1663">
      <component glyphName="L.c2" x="0" y="0" flags="0x1004"/>
    </TTGlyph>
    <TTGlyph name="L.c2" xMin="90" yMin="-25" xMax="1774" yMax="1663">
      <component glyphName="l.sc" x="0" y="0" flags="0x1004"/>
    </TTGlyph>
    <TTGlyph name="Lacute" xMin="152" yMin="-25" xMax="2396" yMax="3482">
      <component glyphName="acutecomb.cap" x="1524" y="1147" flags="0x1004"/>
      <component glyphName="L" x="0" y="0" flags="0x1004"/>
    </TTGlyph>
    <TTGlyph name="Lacute.c2" xMin="90" yMin="-25" xMax="1774" yMax="2519">
      <component glyphName="lacute.sc" x="0" y="0" flags="0x1004"/>
    </TTGlyph>
    <TTGlyph name="Lcaron" xMin="152" yMin="-25" xMax="2396" yMax="2753">
      <component glyphName="uni0315" x="1380" y="0" flags="0x1004"/>
      <component glyphName="L" x="0" y="0" flags="0x1004"/>
    </TTGlyph>
    <TTGlyph name="Lcaron.c2" xMin="90" yMin="-25" xMax="1774" yMax="2085">
      <component glyphName="lcaron.sc" x="0" y="0" flags="0x1004"/>
    </TTGlyph>
    <TTGlyph name="Lcommaaccent" xMin="152" yMin="-1004" xMax="2396" yMax="2753">
      <component glyphName="uni0326" x="2179" y="0" flags="0x1004"/>
      <component glyphName="L" x="0" y="0" flags="0x1004"/>
    </TTGlyph>
    <TTGlyph name="Lcommaaccent.c2" xMin="90" yMin="-1004" xMax="1774" yMax="1663">
      <component glyphName="lcommaaccent.sc" x="0" y="0" flags="0x1004"/>
    </TTGlyph>
    <TTGlyph name="Ldot" xMin="152" yMin="-25" xMax="2396" yMax="2753">
      <component glyphName="Ldot.ref1" x="0" y="0" flags="0x1004"/>
      <component glyphName="L" x="0" y="0" flags="0x1004"/>
    </TTGlyph>
    <TTGlyph name="Ldot.c2" xMin="90" yMin="-25" xMax="1774" yMax="1663">
      <component glyphName="ldot.sc" x="0" y="0" flags="0x1004"/>
    </TTGlyph>
    <TTGlyph name="Ldot.ref1" xMin="1696" yMin="1184" xMax="2138" yMax="1602">
      <contour>
        <pt x="1802" y="1184" on="0"/>
        <pt x="1696" y="1278" on="0"/>
        <pt x="1696" y="1438" on="0"/>
        <pt x="1740" y="1494" on="1"/>
        <pt x="1824" y="1602" on="0"/>
        <pt x="1954" y="1602" on="1"/>
        <pt x="2030" y="1602" on="0"/>
        <pt x="2138" y="1514" on="0"/>
        <pt x="2138" y="1320" on="0"/>
        <pt x="1973" y="1184" on="0"/>
      </contour>
    </TTGlyph>
    <TTGlyph name="Lslash" xMin="152" yMin="-25" xMax="2396" yMax="2753">
      <contour>
        <pt x="717" y="-12" on="1"/>
        <pt x="217" y="-25" on="1"/>
        <pt x="175" y="-25" on="0"/>
        <pt x="152" y="7" on="0"/>
        <pt x="152" y="100" on="0"/>
        <pt x="183" y="123" on="0"/>
        <pt x="233" y="123" on="1"/>
        <pt x="479" y="123" on="1"/>
        <pt x="505" y="123" on="0"/>
        <pt x="512" y="881" on="1"/>
        <pt x="512" y="922" on="0"/>
        <pt x="475" y="901" on="1"/>
        <pt x="176" y="758" on="0"/>
        <pt x="152" y="758" on="0"/>
        <pt x="152" y="819" on="1"/>
        <pt x="152" y="840" on="1"/>
        <pt x="152" y="884" on="0"/>
        <pt x="168" y="893" on="1"/>
        <pt x="487" y="1040" on="1"/>
        <pt x="512" y="1050" on="0"/>
        <pt x="512" y="1098" on="1"/>
        <pt x="512" y="2253" on="1"/>
        <pt x="512" y="2605" on="0"/>
        <pt x="492" y="2605" on="1"/>
        <pt x="250" y="2605" on="1"/>
        <pt x="207" y="2605" on="0"/>
        <pt x="180" y="2633" on="0"/>
        <pt x="180" y="2727" on="0"/>
        <pt x="211" y="2753" on="0"/>
        <pt x="262" y="2753" on="1"/>
        <pt x="725" y="2740" on="1"/>
        <pt x="1217" y="2753" on="1"/>
        <pt x="1267" y="2753" on="0"/>
        <pt x="1290" y="2727" on="0"/>
        <pt x="1290" y="2636" on="0"/>
        <pt x="1262" y="2605" on="0"/>
        <pt x="1212" y="2605" on="1"/>
        <pt x="926" y="2605" on="1"/>
        <pt x="893" y="2605" on="0"/>
        <pt x="893" y="1737" on="1"/>
        <pt x="893" y="1274" on="1"/>
        <pt x="893" y="1234" on="0"/>
        <pt x="907" y="1240" on="1"/>
        <pt x="914" y="1242" on="0"/>
        <pt x="1002" y="1280" on="0"/>
        <pt x="1310" y="1424" on="1"/>
        <pt x="2021" y="1757" on="0"/>
        <pt x="2044" y="1757" on="0"/>
        <pt x="2044" y="1630" on="0"/>
        <pt x="2036" y="1626" on="1"/>
        <pt x="934" y="1114" on="1"/>
        <pt x="929" y="1111" on="0"/>
        <pt x="913" y="1104" on="0"/>
        <pt x="907" y="1100" on="0"/>
        <pt x="898" y="1092" on="0"/>
        <pt x="897" y="1087" on="1"/>
        <pt x="893" y="1067" on="0"/>
        <pt x="893" y="1053" on="1"/>
        <pt x="893" y="602" on="1"/>
        <pt x="893" y="139" on="0"/>
        <pt x="918" y="139" on="1"/>
        <pt x="1309" y="139" on="0"/>
        <pt x="1699" y="150" on="1"/>
        <pt x="2105" y="162" on="0"/>
        <pt x="2168" y="167" on="0"/>
        <pt x="2187" y="188" on="0"/>
        <pt x="2195" y="246" on="1"/>
        <pt x="2245" y="598" on="1"/>
        <pt x="2251" y="642" on="0"/>
        <pt x="2331" y="633" on="0"/>
        <pt x="2349" y="629" on="1"/>
        <pt x="2396" y="619" on="0"/>
        <pt x="2396" y="586" on="1"/>
        <pt x="2396" y="569" on="0"/>
        <pt x="2316" y="80" on="0"/>
        <pt x="2307" y="-3" on="0"/>
        <pt x="2267" y="-25" on="0"/>
        <pt x="2208" y="-25" on="1"/>
      </contour>
    </TTGlyph>
    <TTGlyph name="Lslash.c2" xMin="90" yMin="-25" xMax="1774" yMax="1663">
      <component glyphName="lslash.sc" x="0" y="0" flags="0x1004"/>
    </TTGlyph>
    <TTGlyph name="M" xMin="131" yMin="-41" xMax="3555" yMax="2753">
      <contour>
        <pt x="537" y="-12" on="1"/>
        <pt x="197" y="-25" on="1"/>
        <pt x="155" y="-25" on="0"/>
        <pt x="131" y="8" on="0"/>
        <pt x="131" y="102" on="0"/>
        <pt x="164" y="123" on="0"/>
        <pt x="217" y="123" on="1"/>
        <pt x="385" y="123" on="1"/>
        <pt x="396" y="123" on="0"/>
        <pt x="411" y="473" on="0"/>
        <pt x="428" y="819" on="0"/>
        <pt x="487" y="2376" on="0"/>
        <pt x="487" y="2591" on="0"/>
        <pt x="465" y="2605" on="0"/>
        <pt x="410" y="2605" on="1"/>
        <pt x="205" y="2605" on="1"/>
        <pt x="176" y="2605" on="0"/>
        <pt x="164" y="2630" on="0"/>
        <pt x="164" y="2722" on="0"/>
        <pt x="176" y="2753" on="0"/>
        <pt x="205" y="2753" on="1"/>
        <pt x="659" y="2740" on="1"/>
        <pt x="918" y="2753" on="1"/>
        <pt x="950" y="2753" on="0"/>
        <pt x="980" y="2730" on="0"/>
        <pt x="995" y="2691" on="1"/>
        <pt x="1855" y="545" on="1"/>
        <pt x="1872" y="504" on="0"/>
        <pt x="1890" y="487" on="0"/>
        <pt x="1896" y="496" on="1"/>
        <pt x="1906" y="509" on="0"/>
        <pt x="1921" y="549" on="1"/>
        <pt x="2724" y="2638" on="1"/>
        <pt x="2750" y="2706" on="0"/>
        <pt x="2783" y="2740" on="0"/>
        <pt x="2830" y="2740" on="1"/>
        <pt x="3027" y="2740" on="1"/>
        <pt x="3445" y="2753" on="1"/>
        <pt x="3486" y="2753" on="0"/>
        <pt x="3506" y="2721" on="0"/>
        <pt x="3506" y="2624" on="0"/>
        <pt x="3479" y="2605" on="0"/>
        <pt x="3428" y="2605" on="1"/>
        <pt x="3236" y="2605" on="1"/>
        <pt x="3215" y="2570" on="0"/>
        <pt x="3215" y="2290" on="1"/>
        <pt x="3215" y="1921" on="1"/>
        <pt x="3215" y="1349" on="0"/>
        <pt x="3254" y="123" on="0"/>
        <pt x="3277" y="123" on="1"/>
        <pt x="3490" y="123" on="1"/>
        <pt x="3527" y="123" on="0"/>
        <pt x="3555" y="96" on="0"/>
        <pt x="3555" y="9" on="0"/>
        <pt x="3533" y="-25" on="0"/>
        <pt x="3498" y="-25" on="1"/>
        <pt x="3060" y="-12" on="1"/>
        <pt x="2621" y="-25" on="1"/>
        <pt x="2579" y="-25" on="0"/>
        <pt x="2556" y="7" on="0"/>
        <pt x="2556" y="102" on="0"/>
        <pt x="2589" y="123" on="0"/>
        <pt x="2642" y="123" on="1"/>
        <pt x="2826" y="123" on="1"/>
        <pt x="2855" y="123" on="0"/>
        <pt x="2855" y="1466" on="0"/>
        <pt x="2834" y="2380" on="1"/>
        <pt x="2831" y="2463" on="0"/>
        <pt x="2822" y="2464" on="1"/>
        <pt x="2815" y="2464" on="0"/>
        <pt x="2784" y="2387" on="0"/>
        <pt x="2781" y="2380" on="1"/>
        <pt x="2023" y="442" on="1"/>
        <pt x="1977" y="330" on="0"/>
        <pt x="1833" y="122" on="0"/>
        <pt x="1803" y="61" on="1"/>
        <pt x="1753" y="-41" on="0"/>
        <pt x="1720" y="-41" on="1"/>
        <pt x="1693" y="-41" on="0"/>
        <pt x="1665" y="21" on="1"/>
        <pt x="1660" y="32" on="0"/>
        <pt x="1656" y="40" on="1"/>
        <pt x="1643" y="67" on="0"/>
        <pt x="1638" y="82" on="1"/>
        <pt x="684" y="2437" on="1"/>
        <pt x="652" y="2519" on="0"/>
        <pt x="634" y="2520" on="0"/>
        <pt x="627" y="2433" on="1"/>
        <pt x="594" y="1540" on="0"/>
        <pt x="594" y="123" on="0"/>
        <pt x="614" y="123" on="1"/>
        <pt x="897" y="123" on="1"/>
        <pt x="932" y="123" on="0"/>
        <pt x="954" y="95" on="0"/>
        <pt x="954" y="9" on="0"/>
        <pt x="932" y="-25" on="0"/>
        <pt x="897" y="-25" on="1"/>
      </contour>
    </TTGlyph>
    <TTGlyph name="M.c2" xMin="90" yMin="-20" xMax="2798" yMax="1663">
      <component glyphName="m.sc" x="0" y="0" flags="0x1004"/>
    </TTGlyph>
    <TTGlyph name="N" xMin="152" yMin="-86" xMax="3183" yMax="2753">
      <contour>
        <pt x="557" y="-12" on="1"/>
        <pt x="213" y="-25" on="1"/>
        <pt x="172" y="-25" on="0"/>
        <pt x="152" y="6" on="0"/>
        <pt x="152" y="103" on="0"/>
        <pt x="178" y="123" on="0"/>
        <pt x="229" y="123" on="1"/>
        <pt x="418" y="123" on="1"/>
        <pt x="445" y="123" on="0"/>
        <pt x="454" y="480" on="0"/>
        <pt x="461" y="718" on="1"/>
        <pt x="487" y="1602" on="0"/>
        <pt x="487" y="2605" on="1"/>
        <pt x="221" y="2605" on="1"/>
        <pt x="186" y="2605" on="0"/>
        <pt x="164" y="2633" on="0"/>
        <pt x="164" y="2719" on="0"/>
        <pt x="186" y="2753" on="0"/>
        <pt x="221" y="2753" on="1"/>
        <pt x="221" y="2753" on="0"/>
        <pt x="680" y="2740" on="1"/>
        <pt x="905" y="2753" on="1"/>
        <pt x="923" y="2753" on="0"/>
        <pt x="939" y="2748" on="0"/>
        <pt x="947" y="2746" on="0"/>
        <pt x="957" y="2738" on="0"/>
        <pt x="963" y="2734" on="0"/>
        <pt x="974" y="2722" on="0"/>
        <pt x="978" y="2716" on="0"/>
        <pt x="992" y="2699" on="0"/>
        <pt x="995" y="2695" on="1"/>
        <pt x="2658" y="651" on="1"/>
        <pt x="2706" y="591" on="0"/>
        <pt x="2716" y="601" on="1"/>
        <pt x="2728" y="613" on="0"/>
        <pt x="2728" y="676" on="1"/>
        <pt x="2728" y="848" on="1"/>
        <pt x="2720" y="2388" on="1"/>
        <pt x="2720" y="2605" on="0"/>
        <pt x="2716" y="2605" on="1"/>
        <pt x="2335" y="2605" on="1"/>
        <pt x="2301" y="2605" on="0"/>
        <pt x="2286" y="2630" on="0"/>
        <pt x="2286" y="2694" on="0"/>
        <pt x="2287" y="2713" on="0"/>
        <pt x="2291" y="2738" on="0"/>
        <pt x="2296" y="2742" on="1"/>
        <pt x="2309" y="2753" on="0"/>
        <pt x="2335" y="2753" on="1"/>
        <pt x="2777" y="2740" on="1"/>
        <pt x="3125" y="2753" on="1"/>
        <pt x="3166" y="2753" on="0"/>
        <pt x="3183" y="2722" on="0"/>
        <pt x="3183" y="2625" on="0"/>
        <pt x="3153" y="2605" on="0"/>
        <pt x="3101" y="2605" on="1"/>
        <pt x="2916" y="2605" on="1"/>
        <pt x="2900" y="2605" on="0"/>
        <pt x="2898" y="2096" on="0"/>
        <pt x="2872" y="940" on="0"/>
        <pt x="2847" y="23" on="0"/>
        <pt x="2847" y="16" on="1"/>
        <pt x="2847" y="-86" on="0"/>
        <pt x="2793" y="-86" on="1"/>
        <pt x="2767" y="-86" on="0"/>
        <pt x="2717" y="-22" on="0"/>
        <pt x="2712" y="-16" on="1"/>
        <pt x="696" y="2433" on="0"/>
        <pt x="654" y="2482" on="0"/>
        <pt x="646" y="2478" on="1"/>
        <pt x="635" y="2471" on="0"/>
        <pt x="635" y="1933" on="1"/>
        <pt x="631" y="528" on="1"/>
        <pt x="631" y="123" on="0"/>
        <pt x="647" y="123" on="1"/>
        <pt x="999" y="123" on="1"/>
        <pt x="1033" y="123" on="0"/>
        <pt x="1049" y="98" on="0"/>
        <pt x="1049" y="21" on="0"/>
        <pt x="1047" y="7" on="1"/>
        <pt x="1042" y="-25" on="0"/>
        <pt x="999" y="-25" on="1"/>
      </contour>
    </TTGlyph>
    <TTGlyph name="N.c2" xMin="90" yMin="-66" xMax="2241" yMax="1663">
      <component glyphName="n.sc" x="0" y="0" flags="0x1004"/>
    </TTGlyph>
    <TTGlyph name="Nacute" xMin="152" yMin="-86" xMax="3183" yMax="3482">
      <component glyphName="acutecomb.cap" x="2544" y="1147" flags="0x1004"/>
      <component glyphName="N" x="0" y="0" flags="0x1004"/>
    </TTGlyph>
    <TTGlyph name="Nacute.c2" xMin="90" yMin="-66" xMax="2241" yMax="2519">
      <component glyphName="nacute.sc" x="0" y="0" flags="0x1004"/>
    </TTGlyph>
    <TTGlyph name="Ncaron" xMin="152" yMin="-86" xMax="3183" yMax="3449">
      <component glyphName="uni030C.cap" x="2544" y="1147" flags="0x1004"/>
      <component glyphName="N" x="0" y="0" flags="0x1004"/>
    </TTGlyph>
    <TTGlyph name="Ncaron.c2" xMin="90" yMin="-66" xMax="2241" yMax="2466">
      <component glyphName="ncaron.sc" x="0" y="0" flags="0x1004"/>
    </TTGlyph>
    <TTGlyph name="Ncommaaccent" xMin="152" yMin="-1004" xMax="3183" yMax="2753">
      <component glyphName="uni0326" x="2515" y="0" flags="0x1004"/>
      <component glyphName="N" x="0" y="0" flags="0x1004"/>
    </TTGlyph>
    <TTGlyph name="Ncommaaccent.c2" xMin="90" yMin="-1004" xMax="2241" yMax="1663">
      <component glyphName="ncommaaccent.sc" x="0" y="0" flags="0x1004"/>
    </TTGlyph>
    <TTGlyph name="Ntilde" xMin="152" yMin="-86" xMax="3183" yMax="3424">
      <component glyphName="tildecomb.cap" x="2544" y="1147" flags="0x1004"/>
      <component glyphName="N" x="0" y="0" flags="0x1004"/>
    </TTGlyph>
    <TTGlyph name="Ntilde.c2" xMin="90" yMin="-66" xMax="2241" yMax="2400">
      <component glyphName="ntilde.sc" x="0" y="0" flags="0x1004"/>
    </TTGlyph>
    <TTGlyph name="O" xMin="172" yMin="-57" xMax="2908" yMax="2777">
      <contour>
        <pt x="279" y="704" on="0"/>
        <pt x="172" y="1087" on="0"/>
        <pt x="172" y="1522" on="0"/>
        <pt x="275" y="1922" on="0"/>
        <pt x="459" y="2243" on="0"/>
        <pt x="719" y="2506" on="0"/>
        <pt x="874" y="2594" on="1"/>
        <pt x="1196" y="2777" on="0"/>
        <pt x="1577" y="2777" on="1"/>
        <pt x="2172" y="2777" on="0"/>
        <pt x="2550" y="2352" on="1"/>
        <pt x="2908" y="1947" on="0"/>
        <pt x="2908" y="1327" on="1"/>
        <pt x="2908" y="1021" on="0"/>
        <pt x="2701" y="504" on="0"/>
        <pt x="2335" y="144" on="0"/>
        <pt x="1818" y="-57" on="0"/>
        <pt x="1350" y="-57" on="0"/>
        <pt x="1025" y="23" on="0"/>
        <pt x="725" y="174" on="0"/>
        <pt x="469" y="409" on="0"/>
      </contour>
      <contour>
        <pt x="582" y="1396" on="1"/>
        <pt x="582" y="1194" on="0"/>
        <pt x="664" y="793" on="0"/>
        <pt x="826" y="462" on="0"/>
        <pt x="938" y="340" on="1"/>
        <pt x="1173" y="82" on="0"/>
        <pt x="1520" y="82" on="1"/>
        <pt x="1982" y="82" on="0"/>
        <pt x="2262" y="488" on="1"/>
        <pt x="2507" y="842" on="0"/>
        <pt x="2507" y="1364" on="1"/>
        <pt x="2507" y="1680" on="0"/>
        <pt x="2401" y="1971" on="1"/>
        <pt x="2296" y="2260" on="0"/>
        <pt x="2079" y="2446" on="1"/>
        <pt x="1855" y="2638" on="0"/>
        <pt x="1536" y="2638" on="1"/>
        <pt x="1037" y="2638" on="0"/>
        <pt x="752" y="2114" on="1"/>
        <pt x="582" y="1801" on="0"/>
      </contour>
    </TTGlyph>
    <TTGlyph name="O.c2" xMin="111" yMin="-57" xMax="1937" yMax="1708">
      <component glyphName="o.sc" x="0" y="0" flags="0x1004"/>
    </TTGlyph>
    <TTGlyph name="OE" xMin="172" yMin="-57" xMax="3949" yMax="2839">
      <contour>
        <pt x="3854" y="-25" on="1"/>
        <pt x="2318" y="-12" on="1"/>
        <pt x="2136" y="-12" on="0"/>
        <pt x="1684" y="-57" on="0"/>
        <pt x="1350" y="-57" on="0"/>
        <pt x="1025" y="23" on="0"/>
        <pt x="725" y="174" on="0"/>
        <pt x="469" y="409" on="0"/>
        <pt x="374" y="556" on="1"/>
        <pt x="172" y="870" on="0"/>
        <pt x="172" y="1303" on="1"/>
        <pt x="172" y="1953" on="0"/>
        <pt x="589" y="2374" on="1"/>
        <pt x="845" y="2633" on="0"/>
        <pt x="1208" y="2730" on="1"/>
        <pt x="1388" y="2777" on="0"/>
        <pt x="1756" y="2777" on="0"/>
        <pt x="2027" y="2750" on="0"/>
        <pt x="2212" y="2724" on="0"/>
        <pt x="2286" y="2724" on="1"/>
        <pt x="3318" y="2736" on="1"/>
        <pt x="3526" y="2736" on="0"/>
        <pt x="3546" y="2742" on="1"/>
        <pt x="3567" y="2748" on="0"/>
        <pt x="3567" y="2769" on="1"/>
        <pt x="3568" y="2774" on="0"/>
        <pt x="3572" y="2800" on="0"/>
        <pt x="3575" y="2813" on="0"/>
        <pt x="3582" y="2824" on="1"/>
        <pt x="3591" y="2839" on="0"/>
        <pt x="3680" y="2839" on="0"/>
        <pt x="3715" y="2818" on="0"/>
        <pt x="3715" y="2781" on="1"/>
        <pt x="3699" y="2241" on="1"/>
        <pt x="3699" y="2212" on="0"/>
        <pt x="3667" y="2195" on="0"/>
        <pt x="3621" y="2195" on="1"/>
        <pt x="3547" y="2195" on="0"/>
        <pt x="3547" y="2257" on="1"/>
        <pt x="3559" y="2572" on="1"/>
        <pt x="3559" y="2583" on="0"/>
        <pt x="2778" y="2601" on="0"/>
        <pt x="2466" y="2601" on="1"/>
        <pt x="2441" y="2601" on="0"/>
        <pt x="2441" y="1917" on="0"/>
        <pt x="2449" y="1469" on="0"/>
        <pt x="2460" y="1454" on="0"/>
        <pt x="2486" y="1454" on="1"/>
        <pt x="3170" y="1454" on="1"/>
        <pt x="3383" y="1454" on="0"/>
        <pt x="3383" y="1507" on="1"/>
        <pt x="3383" y="1720" on="1"/>
        <pt x="3383" y="1761" on="0"/>
        <pt x="3535" y="1761" on="0"/>
        <pt x="3535" y="1724" on="1"/>
        <pt x="3527" y="1397" on="1"/>
        <pt x="3535" y="1049" on="1"/>
        <pt x="3535" y="1012" on="0"/>
        <pt x="3383" y="1012" on="0"/>
        <pt x="3383" y="1053" on="1"/>
        <pt x="3383" y="1257" on="1"/>
        <pt x="3383" y="1319" on="0"/>
        <pt x="3170" y="1319" on="1"/>
        <pt x="2824" y="1319" on="0"/>
        <pt x="2474" y="1319" on="0"/>
        <pt x="2462" y="1318" on="0"/>
        <pt x="2459" y="1314" on="0"/>
        <pt x="2452" y="1307" on="0"/>
        <pt x="2451" y="1296" on="0"/>
        <pt x="2449" y="1281" on="0"/>
        <pt x="2474" y="152" on="0"/>
        <pt x="2494" y="152" on="1"/>
        <pt x="3748" y="164" on="1"/>
        <pt x="3769" y="164" on="0"/>
        <pt x="3779" y="188" on="0"/>
        <pt x="3789" y="300" on="0"/>
        <pt x="3797" y="610" on="1"/>
        <pt x="3797" y="647" on="0"/>
        <pt x="3949" y="647" on="0"/>
        <pt x="3949" y="606" on="1"/>
        <pt x="3936" y="33" on="1"/>
        <pt x="3936" y="-25" on="0"/>
      </contour>
      <contour>
        <pt x="2101" y="811" on="1"/>
        <pt x="2085" y="2015" on="1"/>
        <pt x="2085" y="2499" on="1"/>
        <pt x="2085" y="2577" on="0"/>
        <pt x="1806" y="2638" on="0"/>
        <pt x="1407" y="2638" on="0"/>
        <pt x="1145" y="2544" on="0"/>
        <pt x="935" y="2377" on="0"/>
        <pt x="762" y="2147" on="0"/>
        <pt x="704" y="2012" on="1"/>
        <pt x="582" y="1730" on="0"/>
        <pt x="582" y="1120" on="0"/>
        <pt x="728" y="616" on="0"/>
        <pt x="1008" y="245" on="0"/>
        <pt x="1200" y="156" on="1"/>
        <pt x="1362" y="78" on="0"/>
        <pt x="1741" y="78" on="1"/>
        <pt x="1940" y="78" on="0"/>
        <pt x="2052" y="136" on="1"/>
        <pt x="2105" y="163" on="0"/>
        <pt x="2105" y="184" on="1"/>
      </contour>
    </TTGlyph>
    <TTGlyph name="OE.c2" xMin="111" yMin="-61" xMax="2781" yMax="1782">
      <component glyphName="oe.sc" x="0" y="0" flags="0x1004"/>
    </TTGlyph>
    <TTGlyph name="Oacute" xMin="172" yMin="-57" xMax="2908" yMax="3482">
      <component glyphName="acutecomb.cap" x="2355" y="1147" flags="0x1004"/>
      <component glyphName="O" x="0" y="0" flags="0x1004"/>
    </TTGlyph>
    <TTGlyph name="Oacute.c2" xMin="111" yMin="-57" xMax="1937" yMax="2519">
      <component glyphName="oacute.sc" x="0" y="0" flags="0x1004"/>
    </TTGlyph>
    <TTGlyph name="Obreve" xMin="172" yMin="-57" xMax="2908" yMax="3445">
      <component glyphName="uni0306.cap" x="2355" y="1147" flags="0x1004"/>
      <component glyphName="O" x="0" y="0" flags="0x1004"/>
    </TTGlyph>
    <TTGlyph name="Obreve.c2" xMin="111" yMin="-57" xMax="1937" yMax="2413">
      <component glyphName="obreve.sc" x="0" y="0" flags="0x1004"/>
    </TTGlyph>
    <TTGlyph name="Ocircumflex" xMin="172" yMin="-57" xMax="2908" yMax="3449">
      <component glyphName="uni0302.cap" x="2355" y="1147" flags="0x1004"/>
      <component glyphName="O" x="0" y="0" flags="0x1004"/>
    </TTGlyph>
    <TTGlyph name="Ocircumflex.c2" xMin="111" yMin="-57" xMax="1937" yMax="2466">
      <component glyphName="ocircumflex.sc" x="0" y="0" flags="0x1004"/>
    </TTGlyph>
    <TTGlyph name="Odieresis" xMin="172" yMin="-57" xMax="2908" yMax="3445">
      <component glyphName="uni0308.cap" x="2355" y="1147" flags="0x1004"/>
      <component glyphName="O" x="0" y="0" flags="0x1004"/>
    </TTGlyph>
    <TTGlyph name="Odieresis.c2" xMin="111" yMin="-57" xMax="1937" yMax="2421">
      <component glyphName="odieresis.sc" x="0" y="0" flags="0x1004"/>
    </TTGlyph>
    <TTGlyph name="Ograve" xMin="172" yMin="-57" xMax="2908" yMax="3482">
      <component glyphName="gravecomb.cap" x="2355" y="1147" flags="0x1004"/>
      <component glyphName="O" x="0" y="0" flags="0x1004"/>
    </TTGlyph>
    <TTGlyph name="Ograve.c2" xMin="111" yMin="-57" xMax="1937" yMax="2519">
      <component glyphName="ograve.sc" x="0" y="0" flags="0x1004"/>
    </TTGlyph>
    <TTGlyph name="Ohungarumlaut" xMin="172" yMin="-57" xMax="2908" yMax="3482">
      <component glyphName="uni030B.cap" x="2355" y="1147" flags="0x1004"/>
      <component glyphName="O" x="0" y="0" flags="0x1004"/>
    </TTGlyph>
    <TTGlyph name="Ohungarumlaut.c2" xMin="111" yMin="-57" xMax="1937" yMax="2519">
      <component glyphName="ohungarumlaut.sc" x="0" y="0" flags="0x1004"/>
    </TTGlyph>
    <TTGlyph name="Omacron" xMin="172" yMin="-57" xMax="2908" yMax="3367">
      <component glyphName="uni0304.cap" x="2355" y="1147" flags="0x1004"/>
      <component glyphName="O" x="0" y="0" flags="0x1004"/>
    </TTGlyph>
    <TTGlyph name="Omacron.c2" xMin="111" yMin="-57" xMax="1937" yMax="2261">
      <component glyphName="omacron.sc" x="0" y="0" flags="0x1004"/>
    </TTGlyph>
    <TTGlyph name="Oslash" xMin="172" yMin="-236" xMax="2908" yMax="2974">
      <contour>
        <pt x="2380" y="2970" on="1"/>
        <pt x="2396" y="2974" on="1"/>
        <pt x="2417" y="2974" on="0"/>
        <pt x="2445" y="2953" on="1"/>
        <pt x="2495" y="2928" on="0"/>
        <pt x="2482" y="2900" on="1"/>
        <pt x="2302" y="2597" on="1"/>
        <pt x="2287" y="2573" on="0"/>
        <pt x="2306" y="2564" on="1"/>
        <pt x="2592" y="2371" on="0"/>
        <pt x="2908" y="1720" on="0"/>
        <pt x="2908" y="1021" on="0"/>
        <pt x="2701" y="504" on="0"/>
        <pt x="2335" y="144" on="0"/>
        <pt x="1818" y="-57" on="0"/>
        <pt x="1178" y="-57" on="0"/>
        <pt x="889" y="90" on="1"/>
        <pt x="864" y="105" on="0"/>
        <pt x="856" y="90" on="1"/>
        <pt x="680" y="-209" on="1"/>
        <pt x="661" y="-238" on="0"/>
        <pt x="615" y="-234" on="0"/>
        <pt x="561" y="-193" on="0"/>
        <pt x="561" y="-172" on="1"/>
        <pt x="750" y="152" on="1"/>
        <pt x="759" y="165" on="0"/>
        <pt x="737" y="180" on="1"/>
        <pt x="475" y="357" on="0"/>
        <pt x="172" y="928" on="0"/>
        <pt x="172" y="1303" on="1"/>
        <pt x="172" y="1953" on="0"/>
        <pt x="589" y="2374" on="1"/>
        <pt x="845" y="2633" on="0"/>
        <pt x="1208" y="2730" on="1"/>
        <pt x="1388" y="2777" on="0"/>
        <pt x="1577" y="2777" on="1"/>
        <pt x="1903" y="2777" on="0"/>
        <pt x="2163" y="2650" on="1"/>
        <pt x="2166" y="2649" on="0"/>
        <pt x="2173" y="2645" on="0"/>
        <pt x="2177" y="2643" on="0"/>
        <pt x="2182" y="2641" on="0"/>
        <pt x="2185" y="2640" on="0"/>
        <pt x="2188" y="2640" on="0"/>
        <pt x="2190" y="2642" on="0"/>
        <pt x="2193" y="2644" on="0"/>
        <pt x="2195" y="2649" on="0"/>
        <pt x="2198" y="2654" on="0"/>
        <pt x="2200" y="2658" on="1"/>
        <pt x="2376" y="2966" on="1"/>
      </contour>
      <contour>
        <pt x="582" y="1363" on="1"/>
        <pt x="582" y="1127" on="0"/>
        <pt x="724" y="619" on="0"/>
        <pt x="856" y="438" on="1"/>
        <pt x="874" y="414" on="0"/>
        <pt x="896" y="414" on="0"/>
        <pt x="909" y="434" on="1"/>
        <pt x="2068" y="2433" on="1"/>
        <pt x="2086" y="2451" on="0"/>
        <pt x="2056" y="2470" on="1"/>
        <pt x="1840" y="2638" on="0"/>
        <pt x="1536" y="2638" on="1"/>
        <pt x="1037" y="2638" on="0"/>
        <pt x="752" y="2114" on="1"/>
        <pt x="582" y="1801" on="0"/>
      </contour>
      <contour>
        <pt x="987" y="319" on="1"/>
        <pt x="983" y="315" on="0"/>
        <pt x="983" y="295" on="0"/>
        <pt x="991" y="287" on="1"/>
        <pt x="1221" y="82" on="0"/>
        <pt x="1520" y="82" on="1"/>
        <pt x="1982" y="82" on="0"/>
        <pt x="2262" y="488" on="1"/>
        <pt x="2507" y="842" on="0"/>
        <pt x="2507" y="1364" on="1"/>
        <pt x="2507" y="1644" on="0"/>
        <pt x="2341" y="2172" on="0"/>
        <pt x="2183" y="2351" on="1"/>
        <pt x="2173" y="2361" on="0"/>
        <pt x="2163" y="2351" on="1"/>
      </contour>
    </TTGlyph>
    <TTGlyph name="Oslash.c2" xMin="111" yMin="-352" xMax="1937" yMax="1995">
      <component glyphName="oslash.sc" x="0" y="0" flags="0x1004"/>
    </TTGlyph>
    <TTGlyph name="Otilde" xMin="172" yMin="-57" xMax="2908" yMax="3424">
      <component glyphName="tildecomb.cap" x="2355" y="1147" flags="0x1004"/>
      <component glyphName="O" x="0" y="0" flags="0x1004"/>
    </TTGlyph>
    <TTGlyph name="Otilde.c2" xMin="111" yMin="-57" xMax="1937" yMax="2400">
      <component glyphName="otilde.sc" x="0" y="0" flags="0x1004"/>
    </TTGlyph>
    <TTGlyph name="P" xMin="152" yMin="-25" xMax="2241" yMax="2744">
      <contour>
        <pt x="700" y="-12" on="1"/>
        <pt x="254" y="-25" on="1"/>
        <pt x="213" y="-25" on="0"/>
        <pt x="193" y="6" on="0"/>
        <pt x="193" y="102" on="0"/>
        <pt x="226" y="123" on="0"/>
        <pt x="279" y="123" on="1"/>
        <pt x="475" y="123" on="1"/>
        <pt x="512" y="123" on="0"/>
        <pt x="512" y="1942" on="1"/>
        <pt x="512" y="2154" on="1"/>
        <pt x="512" y="2585" on="0"/>
        <pt x="496" y="2585" on="1"/>
        <pt x="225" y="2576" on="1"/>
        <pt x="179" y="2576" on="0"/>
        <pt x="152" y="2606" on="0"/>
        <pt x="152" y="2707" on="0"/>
        <pt x="181" y="2732" on="0"/>
        <pt x="225" y="2732" on="1"/>
        <pt x="709" y="2724" on="1"/>
        <pt x="1245" y="2744" on="1"/>
        <pt x="1785" y="2744" on="0"/>
        <pt x="2052" y="2459" on="1"/>
        <pt x="2241" y="2257" on="0"/>
        <pt x="2241" y="1929" on="1"/>
        <pt x="2241" y="1471" on="0"/>
        <pt x="1849" y="1288" on="1"/>
        <pt x="1610" y="1176" on="0"/>
        <pt x="1249" y="1176" on="1"/>
        <pt x="893" y="1188" on="1"/>
        <pt x="873" y="1188" on="0"/>
        <pt x="864" y="1176" on="0"/>
        <pt x="864" y="1155" on="1"/>
        <pt x="864" y="885" on="1"/>
        <pt x="864" y="123" on="0"/>
        <pt x="881" y="123" on="1"/>
        <pt x="1171" y="123" on="1"/>
        <pt x="1207" y="123" on="0"/>
        <pt x="1229" y="95" on="0"/>
        <pt x="1229" y="9" on="0"/>
        <pt x="1207" y="-25" on="0"/>
        <pt x="1171" y="-25" on="1"/>
      </contour>
      <contour>
        <pt x="868" y="1331" on="1"/>
        <pt x="868" y="1290" on="0"/>
        <pt x="1156" y="1290" on="0"/>
        <pt x="1402" y="1335" on="0"/>
        <pt x="1621" y="1440" on="0"/>
        <pt x="1698" y="1520" on="1"/>
        <pt x="1864" y="1691" on="0"/>
        <pt x="1864" y="1991" on="1"/>
        <pt x="1864" y="2181" on="0"/>
        <pt x="1752" y="2324" on="1"/>
        <pt x="1523" y="2613" on="0"/>
        <pt x="1012" y="2613" on="1"/>
        <pt x="922" y="2613" on="0"/>
        <pt x="885" y="2609" on="1"/>
        <pt x="868" y="2603" on="0"/>
        <pt x="868" y="2400" on="1"/>
      </contour>
    </TTGlyph>
    <TTGlyph name="P.c2" xMin="90" yMin="-20" xMax="1716" yMax="1663">
      <component glyphName="p.sc" x="0" y="0" flags="0x1004"/>
    </TTGlyph>
    <TTGlyph name="Q" xMin="172" yMin="-778" xMax="3125" yMax="2777">
      <contour>
        <pt x="721" y="-254" on="1"/>
        <pt x="811" y="-258" on="1"/>
        <pt x="932" y="-258" on="0"/>
        <pt x="1022" y="-236" on="1"/>
        <pt x="1206" y="-190" on="0"/>
        <pt x="1548" y="-25" on="1"/>
        <pt x="1577" y="-11" on="0"/>
        <pt x="1577" y="-1" on="0"/>
        <pt x="1373" y="26" on="0"/>
        <pt x="1085" y="103" on="0"/>
        <pt x="809" y="226" on="0"/>
        <pt x="578" y="387" on="0"/>
        <pt x="383" y="608" on="0"/>
        <pt x="316" y="739" on="1"/>
        <pt x="172" y="1017" on="0"/>
        <pt x="172" y="1393" on="1"/>
        <pt x="172" y="2030" on="0"/>
        <pt x="605" y="2420" on="1"/>
        <pt x="862" y="2650" on="0"/>
        <pt x="1236" y="2736" on="1"/>
        <pt x="1416" y="2777" on="0"/>
        <pt x="1909" y="2777" on="0"/>
        <pt x="2439" y="2569" on="0"/>
        <pt x="2817" y="2205" on="0"/>
        <pt x="3035" y="1689" on="0"/>
        <pt x="3035" y="1148" on="0"/>
        <pt x="2886" y="705" on="0"/>
        <pt x="2753" y="532" on="1"/>
        <pt x="2475" y="173" on="0"/>
        <pt x="2028" y="45" on="1"/>
        <pt x="1864" y="-4" on="0"/>
        <pt x="1339" y="-244" on="0"/>
        <pt x="1325" y="-250" on="0"/>
        <pt x="1318" y="-254" on="0"/>
        <pt x="1308" y="-259" on="0"/>
        <pt x="1305" y="-262" on="0"/>
        <pt x="1302" y="-266" on="0"/>
        <pt x="1307" y="-269" on="0"/>
        <pt x="1315" y="-272" on="0"/>
        <pt x="1332" y="-273" on="0"/>
        <pt x="1350" y="-274" on="0"/>
        <pt x="1508" y="-283" on="0"/>
        <pt x="1584" y="-289" on="0"/>
        <pt x="1654" y="-295" on="1"/>
        <pt x="1791" y="-307" on="0"/>
        <pt x="1986" y="-350" on="0"/>
        <pt x="2146" y="-396" on="1"/>
        <pt x="2495" y="-496" on="0"/>
        <pt x="2713" y="-496" on="0"/>
        <pt x="2882" y="-456" on="0"/>
        <pt x="2974" y="-409" on="0"/>
        <pt x="3046" y="-369" on="0"/>
        <pt x="3069" y="-369" on="0"/>
        <pt x="3125" y="-433" on="0"/>
        <pt x="3125" y="-472" on="0"/>
        <pt x="3049" y="-551" on="0"/>
        <pt x="2913" y="-642" on="0"/>
        <pt x="2832" y="-683" on="1"/>
        <pt x="2644" y="-778" on="0"/>
        <pt x="2313" y="-778" on="0"/>
        <pt x="1942" y="-708" on="0"/>
        <pt x="1620" y="-608" on="0"/>
        <pt x="1475" y="-558" on="1"/>
        <pt x="1127" y="-438" on="0"/>
        <pt x="984" y="-438" on="0"/>
        <pt x="779" y="-512" on="0"/>
        <pt x="719" y="-512" on="0"/>
        <pt x="606" y="-371" on="0"/>
        <pt x="606" y="-285" on="0"/>
        <pt x="663" y="-254" on="0"/>
      </contour>
      <contour>
        <pt x="553" y="1414" on="1"/>
        <pt x="553" y="1184" on="0"/>
        <pt x="646" y="930" on="1"/>
        <pt x="793" y="532" on="0"/>
        <pt x="1068" y="354" on="1"/>
        <pt x="1332" y="181" on="0"/>
        <pt x="1674" y="103" on="1"/>
        <pt x="1748" y="86" on="0"/>
        <pt x="1799" y="86" on="0"/>
        <pt x="1877" y="113" on="0"/>
        <pt x="1985" y="172" on="0"/>
        <pt x="2108" y="256" on="0"/>
        <pt x="2239" y="380" on="0"/>
        <pt x="2364" y="528" on="0"/>
        <pt x="2476" y="724" on="0"/>
        <pt x="2518" y="832" on="1"/>
        <pt x="2609" y="1068" on="0"/>
        <pt x="2609" y="1516" on="0"/>
        <pt x="2545" y="1826" on="0"/>
        <pt x="2425" y="2110" on="0"/>
        <pt x="2242" y="2355" on="0"/>
        <pt x="2129" y="2445" on="1"/>
        <pt x="1887" y="2638" on="0"/>
        <pt x="1565" y="2638" on="1"/>
        <pt x="1053" y="2638" on="0"/>
        <pt x="743" y="2143" on="1"/>
        <pt x="553" y="1839" on="0"/>
      </contour>
    </TTGlyph>
    <TTGlyph name="Q.c2" xMin="111" yMin="-520" xMax="1974" yMax="1708">
      <component glyphName="q.sc" x="0" y="0" flags="0x1004"/>
    </TTGlyph>
    <TTGlyph name="R" xMin="152" yMin="-25" xMax="2638" yMax="2748">
      <contour>
        <pt x="508" y="1184" on="1"/>
        <pt x="508" y="2585" on="0"/>
        <pt x="467" y="2585" on="1"/>
        <pt x="229" y="2576" on="1"/>
        <pt x="186" y="2576" on="0"/>
        <pt x="152" y="2612" on="0"/>
        <pt x="152" y="2706" on="0"/>
        <pt x="188" y="2732" on="0"/>
        <pt x="233" y="2732" on="1"/>
        <pt x="709" y="2724" on="1"/>
        <pt x="1303" y="2748" on="1"/>
        <pt x="2041" y="2748" on="0"/>
        <pt x="2179" y="2264" on="1"/>
        <pt x="2208" y="2162" on="0"/>
        <pt x="2208" y="1961" on="0"/>
        <pt x="2163" y="1810" on="0"/>
        <pt x="2093" y="1691" on="0"/>
        <pt x="1992" y="1580" on="0"/>
        <pt x="1894" y="1499" on="0"/>
        <pt x="1836" y="1462" on="1"/>
        <pt x="1748" y="1405" on="0"/>
        <pt x="1624" y="1347" on="0"/>
        <pt x="1622" y="1341" on="0"/>
        <pt x="1717" y="1310" on="0"/>
        <pt x="1828" y="1264" on="0"/>
        <pt x="1971" y="1182" on="0"/>
        <pt x="2085" y="1085" on="0"/>
        <pt x="2202" y="936" on="0"/>
        <pt x="2242" y="848" on="1"/>
        <pt x="2333" y="649" on="0"/>
        <pt x="2343" y="377" on="1"/>
        <pt x="2351" y="146" on="0"/>
        <pt x="2376" y="123" on="0"/>
        <pt x="2388" y="123" on="1"/>
        <pt x="2576" y="123" on="1"/>
        <pt x="2611" y="123" on="0"/>
        <pt x="2638" y="82" on="0"/>
        <pt x="2638" y="20" on="1"/>
        <pt x="2638" y="-25" on="0"/>
        <pt x="2572" y="-25" on="1"/>
        <pt x="2011" y="-12" on="1"/>
        <pt x="1966" y="-12" on="0"/>
        <pt x="1966" y="33" on="1"/>
        <pt x="1966" y="270" on="1"/>
        <pt x="1966" y="685" on="0"/>
        <pt x="1898" y="866" on="1"/>
        <pt x="1825" y="1063" on="0"/>
        <pt x="1694" y="1150" on="1"/>
        <pt x="1530" y="1260" on="0"/>
        <pt x="1270" y="1266" on="1"/>
        <pt x="893" y="1270" on="1"/>
        <pt x="860" y="1270" on="0"/>
        <pt x="860" y="1237" on="1"/>
        <pt x="860" y="1017" on="0"/>
        <pt x="891" y="123" on="0"/>
        <pt x="905" y="123" on="1"/>
        <pt x="1143" y="123" on="1"/>
        <pt x="1178" y="123" on="0"/>
        <pt x="1200" y="95" on="0"/>
        <pt x="1200" y="9" on="0"/>
        <pt x="1178" y="-25" on="0"/>
        <pt x="1143" y="-25" on="1"/>
        <pt x="700" y="-12" on="1"/>
        <pt x="299" y="-25" on="1"/>
        <pt x="256" y="-25" on="0"/>
        <pt x="229" y="8" on="0"/>
        <pt x="229" y="102" on="0"/>
        <pt x="262" y="123" on="0"/>
        <pt x="315" y="123" on="1"/>
        <pt x="492" y="123" on="1"/>
        <pt x="508" y="123" on="0"/>
        <pt x="508" y="639" on="1"/>
      </contour>
      <contour>
        <pt x="881" y="2609" on="1"/>
        <pt x="860" y="2609" on="0"/>
        <pt x="860" y="2400" on="1"/>
        <pt x="860" y="1405" on="1"/>
        <pt x="860" y="1384" on="0"/>
        <pt x="913" y="1384" on="1"/>
        <pt x="1438" y="1376" on="1"/>
        <pt x="1471" y="1376" on="0"/>
        <pt x="1483" y="1380" on="1"/>
        <pt x="1835" y="1544" on="0"/>
        <pt x="1835" y="1982" on="1"/>
        <pt x="1835" y="2323" on="0"/>
        <pt x="1517" y="2508" on="1"/>
        <pt x="1328" y="2617" on="0"/>
        <pt x="942" y="2617" on="0"/>
      </contour>
    </TTGlyph>
    <TTGlyph name="R.c2" xMin="70" yMin="-20" xMax="1901" yMax="1663">
      <component glyphName="r.sc" x="0" y="0" flags="0x1004"/>
    </TTGlyph>
    <TTGlyph name="Racute" xMin="152" yMin="-25" xMax="2638" yMax="3482">
      <component glyphName="acutecomb.cap" x="2036" y="1147" flags="0x1004"/>
      <component glyphName="R" x="0" y="0" flags="0x1004"/>
    </TTGlyph>
    <TTGlyph name="Racute.c2" xMin="70" yMin="-20" xMax="1901" yMax="2519">
      <component glyphName="racute.sc" x="0" y="0" flags="0x1004"/>
    </TTGlyph>
    <TTGlyph name="Rcaron" xMin="152" yMin="-25" xMax="2638" yMax="3449">
      <component glyphName="uni030C.cap" x="2036" y="1147" flags="0x1004"/>
      <component glyphName="R" x="0" y="0" flags="0x1004"/>
    </TTGlyph>
    <TTGlyph name="Rcaron.c2" xMin="70" yMin="-20" xMax="1901" yMax="2466">
      <component glyphName="rcaron.sc" x="0" y="0" flags="0x1004"/>
    </TTGlyph>
    <TTGlyph name="Rcommaaccent" xMin="152" yMin="-1004" xMax="2638" yMax="2748">
      <component glyphName="uni0326" x="2302" y="0" flags="0x1004"/>
      <component glyphName="R" x="0" y="0" flags="0x1004"/>
    </TTGlyph>
    <TTGlyph name="Rcommaaccent.c2" xMin="70" yMin="-1004" xMax="1901" yMax="1663">
      <component glyphName="rcommaaccent.sc" x="0" y="0" flags="0x1004"/>
    </TTGlyph>
    <TTGlyph name="S" xMin="213" yMin="-74" xMax="2032" yMax="2785">
      <contour>
        <pt x="1716" y="1995" on="1"/>
        <pt x="1729" y="2257" on="1"/>
        <pt x="1729" y="2319" on="0"/>
        <pt x="1534" y="2487" on="0"/>
        <pt x="1458" y="2535" on="1"/>
        <pt x="1282" y="2646" on="0"/>
        <pt x="881" y="2646" on="0"/>
        <pt x="578" y="2352" on="0"/>
        <pt x="578" y="1903" on="0"/>
        <pt x="770" y="1759" on="1"/>
        <pt x="894" y="1666" on="0"/>
        <pt x="1493" y="1444" on="0"/>
        <pt x="1612" y="1382" on="1"/>
        <pt x="1866" y="1247" on="0"/>
        <pt x="1963" y="1051" on="1"/>
        <pt x="2032" y="911" on="0"/>
        <pt x="2032" y="579" on="0"/>
        <pt x="1927" y="317" on="0"/>
        <pt x="1747" y="128" on="0"/>
        <pt x="1628" y="60" on="1"/>
        <pt x="1391" y="-74" on="0"/>
        <pt x="1102" y="-74" on="1"/>
        <pt x="740" y="-74" on="0"/>
        <pt x="442" y="30" on="1"/>
        <pt x="281" y="86" on="0"/>
        <pt x="276" y="173" on="0"/>
        <pt x="264" y="324" on="1"/>
        <pt x="238" y="672" on="0"/>
        <pt x="238" y="742" on="0"/>
        <pt x="240" y="758" on="0"/>
        <pt x="246" y="768" on="1"/>
        <pt x="255" y="786" on="0"/>
        <pt x="299" y="786" on="1"/>
        <pt x="319" y="786" on="1"/>
        <pt x="361" y="786" on="0"/>
        <pt x="395" y="757" on="0"/>
        <pt x="397" y="718" on="1"/>
        <pt x="422" y="333" on="1"/>
        <pt x="426" y="282" on="0"/>
        <pt x="683" y="164" on="0"/>
        <pt x="1020" y="86" on="0"/>
        <pt x="1280" y="86" on="0"/>
        <pt x="1524" y="211" on="0"/>
        <pt x="1671" y="435" on="0"/>
        <pt x="1671" y="665" on="0"/>
        <pt x="1596" y="825" on="0"/>
        <pt x="1488" y="935" on="0"/>
        <pt x="1394" y="988" on="1"/>
        <pt x="1264" y="1063" on="0"/>
        <pt x="937" y="1192" on="0"/>
        <pt x="847" y="1229" on="0"/>
        <pt x="684" y="1303" on="0"/>
        <pt x="594" y="1357" on="0"/>
        <pt x="459" y="1446" on="0"/>
        <pt x="383" y="1527" on="0"/>
        <pt x="292" y="1642" on="0"/>
        <pt x="269" y="1702" on="1"/>
        <pt x="213" y="1848" on="0"/>
        <pt x="213" y="2113" on="0"/>
        <pt x="283" y="2325" on="0"/>
        <pt x="405" y="2496" on="0"/>
        <pt x="574" y="2638" on="0"/>
        <pt x="672" y="2686" on="1"/>
        <pt x="879" y="2785" on="0"/>
        <pt x="1242" y="2785" on="0"/>
        <pt x="1506" y="2717" on="0"/>
        <pt x="1701" y="2580" on="0"/>
        <pt x="1724" y="2580" on="1"/>
        <pt x="1735" y="2580" on="0"/>
        <pt x="1744" y="2702" on="0"/>
        <pt x="1767" y="2724" on="0"/>
        <pt x="1875" y="2724" on="0"/>
        <pt x="1905" y="2702" on="0"/>
        <pt x="1905" y="2654" on="1"/>
        <pt x="1880" y="2003" on="1"/>
        <pt x="1880" y="1960" on="0"/>
        <pt x="1856" y="1933" on="0"/>
        <pt x="1752" y="1933" on="0"/>
        <pt x="1716" y="1961" on="0"/>
      </contour>
    </TTGlyph>
    <TTGlyph name="S.c2" xMin="152" yMin="-39" xMax="1401" yMax="1704">
      <component glyphName="s.sc" x="0" y="0" flags="0x1004"/>
    </TTGlyph>
    <TTGlyph name="Sacute" xMin="213" yMin="-74" xMax="2032" yMax="3482">
      <component glyphName="acutecomb.cap" x="1921" y="1147" flags="0x1004"/>
      <component glyphName="S" x="0" y="0" flags="0x1004"/>
    </TTGlyph>
    <TTGlyph name="Sacute.c2" xMin="152" yMin="-39" xMax="1401" yMax="2519">
      <component glyphName="sacute.sc" x="0" y="0" flags="0x1004"/>
    </TTGlyph>
    <TTGlyph name="Scaron" xMin="213" yMin="-74" xMax="2032" yMax="3449">
      <component glyphName="uni030C.cap" x="1921" y="1147" flags="0x1004"/>
      <component glyphName="S" x="0" y="0" flags="0x1004"/>
    </TTGlyph>
    <TTGlyph name="Scaron.c2" xMin="152" yMin="-39" xMax="1401" yMax="2466">
      <component glyphName="scaron.sc" x="0" y="0" flags="0x1004"/>
    </TTGlyph>
    <TTGlyph name="Scedilla" xMin="213" yMin="-946" xMax="2032" yMax="2785">
      <contour>
        <pt x="1716" y="1995" on="1"/>
        <pt x="1729" y="2257" on="1"/>
        <pt x="1729" y="2319" on="0"/>
        <pt x="1534" y="2487" on="0"/>
        <pt x="1458" y="2535" on="1"/>
        <pt x="1282" y="2646" on="0"/>
        <pt x="883" y="2646" on="0"/>
        <pt x="578" y="2351" on="0"/>
        <pt x="578" y="2130" on="1"/>
        <pt x="578" y="1853" on="0"/>
        <pt x="860" y="1700" on="1"/>
        <pt x="995" y="1628" on="0"/>
        <pt x="1344" y="1500" on="0"/>
        <pt x="1458" y="1455" on="0"/>
        <pt x="1657" y="1363" on="0"/>
        <pt x="1766" y="1285" on="0"/>
        <pt x="1907" y="1158" on="0"/>
        <pt x="1943" y="1090" on="1"/>
        <pt x="2032" y="924" on="0"/>
        <pt x="2032" y="584" on="0"/>
        <pt x="1935" y="331" on="0"/>
        <pt x="1769" y="146" on="0"/>
        <pt x="1658" y="77" on="1"/>
        <pt x="1442" y="-57" on="0"/>
        <pt x="1163" y="-74" on="1"/>
        <pt x="1090" y="-270" on="1"/>
        <pt x="1087" y="-282" on="0"/>
        <pt x="1093" y="-285" on="0"/>
        <pt x="1172" y="-266" on="0"/>
        <pt x="1311" y="-266" on="0"/>
        <pt x="1452" y="-319" on="0"/>
        <pt x="1495" y="-362" on="1"/>
        <pt x="1585" y="-450" on="0"/>
        <pt x="1585" y="-627" on="0"/>
        <pt x="1523" y="-764" on="0"/>
        <pt x="1468" y="-820" on="1"/>
        <pt x="1343" y="-946" on="0"/>
        <pt x="1139" y="-946" on="1"/>
        <pt x="1026" y="-946" on="0"/>
        <pt x="934" y="-912" on="1"/>
        <pt x="786" y="-858" on="0"/>
        <pt x="786" y="-803" on="1"/>
        <pt x="786" y="-762" on="0"/>
        <pt x="827" y="-762" on="1"/>
        <pt x="834" y="-762" on="0"/>
        <pt x="870" y="-777" on="1"/>
        <pt x="978" y="-823" on="0"/>
        <pt x="1096" y="-823" on="1"/>
        <pt x="1335" y="-823" on="0"/>
        <pt x="1335" y="-606" on="1"/>
        <pt x="1335" y="-434" on="0"/>
        <pt x="1122" y="-434" on="1"/>
        <pt x="1076" y="-434" on="0"/>
        <pt x="974" y="-471" on="0"/>
        <pt x="961" y="-471" on="0"/>
        <pt x="926" y="-447" on="0"/>
        <pt x="926" y="-428" on="0"/>
        <pt x="1065" y="-74" on="1"/>
        <pt x="718" y="-68" on="0"/>
        <pt x="433" y="34" on="1"/>
        <pt x="281" y="88" on="0"/>
        <pt x="279" y="127" on="1"/>
        <pt x="276" y="186" on="0"/>
        <pt x="266" y="328" on="1"/>
        <pt x="238" y="698" on="0"/>
        <pt x="238" y="748" on="0"/>
        <pt x="240" y="758" on="1"/>
        <pt x="245" y="786" on="0"/>
        <pt x="299" y="786" on="1"/>
        <pt x="319" y="786" on="1"/>
        <pt x="359" y="786" on="0"/>
        <pt x="394" y="756" on="0"/>
        <pt x="397" y="717" on="1"/>
        <pt x="422" y="332" on="1"/>
        <pt x="426" y="282" on="0"/>
        <pt x="683" y="163" on="0"/>
        <pt x="1019" y="86" on="0"/>
        <pt x="1281" y="86" on="0"/>
        <pt x="1525" y="212" on="0"/>
        <pt x="1671" y="435" on="0"/>
        <pt x="1671" y="638" on="0"/>
        <pt x="1631" y="761" on="0"/>
        <pt x="1575" y="853" on="0"/>
        <pt x="1466" y="944" on="0"/>
        <pt x="1376" y="1004" on="0"/>
        <pt x="1297" y="1042" on="1"/>
        <pt x="1210" y="1083" on="0"/>
        <pt x="912" y="1202" on="0"/>
        <pt x="796" y="1251" on="0"/>
        <pt x="594" y="1350" on="0"/>
        <pt x="483" y="1432" on="0"/>
        <pt x="340" y="1564" on="0"/>
        <pt x="304" y="1633" on="1"/>
        <pt x="213" y="1804" on="0"/>
        <pt x="213" y="2135" on="0"/>
        <pt x="312" y="2384" on="0"/>
        <pt x="484" y="2572" on="0"/>
        <pt x="596" y="2642" on="1"/>
        <pt x="825" y="2785" on="0"/>
        <pt x="1102" y="2785" on="1"/>
        <pt x="1403" y="2785" on="0"/>
        <pt x="1663" y="2609" on="1"/>
        <pt x="1699" y="2580" on="0"/>
        <pt x="1741" y="2580" on="0"/>
        <pt x="1744" y="2701" on="0"/>
        <pt x="1767" y="2724" on="0"/>
        <pt x="1875" y="2724" on="0"/>
        <pt x="1905" y="2702" on="0"/>
        <pt x="1905" y="2654" on="1"/>
        <pt x="1880" y="2003" on="1"/>
        <pt x="1880" y="1960" on="0"/>
        <pt x="1856" y="1933" on="0"/>
        <pt x="1751" y="1933" on="0"/>
        <pt x="1716" y="1961" on="0"/>
      </contour>
    </TTGlyph>
    <TTGlyph name="Scedilla.c2" xMin="152" yMin="-946" xMax="1401" yMax="1704">
      <component glyphName="scedilla.sc" x="0" y="0" flags="0x1004"/>
    </TTGlyph>
    <TTGlyph name="Scircumflex" xMin="213" yMin="-74" xMax="2032" yMax="3449">
      <component glyphName="uni0302.cap" x="1921" y="1147" flags="0x1004"/>
      <component glyphName="S" x="0" y="0" flags="0x1004"/>
    </TTGlyph>
    <TTGlyph name="Scircumflex.c2" xMin="152" yMin="-39" xMax="1401" yMax="2466">
      <component glyphName="scircumflex.sc" x="0" y="0" flags="0x1004"/>
    </TTGlyph>
    <TTGlyph name="T" xMin="74" yMin="-25" xMax="2757" yMax="2826">
      <contour>
        <pt x="222" y="2194" on="0"/>
        <pt x="200" y="2175" on="0"/>
        <pt x="74" y="2175" on="0"/>
        <pt x="74" y="2220" on="1"/>
        <pt x="74" y="2223" on="0"/>
        <pt x="86" y="2312" on="1"/>
        <pt x="128" y="2607" on="0"/>
        <pt x="142" y="2798" on="0"/>
        <pt x="169" y="2826" on="0"/>
        <pt x="283" y="2826" on="0"/>
        <pt x="283" y="2789" on="1"/>
        <pt x="283" y="2748" on="1"/>
        <pt x="283" y="2728" on="0"/>
        <pt x="713" y="2728" on="1"/>
        <pt x="2175" y="2728" on="1"/>
        <pt x="2609" y="2728" on="0"/>
        <pt x="2612" y="2800" on="0"/>
        <pt x="2640" y="2826" on="0"/>
        <pt x="2702" y="2826" on="0"/>
        <pt x="2724" y="2824" on="0"/>
        <pt x="2736" y="2819" on="1"/>
        <pt x="2757" y="2811" on="0"/>
        <pt x="2757" y="2769" on="1"/>
        <pt x="2740" y="2216" on="1"/>
        <pt x="2740" y="2187" on="0"/>
        <pt x="2710" y="2175" on="0"/>
        <pt x="2621" y="2175" on="0"/>
        <pt x="2589" y="2199" on="0"/>
        <pt x="2589" y="2232" on="1"/>
        <pt x="2601" y="2560" on="1"/>
        <pt x="2601" y="2589" on="0"/>
        <pt x="2150" y="2589" on="1"/>
        <pt x="1679" y="2589" on="1"/>
        <pt x="1653" y="2589" on="0"/>
        <pt x="1648" y="1990" on="0"/>
        <pt x="1647" y="1954" on="1"/>
        <pt x="1622" y="377" on="1"/>
        <pt x="1622" y="123" on="0"/>
        <pt x="1630" y="123" on="1"/>
        <pt x="1921" y="123" on="1"/>
        <pt x="1956" y="123" on="0"/>
        <pt x="1978" y="95" on="0"/>
        <pt x="1978" y="9" on="0"/>
        <pt x="1956" y="-25" on="0"/>
        <pt x="1921" y="-25" on="1"/>
        <pt x="1430" y="-12" on="1"/>
        <pt x="926" y="-25" on="1"/>
        <pt x="885" y="-25" on="0"/>
        <pt x="864" y="6" on="0"/>
        <pt x="864" y="103" on="0"/>
        <pt x="891" y="123" on="0"/>
        <pt x="942" y="123" on="1"/>
        <pt x="1196" y="123" on="1"/>
        <pt x="1220" y="123" on="0"/>
        <pt x="1249" y="1712" on="0"/>
        <pt x="1249" y="2589" on="0"/>
        <pt x="1225" y="2589" on="1"/>
        <pt x="643" y="2589" on="1"/>
        <pt x="264" y="2589" on="0"/>
        <pt x="258" y="2548" on="1"/>
        <pt x="225" y="2232" on="1"/>
      </contour>
    </TTGlyph>
    <TTGlyph name="T.c2" xMin="70" yMin="-20" xMax="1831" yMax="1774">
      <component glyphName="t.sc" x="0" y="0" flags="0x1004"/>
    </TTGlyph>
    <TTGlyph name="Tbar" xMin="74" yMin="-25" xMax="2757" yMax="2826">
      <contour>
        <pt x="222" y="2194" on="0"/>
        <pt x="200" y="2175" on="0"/>
        <pt x="74" y="2175" on="0"/>
        <pt x="74" y="2220" on="1"/>
        <pt x="74" y="2223" on="0"/>
        <pt x="86" y="2312" on="1"/>
        <pt x="128" y="2607" on="0"/>
        <pt x="142" y="2798" on="0"/>
        <pt x="169" y="2826" on="0"/>
        <pt x="283" y="2826" on="0"/>
        <pt x="283" y="2789" on="1"/>
        <pt x="283" y="2748" on="1"/>
        <pt x="283" y="2728" on="0"/>
        <pt x="713" y="2728" on="1"/>
        <pt x="2175" y="2728" on="1"/>
        <pt x="2609" y="2728" on="0"/>
        <pt x="2612" y="2800" on="0"/>
        <pt x="2640" y="2826" on="0"/>
        <pt x="2702" y="2826" on="0"/>
        <pt x="2724" y="2824" on="0"/>
        <pt x="2736" y="2819" on="1"/>
        <pt x="2757" y="2811" on="0"/>
        <pt x="2757" y="2769" on="1"/>
        <pt x="2740" y="2216" on="1"/>
        <pt x="2740" y="2187" on="0"/>
        <pt x="2710" y="2175" on="0"/>
        <pt x="2621" y="2175" on="0"/>
        <pt x="2589" y="2199" on="0"/>
        <pt x="2589" y="2232" on="1"/>
        <pt x="2601" y="2560" on="1"/>
        <pt x="2601" y="2589" on="0"/>
        <pt x="2150" y="2589" on="1"/>
        <pt x="1679" y="2589" on="1"/>
        <pt x="1653" y="2589" on="0"/>
        <pt x="1648" y="1990" on="0"/>
        <pt x="1647" y="1954" on="1"/>
        <pt x="1638" y="1540" on="1"/>
        <pt x="1638" y="1486" on="0"/>
        <pt x="1655" y="1466" on="0"/>
        <pt x="1704" y="1466" on="1"/>
        <pt x="2302" y="1466" on="1"/>
        <pt x="2327" y="1466" on="0"/>
        <pt x="2327" y="1343" on="0"/>
        <pt x="2302" y="1343" on="1"/>
        <pt x="1704" y="1343" on="1"/>
        <pt x="1651" y="1343" on="0"/>
        <pt x="1634" y="1327" on="0"/>
        <pt x="1634" y="1278" on="1"/>
        <pt x="1622" y="377" on="1"/>
        <pt x="1622" y="123" on="0"/>
        <pt x="1630" y="123" on="1"/>
        <pt x="1921" y="123" on="1"/>
        <pt x="1956" y="123" on="0"/>
        <pt x="1978" y="95" on="0"/>
        <pt x="1978" y="9" on="0"/>
        <pt x="1956" y="-25" on="0"/>
        <pt x="1921" y="-25" on="1"/>
        <pt x="1430" y="-12" on="1"/>
        <pt x="926" y="-25" on="1"/>
        <pt x="885" y="-25" on="0"/>
        <pt x="864" y="6" on="0"/>
        <pt x="864" y="103" on="0"/>
        <pt x="891" y="123" on="0"/>
        <pt x="942" y="123" on="1"/>
        <pt x="1196" y="123" on="1"/>
        <pt x="1224" y="123" on="0"/>
        <pt x="1241" y="1278" on="1"/>
        <pt x="1241" y="1327" on="0"/>
        <pt x="1224" y="1343" on="0"/>
        <pt x="1171" y="1343" on="1"/>
        <pt x="586" y="1343" on="1"/>
        <pt x="561" y="1343" on="0"/>
        <pt x="561" y="1466" on="0"/>
        <pt x="586" y="1466" on="1"/>
        <pt x="1171" y="1466" on="1"/>
        <pt x="1226" y="1466" on="0"/>
        <pt x="1236" y="1475" on="1"/>
        <pt x="1249" y="1488" on="0"/>
        <pt x="1249" y="2589" on="0"/>
        <pt x="1225" y="2589" on="1"/>
        <pt x="643" y="2589" on="1"/>
        <pt x="264" y="2589" on="0"/>
        <pt x="258" y="2548" on="1"/>
        <pt x="225" y="2232" on="1"/>
      </contour>
    </TTGlyph>
    <TTGlyph name="Tbar.c2" xMin="70" yMin="-20" xMax="1831" yMax="1774">
      <component glyphName="tbar.sc" x="0" y="0" flags="0x1004"/>
    </TTGlyph>
    <TTGlyph name="Tcaron" xMin="74" yMin="-25" xMax="2757" yMax="3465">
      <component glyphName="uni030C.cap" x="2234" y="1163" flags="0x1004"/>
      <component glyphName="T" x="0" y="0" flags="0x1004"/>
    </TTGlyph>
    <TTGlyph name="Tcaron.c2" xMin="70" yMin="-20" xMax="1831" yMax="2466">
      <component glyphName="tcaron.sc" x="0" y="0" flags="0x1004"/>
    </TTGlyph>
    <TTGlyph name="Thorn" xMin="111" yMin="-25" xMax="2249" yMax="2753">
      <contour>
        <pt x="705" y="-12" on="1"/>
        <pt x="180" y="-25" on="1"/>
        <pt x="137" y="-25" on="0"/>
        <pt x="111" y="8" on="0"/>
        <pt x="111" y="102" on="0"/>
        <pt x="144" y="123" on="0"/>
        <pt x="197" y="123" on="1"/>
        <pt x="467" y="123" on="1"/>
        <pt x="504" y="123" on="0"/>
        <pt x="504" y="1614" on="1"/>
        <pt x="504" y="2015" on="1"/>
        <pt x="504" y="2220" on="0"/>
        <pt x="483" y="2605" on="0"/>
        <pt x="471" y="2605" on="1"/>
        <pt x="201" y="2605" on="1"/>
        <pt x="159" y="2605" on="0"/>
        <pt x="127" y="2630" on="0"/>
        <pt x="127" y="2728" on="0"/>
        <pt x="157" y="2753" on="0"/>
        <pt x="201" y="2753" on="1"/>
        <pt x="713" y="2740" on="1"/>
        <pt x="1196" y="2753" on="1"/>
        <pt x="1232" y="2753" on="0"/>
        <pt x="1253" y="2720" on="0"/>
        <pt x="1253" y="2624" on="0"/>
        <pt x="1230" y="2605" on="0"/>
        <pt x="1180" y="2605" on="1"/>
        <pt x="913" y="2605" on="1"/>
        <pt x="901" y="2605" on="0"/>
        <pt x="877" y="2313" on="0"/>
        <pt x="877" y="2166" on="0"/>
        <pt x="887" y="2146" on="0"/>
        <pt x="905" y="2146" on="1"/>
        <pt x="1253" y="2159" on="1"/>
        <pt x="1792" y="2159" on="0"/>
        <pt x="2060" y="1873" on="1"/>
        <pt x="2249" y="1671" on="0"/>
        <pt x="2249" y="1343" on="1"/>
        <pt x="2249" y="885" on="0"/>
        <pt x="1857" y="702" on="1"/>
        <pt x="1618" y="590" on="0"/>
        <pt x="1257" y="590" on="1"/>
        <pt x="1161" y="590" on="0"/>
        <pt x="972" y="601" on="0"/>
        <pt x="898" y="605" on="0"/>
        <pt x="881" y="585" on="0"/>
        <pt x="881" y="418" on="0"/>
        <pt x="902" y="129" on="0"/>
        <pt x="913" y="123" on="1"/>
        <pt x="1196" y="123" on="1"/>
        <pt x="1231" y="123" on="0"/>
        <pt x="1253" y="95" on="0"/>
        <pt x="1253" y="8" on="0"/>
        <pt x="1235" y="-25" on="0"/>
        <pt x="1200" y="-25" on="1"/>
      </contour>
      <contour>
        <pt x="877" y="762" on="1"/>
        <pt x="877" y="721" on="0"/>
        <pt x="912" y="714" on="1"/>
        <pt x="958" y="705" on="0"/>
        <pt x="1162" y="705" on="0"/>
        <pt x="1408" y="750" on="0"/>
        <pt x="1627" y="853" on="0"/>
        <pt x="1704" y="932" on="1"/>
        <pt x="1872" y="1101" on="0"/>
        <pt x="1872" y="1397" on="1"/>
        <pt x="1872" y="1591" on="0"/>
        <pt x="1760" y="1736" on="1"/>
        <pt x="1533" y="2028" on="0"/>
        <pt x="1020" y="2028" on="1"/>
        <pt x="913" y="2028" on="0"/>
        <pt x="877" y="2006" on="0"/>
        <pt x="877" y="1942" on="1"/>
      </contour>
    </TTGlyph>
    <TTGlyph name="Thorn.c2" xMin="90" yMin="-20" xMax="1712" yMax="1663">
      <component glyphName="thorn.sc" x="0" y="0" flags="0x1004"/>
    </TTGlyph>
    <TTGlyph name="U" xMin="152" yMin="-57" xMax="2941" yMax="2732">
      <contour>
        <pt x="397" y="2355" on="1"/>
        <pt x="397" y="2585" on="0"/>
        <pt x="381" y="2585" on="1"/>
        <pt x="225" y="2585" on="1"/>
        <pt x="183" y="2585" on="0"/>
        <pt x="152" y="2609" on="0"/>
        <pt x="152" y="2707" on="0"/>
        <pt x="181" y="2732" on="0"/>
        <pt x="225" y="2732" on="1"/>
        <pt x="614" y="2720" on="1"/>
        <pt x="1090" y="2732" on="1"/>
        <pt x="1131" y="2732" on="0"/>
        <pt x="1151" y="2701" on="0"/>
        <pt x="1151" y="2604" on="0"/>
        <pt x="1124" y="2585" on="0"/>
        <pt x="1073" y="2585" on="1"/>
        <pt x="807" y="2585" on="1"/>
        <pt x="786" y="2585" on="0"/>
        <pt x="754" y="1218" on="0"/>
        <pt x="754" y="934" on="1"/>
        <pt x="754" y="539" on="0"/>
        <pt x="1139" y="152" on="0"/>
        <pt x="1941" y="152" on="0"/>
        <pt x="2261" y="369" on="1"/>
        <pt x="2308" y="400" on="0"/>
        <pt x="2347" y="451" on="0"/>
        <pt x="2359" y="652" on="0"/>
        <pt x="2359" y="1012" on="1"/>
        <pt x="2359" y="2261" on="1"/>
        <pt x="2359" y="2585" on="0"/>
        <pt x="2335" y="2585" on="1"/>
        <pt x="2130" y="2585" on="1"/>
        <pt x="2065" y="2585" on="0"/>
        <pt x="2048" y="2633" on="0"/>
        <pt x="2048" y="2706" on="0"/>
        <pt x="2084" y="2732" on="0"/>
        <pt x="2130" y="2732" on="1"/>
        <pt x="2552" y="2720" on="1"/>
        <pt x="2871" y="2732" on="1"/>
        <pt x="2914" y="2732" on="0"/>
        <pt x="2941" y="2699" on="0"/>
        <pt x="2941" y="2605" on="0"/>
        <pt x="2908" y="2585" on="0"/>
        <pt x="2855" y="2585" on="1"/>
        <pt x="2761" y="2585" on="1"/>
        <pt x="2737" y="2585" on="0"/>
        <pt x="2721" y="1481" on="0"/>
        <pt x="2711" y="1063" on="0"/>
        <pt x="2696" y="483" on="0"/>
        <pt x="2687" y="138" on="0"/>
        <pt x="2687" y="102" on="1"/>
        <pt x="2687" y="-41" on="0"/>
        <pt x="2589" y="-41" on="1"/>
        <pt x="2527" y="-41" on="0"/>
        <pt x="2382" y="258" on="0"/>
        <pt x="2298" y="258" on="0"/>
        <pt x="1987" y="82" on="0"/>
        <pt x="1522" y="-57" on="0"/>
        <pt x="1128" y="-57" on="0"/>
        <pt x="851" y="2" on="0"/>
        <pt x="662" y="98" on="0"/>
        <pt x="526" y="252" on="0"/>
        <pt x="449" y="408" on="0"/>
        <pt x="428" y="516" on="1"/>
        <pt x="393" y="691" on="0"/>
        <pt x="393" y="930" on="1"/>
      </contour>
    </TTGlyph>
    <TTGlyph name="U.c2" xMin="90" yMin="-29" xMax="2167" yMax="1663">
      <component glyphName="u.sc" x="0" y="0" flags="0x1004"/>
    </TTGlyph>
    <TTGlyph name="Uacute" xMin="152" yMin="-57" xMax="2941" yMax="3482">
      <component glyphName="acutecomb.cap" x="2392" y="1147" flags="0x1004"/>
      <component glyphName="U" x="0" y="0" flags="0x1004"/>
    </TTGlyph>
    <TTGlyph name="Uacute.c2" xMin="90" yMin="-29" xMax="2167" yMax="2519">
      <component glyphName="uacute.sc" x="0" y="0" flags="0x1004"/>
    </TTGlyph>
    <TTGlyph name="Ubreve" xMin="152" yMin="-57" xMax="2941" yMax="3445">
      <component glyphName="uni0306.cap" x="2392" y="1147" flags="0x1004"/>
      <component glyphName="U" x="0" y="0" flags="0x1004"/>
    </TTGlyph>
    <TTGlyph name="Ubreve.c2" xMin="90" yMin="-29" xMax="2167" yMax="2413">
      <component glyphName="ubreve.sc" x="0" y="0" flags="0x1004"/>
    </TTGlyph>
    <TTGlyph name="Ucircumflex" xMin="152" yMin="-57" xMax="2941" yMax="3449">
      <component glyphName="uni0302.cap" x="2392" y="1147" flags="0x1004"/>
      <component glyphName="U" x="0" y="0" flags="0x1004"/>
    </TTGlyph>
    <TTGlyph name="Ucircumflex.c2" xMin="90" yMin="-29" xMax="2167" yMax="2466">
      <component glyphName="ucircumflex.sc" x="0" y="0" flags="0x1004"/>
    </TTGlyph>
    <TTGlyph name="Udieresis" xMin="152" yMin="-57" xMax="2941" yMax="3445">
      <component glyphName="uni0308.cap" x="2392" y="1147" flags="0x1004"/>
      <component glyphName="U" x="0" y="0" flags="0x1004"/>
    </TTGlyph>
    <TTGlyph name="Udieresis.c2" xMin="90" yMin="-29" xMax="2167" yMax="2421">
      <component glyphName="udieresis.sc" x="0" y="0" flags="0x1004"/>
    </TTGlyph>
    <TTGlyph name="Ugrave" xMin="152" yMin="-57" xMax="2941" yMax="3482">
      <component glyphName="gravecomb.cap" x="2392" y="1147" flags="0x1004"/>
      <component glyphName="U" x="0" y="0" flags="0x1004"/>
    </TTGlyph>
    <TTGlyph name="Ugrave.c2" xMin="90" yMin="-29" xMax="2167" yMax="2519">
      <component glyphName="ugrave.sc" x="0" y="0" flags="0x1004"/>
    </TTGlyph>
    <TTGlyph name="Uhungarumlaut" xMin="152" yMin="-57" xMax="2941" yMax="3482">
      <component glyphName="uni030B.cap" x="2392" y="1147" flags="0x1004"/>
      <component glyphName="U" x="0" y="0" flags="0x1004"/>
    </TTGlyph>
    <TTGlyph name="Uhungarumlaut.c2" xMin="90" yMin="-29" xMax="2167" yMax="2519">
      <component glyphName="uhungarumlaut.sc" x="0" y="0" flags="0x1004"/>
    </TTGlyph>
    <TTGlyph name="Umacron" xMin="152" yMin="-57" xMax="2941" yMax="3367">
      <component glyphName="uni0304.cap" x="2392" y="1147" flags="0x1004"/>
      <component glyphName="U" x="0" y="0" flags="0x1004"/>
    </TTGlyph>
    <TTGlyph name="Umacron.c2" xMin="90" yMin="-29" xMax="2167" yMax="2261">
      <component glyphName="umacron.sc" x="0" y="0" flags="0x1004"/>
    </TTGlyph>
    <TTGlyph name="Uogonek" xMin="152" yMin="-1188" xMax="2941" yMax="2732">
      <contour>
        <pt x="397" y="2355" on="1"/>
        <pt x="397" y="2585" on="0"/>
        <pt x="381" y="2585" on="1"/>
        <pt x="225" y="2585" on="1"/>
        <pt x="183" y="2585" on="0"/>
        <pt x="152" y="2609" on="0"/>
        <pt x="152" y="2707" on="0"/>
        <pt x="181" y="2732" on="0"/>
        <pt x="225" y="2732" on="1"/>
        <pt x="614" y="2720" on="1"/>
        <pt x="1090" y="2732" on="1"/>
        <pt x="1131" y="2732" on="0"/>
        <pt x="1151" y="2701" on="0"/>
        <pt x="1151" y="2604" on="0"/>
        <pt x="1124" y="2585" on="0"/>
        <pt x="1073" y="2585" on="1"/>
        <pt x="807" y="2585" on="1"/>
        <pt x="786" y="2585" on="0"/>
        <pt x="754" y="1218" on="0"/>
        <pt x="754" y="934" on="1"/>
        <pt x="754" y="539" on="0"/>
        <pt x="1139" y="152" on="0"/>
        <pt x="1941" y="152" on="0"/>
        <pt x="2261" y="369" on="1"/>
        <pt x="2308" y="400" on="0"/>
        <pt x="2347" y="451" on="0"/>
        <pt x="2359" y="652" on="0"/>
        <pt x="2359" y="1012" on="1"/>
        <pt x="2359" y="2261" on="1"/>
        <pt x="2359" y="2585" on="0"/>
        <pt x="2335" y="2585" on="1"/>
        <pt x="2130" y="2585" on="1"/>
        <pt x="2065" y="2585" on="0"/>
        <pt x="2048" y="2633" on="0"/>
        <pt x="2048" y="2706" on="0"/>
        <pt x="2084" y="2732" on="0"/>
        <pt x="2130" y="2732" on="1"/>
        <pt x="2552" y="2720" on="1"/>
        <pt x="2871" y="2732" on="1"/>
        <pt x="2914" y="2732" on="0"/>
        <pt x="2941" y="2699" on="0"/>
        <pt x="2941" y="2605" on="0"/>
        <pt x="2908" y="2585" on="0"/>
        <pt x="2855" y="2585" on="1"/>
        <pt x="2761" y="2585" on="1"/>
        <pt x="2737" y="2585" on="0"/>
        <pt x="2721" y="1481" on="0"/>
        <pt x="2711" y="1063" on="0"/>
        <pt x="2696" y="483" on="0"/>
        <pt x="2687" y="138" on="0"/>
        <pt x="2687" y="102" on="1"/>
        <pt x="2687" y="-41" on="0"/>
        <pt x="2589" y="-41" on="1"/>
        <pt x="2527" y="-41" on="0"/>
        <pt x="2382" y="258" on="0"/>
        <pt x="2298" y="258" on="0"/>
        <pt x="2089" y="140" on="0"/>
        <pt x="1919" y="67" on="0"/>
        <pt x="1858" y="44" on="1"/>
        <pt x="1706" y="-16" on="0"/>
        <pt x="1622" y="-119" on="1"/>
        <pt x="1368" y="-420" on="0"/>
        <pt x="1368" y="-684" on="1"/>
        <pt x="1368" y="-813" on="0"/>
        <pt x="1527" y="-999" on="0"/>
        <pt x="1675" y="-999" on="0"/>
        <pt x="1782" y="-962" on="0"/>
        <pt x="1856" y="-909" on="0"/>
        <pt x="1886" y="-882" on="1"/>
        <pt x="1956" y="-819" on="0"/>
        <pt x="1980" y="-819" on="0"/>
        <pt x="2023" y="-874" on="0"/>
        <pt x="2023" y="-893" on="0"/>
        <pt x="1974" y="-956" on="0"/>
        <pt x="1875" y="-1045" on="0"/>
        <pt x="1812" y="-1087" on="1"/>
        <pt x="1660" y="-1188" on="0"/>
        <pt x="1475" y="-1188" on="1"/>
        <pt x="1386" y="-1188" on="0"/>
        <pt x="1203" y="-1077" on="0"/>
        <pt x="1081" y="-892" on="0"/>
        <pt x="1081" y="-711" on="0"/>
        <pt x="1133" y="-548" on="0"/>
        <pt x="1195" y="-430" on="0"/>
        <pt x="1268" y="-346" on="1"/>
        <pt x="1362" y="-238" on="0"/>
        <pt x="1548" y="-61" on="0"/>
        <pt x="1580" y="-33" on="0"/>
        <pt x="1558" y="-32" on="0"/>
        <pt x="1426" y="-57" on="0"/>
        <pt x="1128" y="-57" on="0"/>
        <pt x="851" y="2" on="0"/>
        <pt x="662" y="98" on="0"/>
        <pt x="526" y="252" on="0"/>
        <pt x="449" y="408" on="0"/>
        <pt x="428" y="516" on="1"/>
        <pt x="393" y="691" on="0"/>
        <pt x="393" y="930" on="1"/>
      </contour>
    </TTGlyph>
    <TTGlyph name="Uogonek.c2" xMin="90" yMin="-1188" xMax="2167" yMax="1663">
      <component glyphName="uogonek.sc" x="0" y="0" flags="0x1004"/>
    </TTGlyph>
    <TTGlyph name="Uring" xMin="152" yMin="-57" xMax="2941" yMax="3518">
      <component glyphName="uni030A.cap" x="2392" y="1147" flags="0x1004"/>
      <component glyphName="U" x="0" y="0" flags="0x1004"/>
    </TTGlyph>
    <TTGlyph name="Uring.c2" xMin="90" yMin="-29" xMax="2167" yMax="2494">
      <component glyphName="uring.sc" x="0" y="0" flags="0x1004"/>
    </TTGlyph>
    <TTGlyph name="Utilde" xMin="152" yMin="-57" xMax="2941" yMax="3424">
      <component glyphName="tildecomb.cap" x="2392" y="1147" flags="0x1004"/>
      <component glyphName="U" x="0" y="0" flags="0x1004"/>
    </TTGlyph>
    <TTGlyph name="Utilde.c2" xMin="90" yMin="-29" xMax="2167" yMax="2400">
      <component glyphName="utilde.sc" x="0" y="0" flags="0x1004"/>
    </TTGlyph>
    <TTGlyph name="V" xMin="29" yMin="-115" xMax="2777" yMax="2732">
      <contour>
        <pt x="2388" y="2720" on="1"/>
        <pt x="2707" y="2732" on="1"/>
        <pt x="2750" y="2732" on="0"/>
        <pt x="2777" y="2699" on="0"/>
        <pt x="2777" y="2605" on="0"/>
        <pt x="2744" y="2585" on="0"/>
        <pt x="2674" y="2585" on="0"/>
        <pt x="2650" y="2583" on="0"/>
        <pt x="2629" y="2584" on="0"/>
        <pt x="2613" y="2577" on="0"/>
        <pt x="2602" y="2576" on="0"/>
        <pt x="2590" y="2563" on="0"/>
        <pt x="2585" y="2561" on="0"/>
        <pt x="2574" y="2539" on="0"/>
        <pt x="2572" y="2536" on="1"/>
        <pt x="2568" y="2529" on="0"/>
        <pt x="2556" y="2499" on="1"/>
        <pt x="1610" y="274" on="1"/>
        <pt x="1580" y="204" on="0"/>
        <pt x="1510" y="119" on="0"/>
        <pt x="1471" y="63" on="0"/>
        <pt x="1418" y="-31" on="0"/>
        <pt x="1404" y="-55" on="1"/>
        <pt x="1371" y="-115" on="0"/>
        <pt x="1292" y="-115" on="0"/>
        <pt x="1242" y="13" on="0"/>
        <pt x="1141" y="318" on="0"/>
        <pt x="1083" y="449" on="0"/>
        <pt x="873" y="990" on="1"/>
        <pt x="253" y="2585" on="0"/>
        <pt x="233" y="2585" on="1"/>
        <pt x="106" y="2585" on="1"/>
        <pt x="43" y="2585" on="0"/>
        <pt x="29" y="2632" on="0"/>
        <pt x="29" y="2707" on="0"/>
        <pt x="62" y="2732" on="0"/>
        <pt x="106" y="2732" on="1"/>
        <pt x="492" y="2720" on="1"/>
        <pt x="1024" y="2732" on="1"/>
        <pt x="1067" y="2732" on="0"/>
        <pt x="1094" y="2699" on="0"/>
        <pt x="1094" y="2605" on="0"/>
        <pt x="1061" y="2585" on="0"/>
        <pt x="1008" y="2585" on="1"/>
        <pt x="721" y="2585" on="1"/>
        <pt x="721" y="2576" on="1"/>
        <pt x="721" y="2501" on="0"/>
        <pt x="802" y="2274" on="1"/>
        <pt x="1157" y="1271" on="0"/>
        <pt x="1483" y="418" on="0"/>
        <pt x="1519" y="418" on="0"/>
        <pt x="1627" y="698" on="0"/>
        <pt x="1840" y="1239" on="0"/>
        <pt x="2007" y="1671" on="0"/>
        <pt x="2096" y="1910" on="1"/>
        <pt x="2286" y="2416" on="0"/>
        <pt x="2286" y="2585" on="0"/>
        <pt x="2261" y="2585" on="1"/>
        <pt x="1970" y="2585" on="1"/>
        <pt x="1903" y="2585" on="0"/>
        <pt x="1884" y="2633" on="0"/>
        <pt x="1884" y="2706" on="0"/>
        <pt x="1913" y="2732" on="0"/>
        <pt x="1958" y="2732" on="1"/>
      </contour>
    </TTGlyph>
    <TTGlyph name="V.c2" xMin="29" yMin="-90" xMax="1823" yMax="1663">
      <component glyphName="v.sc" x="0" y="0" flags="0x1004"/>
    </TTGlyph>
    <TTGlyph name="W" xMin="29" yMin="-74" xMax="4100" yMax="2732">
      <contour>
        <pt x="3752" y="2720" on="1"/>
        <pt x="4030" y="2732" on="1"/>
        <pt x="4072" y="2732" on="0"/>
        <pt x="4100" y="2700" on="0"/>
        <pt x="4100" y="2614" on="0"/>
        <pt x="4066" y="2585" on="0"/>
        <pt x="3941" y="2585" on="0"/>
        <pt x="3903" y="2561" on="0"/>
        <pt x="3882" y="2506" on="0"/>
        <pt x="3881" y="2504" on="0"/>
        <pt x="3880" y="2500" on="0"/>
        <pt x="3879" y="2499" on="1"/>
        <pt x="2974" y="274" on="1"/>
        <pt x="2941" y="195" on="0"/>
        <pt x="2870" y="114" on="0"/>
        <pt x="2839" y="69" on="0"/>
        <pt x="2794" y="-7" on="0"/>
        <pt x="2767" y="-52" on="0"/>
        <pt x="2750" y="-74" on="1"/>
        <pt x="2660" y="-191" on="0"/>
        <pt x="2594" y="-4" on="1"/>
        <pt x="2570" y="61" on="0"/>
        <pt x="2483" y="369" on="0"/>
        <pt x="2457" y="448" on="0"/>
        <pt x="2412" y="614" on="0"/>
        <pt x="2335" y="897" on="0"/>
        <pt x="2289" y="1063" on="1"/>
        <pt x="2168" y="1501" on="0"/>
        <pt x="2063" y="1872" on="0"/>
        <pt x="2045" y="1872" on="0"/>
        <pt x="2015" y="1798" on="1"/>
        <pt x="1434" y="274" on="1"/>
        <pt x="1401" y="195" on="0"/>
        <pt x="1330" y="114" on="0"/>
        <pt x="1299" y="69" on="0"/>
        <pt x="1254" y="-7" on="0"/>
        <pt x="1227" y="-52" on="0"/>
        <pt x="1210" y="-74" on="1"/>
        <pt x="1120" y="-191" on="0"/>
        <pt x="1054" y="-4" on="1"/>
        <pt x="1030" y="61" on="0"/>
        <pt x="943" y="369" on="0"/>
        <pt x="918" y="447" on="0"/>
        <pt x="782" y="903" on="0"/>
        <pt x="595" y="1522" on="0"/>
        <pt x="500" y="1836" on="1"/>
        <pt x="272" y="2585" on="0"/>
        <pt x="258" y="2585" on="1"/>
        <pt x="111" y="2585" on="1"/>
        <pt x="46" y="2585" on="0"/>
        <pt x="29" y="2633" on="0"/>
        <pt x="29" y="2706" on="0"/>
        <pt x="65" y="2732" on="0"/>
        <pt x="111" y="2732" on="1"/>
        <pt x="504" y="2720" on="1"/>
        <pt x="930" y="2732" on="1"/>
        <pt x="973" y="2732" on="0"/>
        <pt x="999" y="2699" on="0"/>
        <pt x="999" y="2605" on="0"/>
        <pt x="966" y="2585" on="0"/>
        <pt x="913" y="2585" on="1"/>
        <pt x="709" y="2585" on="1"/>
        <pt x="684" y="2585" on="0"/>
        <pt x="680" y="2560" on="1"/>
        <pt x="696" y="2412" on="0"/>
        <pt x="1283" y="596" on="0"/>
        <pt x="1290" y="573" on="0"/>
        <pt x="1301" y="543" on="0"/>
        <pt x="1307" y="526" on="0"/>
        <pt x="1314" y="506" on="0"/>
        <pt x="1318" y="496" on="0"/>
        <pt x="1324" y="487" on="0"/>
        <pt x="1328" y="483" on="0"/>
        <pt x="1334" y="483" on="0"/>
        <pt x="1341" y="491" on="0"/>
        <pt x="1349" y="510" on="0"/>
        <pt x="1358" y="532" on="0"/>
        <pt x="1373" y="569" on="0"/>
        <pt x="1380" y="586" on="1"/>
        <pt x="1966" y="2081" on="1"/>
        <pt x="1978" y="2114" on="0"/>
        <pt x="1978" y="2163" on="0"/>
        <pt x="1972" y="2192" on="0"/>
        <pt x="1956" y="2250" on="0"/>
        <pt x="1917" y="2393" on="0"/>
        <pt x="1848" y="2585" on="0"/>
        <pt x="1839" y="2585" on="1"/>
        <pt x="1606" y="2585" on="1"/>
        <pt x="1541" y="2585" on="0"/>
        <pt x="1524" y="2633" on="0"/>
        <pt x="1524" y="2706" on="0"/>
        <pt x="1560" y="2732" on="0"/>
        <pt x="1606" y="2732" on="1"/>
        <pt x="2060" y="2720" on="1"/>
        <pt x="2552" y="2732" on="1"/>
        <pt x="2595" y="2732" on="0"/>
        <pt x="2621" y="2699" on="0"/>
        <pt x="2621" y="2606" on="0"/>
        <pt x="2585" y="2585" on="0"/>
        <pt x="2540" y="2585" on="1"/>
        <pt x="2281" y="2585" on="1"/>
        <pt x="2277" y="2577" on="0"/>
        <pt x="2277" y="2461" on="0"/>
        <pt x="2395" y="1998" on="0"/>
        <pt x="2513" y="1579" on="0"/>
        <pt x="2630" y="1176" on="0"/>
        <pt x="2722" y="858" on="0"/>
        <pt x="2762" y="722" on="1"/>
        <pt x="2852" y="418" on="0"/>
        <pt x="2871" y="418" on="1"/>
        <pt x="2883" y="418" on="0"/>
        <pt x="2967" y="637" on="0"/>
        <pt x="3213" y="1285" on="0"/>
        <pt x="3344" y="1641" on="0"/>
        <pt x="3438" y="1902" on="1"/>
        <pt x="3621" y="2416" on="0"/>
        <pt x="3621" y="2585" on="0"/>
        <pt x="3596" y="2585" on="1"/>
        <pt x="3330" y="2585" on="1"/>
        <pt x="3265" y="2585" on="0"/>
        <pt x="3248" y="2633" on="0"/>
        <pt x="3248" y="2706" on="0"/>
        <pt x="3284" y="2732" on="0"/>
        <pt x="3330" y="2732" on="1"/>
      </contour>
    </TTGlyph>
    <TTGlyph name="W.c2" xMin="29" yMin="-78" xMax="2875" yMax="1663">
      <component glyphName="w.sc" x="0" y="0" flags="0x1004"/>
    </TTGlyph>
    <TTGlyph name="Wcircumflex" xMin="29" yMin="-74" xMax="4100" yMax="3449">
      <component glyphName="uni0302.cap" x="2875" y="1147" flags="0x1004"/>
      <component glyphName="W" x="0" y="0" flags="0x1004"/>
    </TTGlyph>
    <TTGlyph name="Wcircumflex.c2" xMin="29" yMin="-78" xMax="2875" yMax="2466">
      <component glyphName="wcircumflex.sc" x="0" y="0" flags="0x1004"/>
    </TTGlyph>
    <TTGlyph name="X" xMin="29" yMin="-25" xMax="2585" yMax="2732">
      <contour>
        <pt x="446" y="-12" on="1"/>
        <pt x="106" y="-25" on="1"/>
        <pt x="63" y="-25" on="0"/>
        <pt x="29" y="2" on="0"/>
        <pt x="29" y="97" on="0"/>
        <pt x="64" y="123" on="0"/>
        <pt x="106" y="123" on="1"/>
        <pt x="258" y="123" on="1"/>
        <pt x="279" y="123" on="0"/>
        <pt x="454" y="385" on="0"/>
        <pt x="530" y="494" on="0"/>
        <pt x="634" y="648" on="0"/>
        <pt x="818" y="892" on="0"/>
        <pt x="1099" y="1246" on="0"/>
        <pt x="1157" y="1326" on="0"/>
        <pt x="1155" y="1349" on="0"/>
        <pt x="1024" y="1565" on="0"/>
        <pt x="389" y="2585" on="0"/>
        <pt x="373" y="2585" on="1"/>
        <pt x="213" y="2585" on="1"/>
        <pt x="148" y="2585" on="0"/>
        <pt x="131" y="2633" on="0"/>
        <pt x="131" y="2707" on="0"/>
        <pt x="164" y="2732" on="0"/>
        <pt x="209" y="2732" on="1"/>
        <pt x="696" y="2720" on="1"/>
        <pt x="1102" y="2732" on="1"/>
        <pt x="1143" y="2732" on="0"/>
        <pt x="1163" y="2701" on="0"/>
        <pt x="1163" y="2605" on="0"/>
        <pt x="1130" y="2585" on="0"/>
        <pt x="1077" y="2585" on="1"/>
        <pt x="909" y="2585" on="1"/>
        <pt x="874" y="2585" on="0"/>
        <pt x="877" y="2568" on="0"/>
        <pt x="887" y="2546" on="0"/>
        <pt x="889" y="2540" on="1"/>
        <pt x="977" y="2324" on="0"/>
        <pt x="1368" y="1637" on="0"/>
        <pt x="1376" y="1623" on="1"/>
        <pt x="1395" y="1593" on="0"/>
        <pt x="1400" y="1593" on="1"/>
        <pt x="1412" y="1593" on="0"/>
        <pt x="1753" y="2118" on="1"/>
        <pt x="2011" y="2502" on="0"/>
        <pt x="2011" y="2580" on="1"/>
        <pt x="2011" y="2585" on="1"/>
        <pt x="1782" y="2585" on="1"/>
        <pt x="1729" y="2585" on="0"/>
        <pt x="1696" y="2605" on="0"/>
        <pt x="1696" y="2699" on="0"/>
        <pt x="1722" y="2732" on="0"/>
        <pt x="1765" y="2732" on="1"/>
        <pt x="2085" y="2720" on="1"/>
        <pt x="2396" y="2732" on="1"/>
        <pt x="2439" y="2732" on="0"/>
        <pt x="2474" y="2705" on="0"/>
        <pt x="2474" y="2610" on="0"/>
        <pt x="2439" y="2585" on="0"/>
        <pt x="2396" y="2585" on="1"/>
        <pt x="2302" y="2585" on="1"/>
        <pt x="2293" y="2585" on="0"/>
        <pt x="2174" y="2438" on="0"/>
        <pt x="1974" y="2149" on="0"/>
        <pt x="1523" y="1547" on="0"/>
        <pt x="1475" y="1478" on="0"/>
        <pt x="1491" y="1454" on="1"/>
        <pt x="2332" y="123" on="0"/>
        <pt x="2359" y="123" on="1"/>
        <pt x="2499" y="123" on="1"/>
        <pt x="2558" y="123" on="0"/>
        <pt x="2585" y="101" on="0"/>
        <pt x="2585" y="-2" on="0"/>
        <pt x="2558" y="-25" on="0"/>
        <pt x="2507" y="-25" on="1"/>
        <pt x="2081" y="-12" on="1"/>
        <pt x="1606" y="-25" on="1"/>
        <pt x="1563" y="-25" on="0"/>
        <pt x="1536" y="8" on="0"/>
        <pt x="1536" y="102" on="0"/>
        <pt x="1569" y="123" on="0"/>
        <pt x="1622" y="123" on="1"/>
        <pt x="1827" y="123" on="1"/>
        <pt x="1874" y="123" on="0"/>
        <pt x="1817" y="228" on="0"/>
        <pt x="1711" y="419" on="0"/>
        <pt x="1555" y="685" on="0"/>
        <pt x="1452" y="860" on="0"/>
        <pt x="1269" y="1165" on="0"/>
        <pt x="1256" y="1186" on="1"/>
        <pt x="1237" y="1220" on="0"/>
        <pt x="1221" y="1196" on="1"/>
        <pt x="782" y="577" on="0"/>
        <pt x="513" y="140" on="0"/>
        <pt x="521" y="123" on="0"/>
        <pt x="545" y="123" on="1"/>
        <pt x="770" y="123" on="1"/>
        <pt x="823" y="123" on="0"/>
        <pt x="856" y="102" on="0"/>
        <pt x="856" y="8" on="0"/>
        <pt x="829" y="-25" on="0"/>
        <pt x="786" y="-25" on="1"/>
      </contour>
    </TTGlyph>
    <TTGlyph name="X.c2" xMin="29" yMin="-20" xMax="1847" yMax="1663">
      <component glyphName="x.sc" x="0" y="0" flags="0x1004"/>
    </TTGlyph>
    <TTGlyph name="Y" xMin="29" yMin="-25" xMax="2417" yMax="2753">
      <contour>
        <pt x="1024" y="123" on="1"/>
        <pt x="1065" y="123" on="0"/>
        <pt x="1065" y="1110" on="1"/>
        <pt x="1065" y="1121" on="0"/>
        <pt x="1062" y="1140" on="0"/>
        <pt x="1060" y="1153" on="0"/>
        <pt x="1052" y="1170" on="0"/>
        <pt x="1050" y="1174" on="1"/>
        <pt x="1045" y="1187" on="0"/>
        <pt x="881" y="1488" on="0"/>
        <pt x="245" y="2605" on="0"/>
        <pt x="221" y="2605" on="1"/>
        <pt x="102" y="2605" on="1"/>
        <pt x="60" y="2605" on="0"/>
        <pt x="29" y="2630" on="0"/>
        <pt x="29" y="2728" on="0"/>
        <pt x="58" y="2753" on="0"/>
        <pt x="102" y="2753" on="1"/>
        <pt x="537" y="2740" on="1"/>
        <pt x="1020" y="2753" on="1"/>
        <pt x="1054" y="2753" on="0"/>
        <pt x="1077" y="2718" on="0"/>
        <pt x="1077" y="2624" on="0"/>
        <pt x="1054" y="2605" on="0"/>
        <pt x="1004" y="2605" on="1"/>
        <pt x="762" y="2605" on="1"/>
        <pt x="724" y="2605" on="0"/>
        <pt x="715" y="2591" on="0"/>
        <pt x="767" y="2467" on="0"/>
        <pt x="995" y="2030" on="0"/>
        <pt x="1279" y="1504" on="0"/>
        <pt x="1314" y="1436" on="0"/>
        <pt x="1331" y="1405" on="0"/>
        <pt x="1339" y="1391" on="0"/>
        <pt x="1346" y="1390" on="1"/>
        <pt x="1357" y="1390" on="0"/>
        <pt x="1583" y="1826" on="0"/>
        <pt x="1709" y="2068" on="0"/>
        <pt x="1807" y="2265" on="0"/>
        <pt x="1852" y="2358" on="1"/>
        <pt x="1946" y="2557" on="0"/>
        <pt x="1946" y="2605" on="0"/>
        <pt x="1937" y="2605" on="1"/>
        <pt x="1724" y="2605" on="1"/>
        <pt x="1671" y="2605" on="0"/>
        <pt x="1638" y="2625" on="0"/>
        <pt x="1638" y="2719" on="0"/>
        <pt x="1665" y="2753" on="0"/>
        <pt x="1708" y="2753" on="1"/>
        <pt x="2028" y="2740" on="1"/>
        <pt x="2339" y="2753" on="1"/>
        <pt x="2382" y="2753" on="0"/>
        <pt x="2417" y="2726" on="0"/>
        <pt x="2417" y="2631" on="0"/>
        <pt x="2382" y="2605" on="0"/>
        <pt x="2339" y="2605" on="1"/>
        <pt x="2200" y="2605" on="1"/>
        <pt x="2189" y="2605" on="0"/>
        <pt x="1515" y="1422" on="0"/>
        <pt x="1438" y="1303" on="0"/>
        <pt x="1438" y="1282" on="1"/>
        <pt x="1438" y="123" on="0"/>
        <pt x="1475" y="123" on="1"/>
        <pt x="1757" y="123" on="1"/>
        <pt x="1793" y="123" on="0"/>
        <pt x="1815" y="95" on="0"/>
        <pt x="1815" y="9" on="0"/>
        <pt x="1793" y="-25" on="0"/>
        <pt x="1757" y="-25" on="1"/>
        <pt x="1266" y="-12" on="1"/>
        <pt x="799" y="-25" on="1"/>
        <pt x="758" y="-25" on="0"/>
        <pt x="737" y="6" on="0"/>
        <pt x="737" y="103" on="0"/>
        <pt x="764" y="123" on="0"/>
        <pt x="815" y="123" on="1"/>
      </contour>
    </TTGlyph>
    <TTGlyph name="Y.c2" xMin="29" yMin="-20" xMax="1872" yMax="1663">
      <component glyphName="y.sc" x="0" y="0" flags="0x1004"/>
    </TTGlyph>
    <TTGlyph name="Yacute" xMin="29" yMin="-25" xMax="2417" yMax="3482">
      <component glyphName="acutecomb.cap" x="2163" y="1147" flags="0x1004"/>
      <component glyphName="Y" x="0" y="0" flags="0x1004"/>
    </TTGlyph>
    <TTGlyph name="Yacute.c2" xMin="29" yMin="-20" xMax="1872" yMax="2519">
      <component glyphName="yacute.sc" x="0" y="0" flags="0x1004"/>
    </TTGlyph>
    <TTGlyph name="Ycircumflex" xMin="29" yMin="-25" xMax="2417" yMax="3449">
      <component glyphName="uni0302.cap" x="2163" y="1147" flags="0x1004"/>
      <component glyphName="Y" x="0" y="0" flags="0x1004"/>
    </TTGlyph>
    <TTGlyph name="Ycircumflex.c2" xMin="29" yMin="-20" xMax="1872" yMax="2466">
      <component glyphName="ycircumflex.sc" x="0" y="0" flags="0x1004"/>
    </TTGlyph>
    <TTGlyph name="Ydieresis" xMin="29" yMin="-25" xMax="2417" yMax="3445">
      <component glyphName="uni0308.cap" x="2163" y="1147" flags="0x1004"/>
      <component glyphName="Y" x="0" y="0" flags="0x1004"/>
    </TTGlyph>
    <TTGlyph name="Ydieresis.c2" xMin="29" yMin="-20" xMax="1872" yMax="2421">
      <component glyphName="ydieresis.sc" x="0" y="0" flags="0x1004"/>
    </TTGlyph>
    <TTGlyph name="Z" xMin="152" yMin="-25" xMax="2351" yMax="2810">
      <contour>
        <pt x="2269" y="-25" on="1"/>
        <pt x="197" y="-12" on="1"/>
        <pt x="170" y="-12" on="0"/>
        <pt x="152" y="18" on="0"/>
        <pt x="152" y="87" on="0"/>
        <pt x="655" y="856" on="0"/>
        <pt x="1494" y="2127" on="0"/>
        <pt x="1757" y="2539" on="0"/>
        <pt x="1757" y="2564" on="0"/>
        <pt x="1712" y="2564" on="1"/>
        <pt x="434" y="2564" on="1"/>
        <pt x="418" y="2564" on="0"/>
        <pt x="408" y="2498" on="0"/>
        <pt x="394" y="2415" on="1"/>
        <pt x="363" y="2224" on="0"/>
        <pt x="359" y="2207" on="0"/>
        <pt x="356" y="2185" on="0"/>
        <pt x="355" y="2181" on="1"/>
        <pt x="346" y="2145" on="0"/>
        <pt x="322" y="2138" on="0"/>
        <pt x="315" y="2138" on="1"/>
        <pt x="197" y="2138" on="0"/>
        <pt x="197" y="2179" on="1"/>
        <pt x="287" y="2773" on="1"/>
        <pt x="287" y="2810" on="0"/>
        <pt x="439" y="2810" on="0"/>
        <pt x="434" y="2777" on="1"/>
        <pt x="430" y="2744" on="1"/>
        <pt x="430" y="2720" on="0"/>
        <pt x="659" y="2720" on="1"/>
        <pt x="2236" y="2720" on="1"/>
        <pt x="2276" y="2720" on="0"/>
        <pt x="2302" y="2691" on="0"/>
        <pt x="2302" y="2626" on="0"/>
        <pt x="2096" y="2309" on="0"/>
        <pt x="1746" y="1792" on="0"/>
        <pt x="1550" y="1501" on="1"/>
        <pt x="1063" y="778" on="0"/>
        <pt x="750" y="242" on="1"/>
        <pt x="695" y="164" on="0"/>
        <pt x="754" y="164" on="1"/>
        <pt x="2146" y="164" on="1"/>
        <pt x="2164" y="164" on="0"/>
        <pt x="2165" y="170" on="1"/>
        <pt x="2168" y="188" on="0"/>
        <pt x="2168" y="198" on="1"/>
        <pt x="2183" y="614" on="1"/>
        <pt x="2183" y="651" on="0"/>
        <pt x="2351" y="651" on="0"/>
        <pt x="2351" y="610" on="1"/>
        <pt x="2339" y="33" on="1"/>
        <pt x="2339" y="-25" on="0"/>
      </contour>
    </TTGlyph>
    <TTGlyph name="Z.c2" xMin="111" yMin="-12" xMax="1602" yMax="1765">
      <component glyphName="z.sc" x="0" y="0" flags="0x1004"/>
    </TTGlyph>
    <TTGlyph name="Zacute" xMin="152" yMin="-25" xMax="2351" yMax="3482">
      <component glyphName="acutecomb.cap" x="2105" y="1147" flags="0x1004"/>
      <component glyphName="Z" x="0" y="0" flags="0x1004"/>
    </TTGlyph>
    <TTGlyph name="Zacute.c2" xMin="111" yMin="-12" xMax="1602" yMax="2519">
      <component glyphName="zacute.sc" x="0" y="0" flags="0x1004"/>
    </TTGlyph>
    <TTGlyph name="Zcaron" xMin="152" yMin="-25" xMax="2351" yMax="3449">
      <component glyphName="uni030C.cap" x="2105" y="1147" flags="0x1004"/>
      <component glyphName="Z" x="0" y="0" flags="0x1004"/>
    </TTGlyph>
    <TTGlyph name="Zcaron.c2" xMin="111" yMin="-12" xMax="1602" yMax="2466">
      <component glyphName="zcaron.sc" x="0" y="0" flags="0x1004"/>
    </TTGlyph>
    <TTGlyph name="Zdotaccent" xMin="152" yMin="-25" xMax="2351" yMax="3445">
      <component glyphName="uni0307.cap" x="2105" y="1147" flags="0x1004"/>
      <component glyphName="Z" x="0" y="0" flags="0x1004"/>
    </TTGlyph>
    <TTGlyph name="Zdotaccent.c2" xMin="111" yMin="-12" xMax="1602" yMax="2421">
      <component glyphName="zdotaccent.sc" x="0" y="0" flags="0x1004"/>
    </TTGlyph>
    <TTGlyph name="a" xMin="131" yMin="-82" xMax="1651" yMax="1647">
      <contour>
        <pt x="1372" y="1098" on="1"/>
        <pt x="1348" y="262" on="1"/>
        <pt x="1348" y="184" on="0"/>
        <pt x="1404" y="157" on="1"/>
        <pt x="1415" y="152" on="0"/>
        <pt x="1441" y="152" on="0"/>
        <pt x="1584" y="254" on="0"/>
        <pt x="1600" y="254" on="0"/>
        <pt x="1651" y="191" on="0"/>
        <pt x="1651" y="168" on="0"/>
        <pt x="1596" y="126" on="0"/>
        <pt x="1473" y="36" on="0"/>
        <pt x="1311" y="-82" on="0"/>
        <pt x="1239" y="-82" on="0"/>
        <pt x="1188" y="-62" on="0"/>
        <pt x="1158" y="-35" on="0"/>
        <pt x="1131" y="11" on="0"/>
        <pt x="1119" y="43" on="0"/>
        <pt x="1102" y="97" on="0"/>
        <pt x="1096" y="114" on="1"/>
        <pt x="1087" y="141" on="0"/>
        <pt x="1053" y="119" on="1"/>
        <pt x="749" y="-70" on="0"/>
        <pt x="353" y="-70" on="0"/>
        <pt x="131" y="127" on="0"/>
        <pt x="131" y="291" on="1"/>
        <pt x="131" y="475" on="0"/>
        <pt x="283" y="604" on="1"/>
        <pt x="434" y="732" on="0"/>
        <pt x="592" y="786" on="1"/>
        <pt x="844" y="871" on="0"/>
        <pt x="1061" y="909" on="1"/>
        <pt x="1081" y="913" on="0"/>
        <pt x="1081" y="1033" on="0"/>
        <pt x="1079" y="1111" on="0"/>
        <pt x="1071" y="1234" on="0"/>
        <pt x="1052" y="1305" on="0"/>
        <pt x="1021" y="1398" on="0"/>
        <pt x="969" y="1451" on="0"/>
        <pt x="934" y="1476" on="1"/>
        <pt x="869" y="1524" on="0"/>
        <pt x="668" y="1524" on="0"/>
        <pt x="531" y="1467" on="0"/>
        <pt x="492" y="1362" on="0"/>
        <pt x="492" y="1162" on="0"/>
        <pt x="413" y="1108" on="0"/>
        <pt x="241" y="1020" on="0"/>
        <pt x="225" y="1020" on="1"/>
        <pt x="188" y="1020" on="0"/>
        <pt x="188" y="1197" on="0"/>
        <pt x="268" y="1376" on="0"/>
        <pt x="400" y="1505" on="0"/>
        <pt x="483" y="1552" on="1"/>
        <pt x="648" y="1647" on="0"/>
        <pt x="947" y="1647" on="0"/>
        <pt x="1137" y="1595" on="0"/>
        <pt x="1261" y="1502" on="0"/>
        <pt x="1300" y="1432" on="1"/>
        <pt x="1372" y="1304" on="0"/>
      </contour>
      <contour>
        <pt x="442" y="406" on="1"/>
        <pt x="442" y="340" on="0"/>
        <pt x="499" y="219" on="0"/>
        <pt x="618" y="135" on="0"/>
        <pt x="769" y="135" on="0"/>
        <pt x="862" y="158" on="1"/>
        <pt x="1081" y="212" on="0"/>
        <pt x="1081" y="250" on="1"/>
        <pt x="1081" y="786" on="1"/>
        <pt x="1081" y="819" on="0"/>
        <pt x="1062" y="819" on="0"/>
        <pt x="1026" y="812" on="1"/>
        <pt x="442" y="698" on="0"/>
      </contour>
    </TTGlyph>
    <TTGlyph name="a.denom" xMin="131" yMin="-74" xMax="1409" yMax="1331">
      <contour>
        <pt x="1188" y="893" on="1"/>
        <pt x="1167" y="225" on="1"/>
        <pt x="1167" y="145" on="0"/>
        <pt x="1229" y="139" on="1"/>
        <pt x="1234" y="142" on="0"/>
        <pt x="1263" y="162" on="1"/>
        <pt x="1343" y="217" on="0"/>
        <pt x="1374" y="217" on="0"/>
        <pt x="1409" y="172" on="0"/>
        <pt x="1409" y="144" on="0"/>
        <pt x="1377" y="111" on="0"/>
        <pt x="1321" y="67" on="0"/>
        <pt x="1294" y="48" on="1"/>
        <pt x="1222" y="-4" on="0"/>
        <pt x="1120" y="-74" on="0"/>
        <pt x="1085" y="-74" on="1"/>
        <pt x="976" y="-74" on="0"/>
        <pt x="939" y="120" on="1"/>
        <pt x="938" y="125" on="0"/>
        <pt x="938" y="127" on="1"/>
        <pt x="935" y="125" on="0"/>
        <pt x="897" y="93" on="0"/>
        <pt x="806" y="35" on="0"/>
        <pt x="579" y="-61" on="0"/>
        <pt x="321" y="-61" on="0"/>
        <pt x="131" y="98" on="0"/>
        <pt x="131" y="308" on="0"/>
        <pt x="198" y="440" on="0"/>
        <pt x="319" y="541" on="0"/>
        <pt x="467" y="623" on="0"/>
        <pt x="558" y="654" on="1"/>
        <pt x="735" y="712" on="0"/>
        <pt x="909" y="741" on="1"/>
        <pt x="922" y="741" on="0"/>
        <pt x="922" y="758" on="1"/>
        <pt x="922" y="778" on="1"/>
        <pt x="922" y="1035" on="0"/>
        <pt x="874" y="1107" on="1"/>
        <pt x="834" y="1165" on="0"/>
        <pt x="800" y="1181" on="1"/>
        <pt x="731" y="1212" on="0"/>
        <pt x="596" y="1212" on="0"/>
        <pt x="495" y="1172" on="0"/>
        <pt x="462" y="1096" on="0"/>
        <pt x="459" y="929" on="0"/>
        <pt x="389" y="886" on="0"/>
        <pt x="248" y="827" on="0"/>
        <pt x="229" y="827" on="1"/>
        <pt x="184" y="827" on="0"/>
        <pt x="184" y="971" on="0"/>
        <pt x="252" y="1116" on="0"/>
        <pt x="365" y="1219" on="0"/>
        <pt x="436" y="1256" on="1"/>
        <pt x="576" y="1331" on="0"/>
        <pt x="855" y="1331" on="0"/>
        <pt x="1039" y="1269" on="0"/>
        <pt x="1090" y="1210" on="1"/>
        <pt x="1188" y="1097" on="0"/>
      </contour>
      <contour>
        <pt x="414" y="332" on="1"/>
        <pt x="414" y="252" on="0"/>
        <pt x="526" y="123" on="0"/>
        <pt x="701" y="123" on="0"/>
        <pt x="899" y="186" on="0"/>
        <pt x="922" y="205" on="1"/>
        <pt x="922" y="627" on="1"/>
        <pt x="918" y="651" on="1"/>
        <pt x="866" y="651" on="0"/>
        <pt x="717" y="602" on="1"/>
        <pt x="414" y="507" on="0"/>
      </contour>
    </TTGlyph>
    <TTGlyph name="a.numer" xMin="131" yMin="950" xMax="1409" yMax="2355">
      <component glyphName="a.denom" x="0" y="1024" flags="0x1004"/>
    </TTGlyph>
    <TTGlyph name="a.sc" xMin="70" yMin="-20" xMax="1921" yMax="1769">
      <contour>
        <pt x="410" y="-12" on="1"/>
        <pt x="123" y="-20" on="1"/>
        <pt x="70" y="-20" on="0"/>
        <pt x="70" y="115" on="0"/>
        <pt x="127" y="115" on="1"/>
        <pt x="254" y="115" on="1"/>
        <pt x="305" y="150" on="0"/>
        <pt x="813" y="1369" on="0"/>
        <pt x="861" y="1475" on="0"/>
        <pt x="883" y="1502" on="0"/>
        <pt x="900" y="1512" on="0"/>
        <pt x="910" y="1524" on="1"/>
        <pt x="932" y="1554" on="0"/>
        <pt x="985" y="1727" on="0"/>
        <pt x="1022" y="1769" on="0"/>
        <pt x="1071" y="1769" on="0"/>
        <pt x="1088" y="1761" on="0"/>
        <pt x="1103" y="1743" on="0"/>
        <pt x="1114" y="1724" on="0"/>
        <pt x="1128" y="1688" on="0"/>
        <pt x="1133" y="1674" on="1"/>
        <pt x="1202" y="1473" on="0"/>
        <pt x="1424" y="915" on="1"/>
        <pt x="1726" y="154" on="0"/>
        <pt x="1757" y="115" on="1"/>
        <pt x="1880" y="115" on="1"/>
        <pt x="1921" y="115" on="0"/>
        <pt x="1921" y="-20" on="0"/>
        <pt x="1868" y="-20" on="1"/>
        <pt x="1544" y="-12" on="1"/>
        <pt x="1130" y="-20" on="1"/>
        <pt x="1094" y="-20" on="0"/>
        <pt x="1094" y="115" on="0"/>
        <pt x="1135" y="115" on="1"/>
        <pt x="1372" y="115" on="1"/>
        <pt x="1342" y="221" on="0"/>
        <pt x="1223" y="562" on="0"/>
        <pt x="1200" y="629" on="0"/>
        <pt x="1194" y="635" on="0"/>
        <pt x="1176" y="635" on="1"/>
        <pt x="709" y="635" on="1"/>
        <pt x="684" y="635" on="0"/>
        <pt x="524" y="167" on="0"/>
        <pt x="512" y="115" on="1"/>
        <pt x="774" y="115" on="1"/>
        <pt x="819" y="115" on="0"/>
        <pt x="819" y="-20" on="0"/>
        <pt x="762" y="-20" on="1"/>
      </contour>
      <contour>
        <pt x="954" y="1315" on="1"/>
        <pt x="929" y="1315" on="0"/>
        <pt x="732" y="755" on="0"/>
        <pt x="737" y="745" on="0"/>
        <pt x="750" y="745" on="1"/>
        <pt x="1130" y="745" on="1"/>
        <pt x="1159" y="745" on="0"/>
        <pt x="1132" y="819" on="0"/>
        <pt x="1102" y="906" on="1"/>
        <pt x="1067" y="1008" on="0"/>
        <pt x="965" y="1315" on="0"/>
      </contour>
    </TTGlyph>
    <TTGlyph name="a.sub" xMin="131" yMin="-688" xMax="1409" yMax="717">
      <component glyphName="a.denom" x="0" y="-614" flags="0x1004"/>
    </TTGlyph>
    <TTGlyph name="a.sup" xMin="131" yMin="1360" xMax="1409" yMax="2765">
      <component glyphName="a.denom" x="0" y="1434" flags="0x1004"/>
    </TTGlyph>
    <TTGlyph name="aacute" xMin="131" yMin="-82" xMax="1651" yMax="2519">
      <component glyphName="acutecomb" x="1642" y="0" flags="0x1004"/>
      <component glyphName="a" x="0" y="0" flags="0x1004"/>
    </TTGlyph>
    <TTGlyph name="aacute.sc" xMin="70" yMin="-20" xMax="1921" yMax="2519">
      <component glyphName="acutecomb" x="1864" y="0" flags="0x1004"/>
      <component glyphName="a.sc" x="0" y="0" flags="0x1004"/>
    </TTGlyph>
    <TTGlyph name="abreve" xMin="131" yMin="-82" xMax="1651" yMax="2413">
      <component glyphName="uni0306" x="1642" y="0" flags="0x1004"/>
      <component glyphName="a" x="0" y="0" flags="0x1004"/>
    </TTGlyph>
    <TTGlyph name="abreve.sc" xMin="70" yMin="-20" xMax="1921" yMax="2413">
      <component glyphName="uni0306" x="1864" y="0" flags="0x1004"/>
      <component glyphName="a.sc" x="0" y="0" flags="0x1004"/>
    </TTGlyph>
    <TTGlyph name="acircumflex" xMin="131" yMin="-82" xMax="1651" yMax="2466">
      <component glyphName="uni0302" x="1642" y="0" flags="0x1004"/>
      <component glyphName="a" x="0" y="0" flags="0x1004"/>
    </TTGlyph>
    <TTGlyph name="acircumflex.sc" xMin="70" yMin="-20" xMax="1921" yMax="2466">
      <component glyphName="uni0302" x="1864" y="0" flags="0x1004"/>
      <component glyphName="a.sc" x="0" y="0" flags="0x1004"/>
    </TTGlyph>
    <TTGlyph name="acute" xMin="745" yMin="1827" xMax="1249" yMax="2519">
      <component glyphName="acutecomb" x="1638" y="0" flags="0x1004"/>
    </TTGlyph>
    <TTGlyph name="acutecomb" xMin="-893" yMin="1827" xMax="-389" yMax="2519">
      <contour>
        <pt x="-864" y="1827" on="1"/>
        <pt x="-893" y="1827" on="0"/>
        <pt x="-893" y="1860" on="0"/>
        <pt x="-885" y="1876" on="1"/>
        <pt x="-684" y="2408" on="1"/>
        <pt x="-644" y="2519" on="0"/>
        <pt x="-477" y="2519" on="0"/>
        <pt x="-389" y="2441" on="0"/>
        <pt x="-389" y="2342" on="0"/>
        <pt x="-422" y="2294" on="1"/>
        <pt x="-758" y="1855" on="1"/>
        <pt x="-779" y="1827" on="0"/>
        <pt x="-799" y="1827" on="1"/>
      </contour>
    </TTGlyph>
    <TTGlyph name="acutecomb.cap" xMin="-881" yMin="1827" xMax="-360" yMax="2335">
      <contour>
        <pt x="-856" y="1827" on="1"/>
        <pt x="-881" y="1827" on="0"/>
        <pt x="-881" y="1844" on="0"/>
        <pt x="-875" y="1858" on="0"/>
        <pt x="-865" y="1874" on="0"/>
        <pt x="-864" y="1876" on="1"/>
        <pt x="-647" y="2228" on="1"/>
        <pt x="-576" y="2335" on="0"/>
        <pt x="-432" y="2335" on="0"/>
        <pt x="-360" y="2269" on="0"/>
        <pt x="-360" y="2156" on="0"/>
        <pt x="-422" y="2101" on="1"/>
        <pt x="-717" y="1855" on="1"/>
        <pt x="-721" y="1852" on="0"/>
        <pt x="-728" y="1844" on="1"/>
        <pt x="-744" y="1827" on="0"/>
        <pt x="-758" y="1827" on="1"/>
      </contour>
    </TTGlyph>
    <TTGlyph name="adieresis" xMin="131" yMin="-82" xMax="1651" yMax="2421">
      <component glyphName="uni0308" x="1642" y="0" flags="0x1004"/>
      <component glyphName="a" x="0" y="0" flags="0x1004"/>
    </TTGlyph>
    <TTGlyph name="adieresis.sc" xMin="70" yMin="-20" xMax="1921" yMax="2421">
      <component glyphName="uni0308" x="1864" y="0" flags="0x1004"/>
      <component glyphName="a.sc" x="0" y="0" flags="0x1004"/>
    </TTGlyph>
    <TTGlyph name="ae" xMin="131" yMin="-74" xMax="2548" yMax="1642">
      <contour>
        <pt x="1360" y="930" on="1"/>
        <pt x="1343" y="930" on="0"/>
        <pt x="1343" y="639" on="0"/>
        <pt x="1446" y="382" on="0"/>
        <pt x="1531" y="300" on="1"/>
        <pt x="1708" y="131" on="0"/>
        <pt x="1942" y="131" on="1"/>
        <pt x="2196" y="131" on="0"/>
        <pt x="2434" y="370" on="1"/>
        <pt x="2462" y="397" on="0"/>
        <pt x="2486" y="397" on="0"/>
        <pt x="2548" y="342" on="0"/>
        <pt x="2548" y="311" on="0"/>
        <pt x="2480" y="226" on="0"/>
        <pt x="2347" y="110" on="0"/>
        <pt x="2262" y="56" on="1"/>
        <pt x="2062" y="-74" on="0"/>
        <pt x="1827" y="-74" on="1"/>
        <pt x="1454" y="-74" on="0"/>
        <pt x="1241" y="152" on="1"/>
        <pt x="1236" y="158" on="0"/>
        <pt x="1229" y="164" on="0"/>
        <pt x="1223" y="170" on="0"/>
        <pt x="1219" y="170" on="1"/>
        <pt x="1213" y="170" on="1"/>
        <pt x="1208" y="170" on="0"/>
        <pt x="1181" y="150" on="0"/>
        <pt x="1031" y="58" on="0"/>
        <pt x="679" y="-74" on="0"/>
        <pt x="353" y="-74" on="0"/>
        <pt x="131" y="123" on="0"/>
        <pt x="131" y="287" on="1"/>
        <pt x="131" y="471" on="0"/>
        <pt x="283" y="600" on="1"/>
        <pt x="434" y="728" on="0"/>
        <pt x="592" y="782" on="1"/>
        <pt x="844" y="867" on="0"/>
        <pt x="1061" y="905" on="1"/>
        <pt x="1081" y="909" on="0"/>
        <pt x="1081" y="1020" on="0"/>
        <pt x="1080" y="1090" on="0"/>
        <pt x="1074" y="1200" on="0"/>
        <pt x="1061" y="1265" on="0"/>
        <pt x="1038" y="1354" on="0"/>
        <pt x="1003" y="1406" on="0"/>
        <pt x="951" y="1465" on="0"/>
        <pt x="918" y="1480" on="1"/>
        <pt x="837" y="1516" on="0"/>
        <pt x="663" y="1516" on="0"/>
        <pt x="535" y="1463" on="0"/>
        <pt x="495" y="1366" on="0"/>
        <pt x="492" y="1159" on="0"/>
        <pt x="410" y="1103" on="0"/>
        <pt x="252" y="1020" on="0"/>
        <pt x="233" y="1020" on="1"/>
        <pt x="188" y="1020" on="0"/>
        <pt x="188" y="1193" on="0"/>
        <pt x="268" y="1372" on="0"/>
        <pt x="400" y="1500" on="0"/>
        <pt x="483" y="1548" on="1"/>
        <pt x="648" y="1642" on="0"/>
        <pt x="823" y="1642" on="1"/>
        <pt x="1156" y="1642" on="0"/>
        <pt x="1286" y="1454" on="1"/>
        <pt x="1305" y="1426" on="0"/>
        <pt x="1323" y="1424" on="0"/>
        <pt x="1348" y="1446" on="1"/>
        <pt x="1582" y="1634" on="0"/>
        <pt x="1880" y="1634" on="1"/>
        <pt x="2183" y="1634" on="0"/>
        <pt x="2348" y="1432" on="1"/>
        <pt x="2503" y="1242" on="0"/>
        <pt x="2503" y="971" on="1"/>
        <pt x="2503" y="909" on="0"/>
        <pt x="2269" y="909" on="1"/>
      </contour>
      <contour>
        <pt x="442" y="401" on="1"/>
        <pt x="442" y="335" on="0"/>
        <pt x="499" y="214" on="0"/>
        <pt x="618" y="131" on="0"/>
        <pt x="772" y="131" on="0"/>
        <pt x="960" y="177" on="0"/>
        <pt x="1081" y="231" on="0"/>
        <pt x="1081" y="246" on="1"/>
        <pt x="1081" y="782" on="1"/>
        <pt x="1081" y="815" on="0"/>
        <pt x="1062" y="815" on="0"/>
        <pt x="1026" y="808" on="1"/>
        <pt x="442" y="694" on="0"/>
      </contour>
      <contour>
        <pt x="1364" y="1044" on="1"/>
        <pt x="1364" y="1024" on="0"/>
        <pt x="1415" y="1024" on="0"/>
        <pt x="1526" y="1026" on="1"/>
        <pt x="1859" y="1032" on="0"/>
        <pt x="2188" y="1048" on="0"/>
        <pt x="2195" y="1053" on="1"/>
        <pt x="2195" y="1353" on="0"/>
        <pt x="2014" y="1466" on="1"/>
        <pt x="1927" y="1520" on="0"/>
        <pt x="1737" y="1520" on="0"/>
        <pt x="1564" y="1428" on="0"/>
        <pt x="1504" y="1357" on="1"/>
        <pt x="1376" y="1204" on="0"/>
      </contour>
    </TTGlyph>
    <TTGlyph name="ae.sc" xMin="8" yMin="-20" xMax="2720" yMax="1782">
      <contour>
        <pt x="348" y="-12" on="1"/>
        <pt x="61" y="-20" on="1"/>
        <pt x="8" y="-20" on="0"/>
        <pt x="8" y="115" on="0"/>
        <pt x="66" y="115" on="1"/>
        <pt x="193" y="115" on="1"/>
        <pt x="253" y="141" on="0"/>
        <pt x="1000" y="1232" on="1"/>
        <pt x="1155" y="1459" on="0"/>
        <pt x="1200" y="1519" on="0"/>
        <pt x="1200" y="1528" on="1"/>
        <pt x="971" y="1528" on="1"/>
        <pt x="918" y="1528" on="0"/>
        <pt x="918" y="1663" on="0"/>
        <pt x="950" y="1663" on="1"/>
        <pt x="1507" y="1655" on="1"/>
        <pt x="2425" y="1663" on="1"/>
        <pt x="2433" y="1679" on="0"/>
        <pt x="2433" y="1745" on="1"/>
        <pt x="2433" y="1782" on="0"/>
        <pt x="2503" y="1782" on="1"/>
        <pt x="2556" y="1782" on="0"/>
        <pt x="2572" y="1756" on="0"/>
        <pt x="2572" y="1741" on="1"/>
        <pt x="2568" y="1286" on="1"/>
        <pt x="2568" y="1249" on="0"/>
        <pt x="2429" y="1249" on="0"/>
        <pt x="2429" y="1286" on="1"/>
        <pt x="2429" y="1511" on="1"/>
        <pt x="2354" y="1528" on="0"/>
        <pt x="1909" y="1528" on="1"/>
        <pt x="1675" y="1528" on="1"/>
        <pt x="1667" y="1499" on="0"/>
        <pt x="1667" y="1327" on="1"/>
        <pt x="1667" y="926" on="1"/>
        <pt x="1667" y="877" on="0"/>
        <pt x="1688" y="877" on="1"/>
        <pt x="1827" y="877" on="1"/>
        <pt x="2280" y="877" on="0"/>
        <pt x="2331" y="897" on="1"/>
        <pt x="2331" y="1069" on="1"/>
        <pt x="2331" y="1098" on="0"/>
        <pt x="2384" y="1098" on="1"/>
        <pt x="2413" y="1098" on="1"/>
        <pt x="2462" y="1098" on="0"/>
        <pt x="2462" y="1073" on="1"/>
        <pt x="2458" y="836" on="1"/>
        <pt x="2462" y="598" on="1"/>
        <pt x="2462" y="561" on="0"/>
        <pt x="2331" y="561" on="0"/>
        <pt x="2331" y="602" on="1"/>
        <pt x="2331" y="745" on="1"/>
        <pt x="2287" y="766" on="0"/>
        <pt x="1999" y="766" on="1"/>
        <pt x="1700" y="766" on="1"/>
        <pt x="1677" y="766" on="0"/>
        <pt x="1667" y="758" on="0"/>
        <pt x="1667" y="201" on="0"/>
        <pt x="1683" y="143" on="1"/>
        <pt x="2544" y="152" on="1"/>
        <pt x="2566" y="152" on="0"/>
        <pt x="2576" y="167" on="0"/>
        <pt x="2576" y="201" on="1"/>
        <pt x="2576" y="434" on="1"/>
        <pt x="2576" y="471" on="0"/>
        <pt x="2638" y="471" on="1"/>
        <pt x="2654" y="471" on="1"/>
        <pt x="2720" y="471" on="0"/>
        <pt x="2720" y="434" on="1"/>
        <pt x="2716" y="12" on="1"/>
        <pt x="2716" y="-20" on="0"/>
        <pt x="2654" y="-20" on="1"/>
        <pt x="1524" y="-12" on="1"/>
        <pt x="1069" y="-20" on="1"/>
        <pt x="1024" y="-20" on="0"/>
        <pt x="1024" y="115" on="0"/>
        <pt x="1081" y="115" on="1"/>
        <pt x="1339" y="115" on="1"/>
        <pt x="1343" y="127" on="0"/>
        <pt x="1343" y="250" on="1"/>
        <pt x="1343" y="635" on="1"/>
        <pt x="791" y="635" on="1"/>
        <pt x="767" y="635" on="0"/>
        <pt x="725" y="565" on="1"/>
        <pt x="502" y="195" on="0"/>
        <pt x="471" y="115" on="1"/>
        <pt x="713" y="115" on="1"/>
        <pt x="758" y="115" on="0"/>
        <pt x="758" y="-20" on="0"/>
        <pt x="696" y="-20" on="1"/>
      </contour>
      <contour>
        <pt x="840" y="745" on="1"/>
        <pt x="1343" y="745" on="1"/>
        <pt x="1343" y="1286" on="1"/>
        <pt x="1343" y="1462" on="0"/>
        <pt x="1339" y="1503" on="1"/>
        <pt x="1298" y="1437" on="0"/>
        <pt x="1176" y="1256" on="1"/>
        <pt x="854" y="776" on="0"/>
      </contour>
    </TTGlyph>
    <TTGlyph name="afii00208" xMin="29" yMin="705" xMax="3043" yMax="881">
      <component glyphName="emdash" x="0" y="0" flags="0x1004"/>
    </TTGlyph>
    <TTGlyph name="afii00208.u" xMin="29" yMin="1115" xMax="3043" yMax="1291">
      <component glyphName="emdash" x="0" y="410" flags="0x1004"/>
    </TTGlyph>
    <TTGlyph name="afii57929" xMin="1658" yMin="1987" xMax="2011" yMax="2740">
      <component glyphName="uni0315" x="1638" y="0" flags="0x1004"/>
    </TTGlyph>
    <TTGlyph name="agrave" xMin="131" yMin="-82" xMax="1651" yMax="2519">
      <component glyphName="gravecomb" x="1642" y="0" flags="0x1004"/>
      <component glyphName="a" x="0" y="0" flags="0x1004"/>
    </TTGlyph>
    <TTGlyph name="agrave.sc" xMin="70" yMin="-20" xMax="1921" yMax="2519">
      <component glyphName="gravecomb" x="1864" y="0" flags="0x1004"/>
      <component glyphName="a.sc" x="0" y="0" flags="0x1004"/>
    </TTGlyph>
    <TTGlyph name="amacron" xMin="131" yMin="-82" xMax="1651" yMax="2261">
      <component glyphName="uni0304" x="1642" y="0" flags="0x1004"/>
      <component glyphName="a" x="0" y="0" flags="0x1004"/>
    </TTGlyph>
    <TTGlyph name="amacron.sc" xMin="70" yMin="-20" xMax="1921" yMax="2261">
      <component glyphName="uni0304" x="1864" y="0" flags="0x1004"/>
      <component glyphName="a.sc" x="0" y="0" flags="0x1004"/>
    </TTGlyph>
    <TTGlyph name="ampersand" xMin="152" yMin="-53" xMax="2601" yMax="2642">
      <contour>
        <pt x="2245" y="1483" on="1"/>
        <pt x="2548" y="1495" on="1"/>
        <pt x="2581" y="1495" on="0"/>
        <pt x="2601" y="1462" on="0"/>
        <pt x="2601" y="1368" on="0"/>
        <pt x="2576" y="1348" on="0"/>
        <pt x="2531" y="1348" on="1"/>
        <pt x="2392" y="1348" on="1"/>
        <pt x="2365" y="1348" on="0"/>
        <pt x="2301" y="1254" on="0"/>
        <pt x="2195" y="1101" on="0"/>
        <pt x="2098" y="962" on="0"/>
        <pt x="2046" y="886" on="1"/>
        <pt x="1930" y="717" on="0"/>
        <pt x="1925" y="688" on="0"/>
        <pt x="2094" y="476" on="0"/>
        <pt x="2251" y="194" on="0"/>
        <pt x="2274" y="165" on="0"/>
        <pt x="2305" y="148" on="1"/>
        <pt x="2353" y="123" on="0"/>
        <pt x="2546" y="123" on="0"/>
        <pt x="2556" y="105" on="0"/>
        <pt x="2556" y="9" on="0"/>
        <pt x="2536" y="-12" on="0"/>
        <pt x="2327" y="-14" on="0"/>
        <pt x="2015" y="-53" on="0"/>
        <pt x="1993" y="-53" on="1"/>
        <pt x="1948" y="-53" on="0"/>
        <pt x="1933" y="-4" on="1"/>
        <pt x="1878" y="197" on="0"/>
        <pt x="1741" y="393" on="1"/>
        <pt x="1719" y="424" on="0"/>
        <pt x="1700" y="425" on="0"/>
        <pt x="1675" y="397" on="1"/>
        <pt x="1264" y="-53" on="0"/>
        <pt x="897" y="-53" on="1"/>
        <pt x="558" y="-53" on="0"/>
        <pt x="354" y="142" on="1"/>
        <pt x="152" y="334" on="0"/>
        <pt x="152" y="635" on="1"/>
        <pt x="152" y="919" on="0"/>
        <pt x="420" y="1194" on="1"/>
        <pt x="535" y="1312" on="0"/>
        <pt x="713" y="1438" on="0"/>
        <pt x="713" y="1449" on="0"/>
        <pt x="699" y="1463" on="0"/>
        <pt x="668" y="1492" on="0"/>
        <pt x="655" y="1507" on="1"/>
        <pt x="422" y="1771" on="0"/>
        <pt x="422" y="1991" on="1"/>
        <pt x="422" y="2269" on="0"/>
        <pt x="624" y="2456" on="1"/>
        <pt x="825" y="2642" on="0"/>
        <pt x="1102" y="2642" on="1"/>
        <pt x="1393" y="2642" on="0"/>
        <pt x="1556" y="2493" on="1"/>
        <pt x="1671" y="2387" on="0"/>
        <pt x="1671" y="2220" on="1"/>
        <pt x="1671" y="1906" on="0"/>
        <pt x="1155" y="1556" on="1"/>
        <pt x="1111" y="1527" on="0"/>
        <pt x="1109" y="1505" on="0"/>
        <pt x="1149" y="1472" on="0"/>
        <pt x="1241" y="1395" on="0"/>
        <pt x="1398" y="1251" on="0"/>
        <pt x="1491" y="1156" on="1"/>
        <pt x="1621" y="1022" on="0"/>
        <pt x="1827" y="801" on="0"/>
        <pt x="1842" y="803" on="0"/>
        <pt x="1884" y="881" on="0"/>
        <pt x="1990" y="1064" on="0"/>
        <pt x="2023" y="1122" on="1"/>
        <pt x="2114" y="1284" on="0"/>
        <pt x="2114" y="1339" on="1"/>
        <pt x="2114" y="1348" on="0"/>
        <pt x="2048" y="1348" on="1"/>
        <pt x="1790" y="1348" on="1"/>
        <pt x="1751" y="1348" on="0"/>
        <pt x="1737" y="1370" on="0"/>
        <pt x="1737" y="1465" on="0"/>
        <pt x="1761" y="1495" on="0"/>
        <pt x="1790" y="1495" on="1"/>
      </contour>
      <contour>
        <pt x="469" y="1010" on="0"/>
        <pt x="430" y="878" on="0"/>
        <pt x="430" y="652" on="0"/>
        <pt x="602" y="381" on="0"/>
        <pt x="878" y="225" on="0"/>
        <pt x="1028" y="225" on="1"/>
        <pt x="1339" y="225" on="0"/>
        <pt x="1610" y="496" on="1"/>
        <pt x="1630" y="523" on="0"/>
        <pt x="1630" y="532" on="0"/>
        <pt x="1624" y="543" on="0"/>
        <pt x="1608" y="567" on="0"/>
        <pt x="1493" y="730" on="0"/>
        <pt x="1075" y="1153" on="0"/>
        <pt x="883" y="1312" on="0"/>
        <pt x="866" y="1325" on="0"/>
        <pt x="857" y="1332" on="0"/>
        <pt x="845" y="1341" on="0"/>
        <pt x="838" y="1346" on="0"/>
        <pt x="834" y="1348" on="1"/>
        <pt x="824" y="1352" on="0"/>
        <pt x="808" y="1352" on="0"/>
        <pt x="681" y="1262" on="0"/>
        <pt x="611" y="1202" on="0"/>
        <pt x="526" y="1107" on="0"/>
      </contour>
      <contour>
        <pt x="918" y="1692" on="1"/>
        <pt x="982" y="1622" on="0"/>
        <pt x="1018" y="1622" on="0"/>
        <pt x="1078" y="1665" on="0"/>
        <pt x="1131" y="1705" on="0"/>
        <pt x="1220" y="1792" on="0"/>
        <pt x="1266" y="1854" on="1"/>
        <pt x="1368" y="1988" on="0"/>
        <pt x="1368" y="2291" on="0"/>
        <pt x="1190" y="2494" on="0"/>
        <pt x="941" y="2494" on="0"/>
        <pt x="862" y="2440" on="1"/>
        <pt x="713" y="2338" on="0"/>
        <pt x="713" y="1934" on="0"/>
      </contour>
    </TTGlyph>
</ttFont>
